<ttFont>
          <CharString index="0">
            -8 rmoveto
            206 116 92 195 hvcurveto
            378 vlineto
            11 -4 43 -88 -99 -88 -32 -33 vhcurveto
            -286 vlineto
            -149 -4 -38 -39 -38 -7 38 148 vhcurveto
            298 vlineto
            11 -5 43 -86 -101 -87 -32 -33 vhcurveto
            -367 vlineto
            -196 120 -91 204 vhcurveto
            return
          </CharString>
          <CharString index="1">
            -75 -135 -37 callgsubr
            174 -3 callgsubr
          </CharString>
          <CharString index="2">
            -9 rmoveto
            204 149 105 269 298 -160 57 -193 -195 -158 -97 -258 -309 148 -65 205 hvcurveto
            157 vmoveto
            16 callgsubr
            return
          </CharString>
          <CharString index="3">
            298 226 rmoveto
            33 hlineto
            92 192 12 175 162 -157 14 -96 -199 -138 -63 -251 -78 13 -207 308 99 151 22 57 return
          </CharString>
          <CharString index="4">
            81 rmoveto
            8 -57 rlineto
            -16 3 0 -8 69 hhcurveto
            88 91 10 callgsubr
            301 vlineto
            91 -1 173 -283 -151 -128 -66 -24 -55 58 -79 22 vhcurveto
            return
          </CharString>
          <CharString index="5">
            55 125 66 14 43 -15 47 -25 hvcurveto
            -23 -112 -39 -5 -58 callgsubr
          </CharString>
          <CharString index="6">
            13 27 24 37 hhcurveto
            17 10 -5 -11 hvcurveto
            -41 -139 -66 -22 vvcurveto
            -97 22 -7 11 vhcurveto
            251 hlineto
            0 26 3 66 vvcurveto
            52 -16 5 -4 vhcurveto
            -124 hlineto
            7 2 134 38 103 vvcurveto
            81 -83 27 -87 -84 -55 -26 -14 vhcurveto
            return
          </CharString>
          <CharString index="7">
            25 36 51 -89 callgsubr
            -402 hlineto
            -27 -38 -51 -38 -81 callsubr
            return
          </CharString>
          <CharString index="8">
            -26 -44 -51 -81 -23 174 -15 56 25 25 37 43 44 -135 46 -75 hvcurveto
            endchar
          </CharString>
          <CharString index="9">
            rmoveto
            -11 58 -23 76 92 83 32 82 63 -44 24 -3 1 vhcurveto
            4 2 38 23 55 vvcurveto
            48 -42 52 -128 -91 -39 -26 -18 -10 12 -85 20 vhcurveto
            hintmask 10101000
            -63 callgsubr
            hintmask 11010000
            -45 callsubr
            hintmask 11001000
            -84 callsubr
            endchar
          </CharString>
          <CharString index="10">
            507 rmoveto
            102 -10 101 -41 vhcurveto
            -461 hlineto
            -28 -18 -96 -74 -61 12 -26 15 hvcurveto
            194 hlineto
            0 -225 -236 -33 vvcurveto
            -69 11 -115 43 vhcurveto
            487 hlineto
            29 17 67 72 68 -11 41 -15 hvcurveto
            -211 hlineto
            0 212 218 41 vvcurveto
            return
          </CharString>
          <CharString index="11">
            -65 callsubr
            311 hmoveto
            -65 callsubr
            endchar
          </CharString>
          <CharString index="12">
            63 44 17 75 76 -47 12 -60 return
          </CharString>
          <CharString index="13">
            54 -9 146 -116 -13 callsubr
            1 157 -157 190 -25 callsubr
            63 270 hintmask 10110110
            634 590 rmoveto
            25 36 58 44 48 -13 7 -13 hvcurveto
            -43 hlineto
            hintmask 10101110
            14 -7 -20 19 -64 hhcurveto
            hintmask 10110110
            -58 -56 -15 -18 -34 hvcurveto
            -17 hlineto
            -27 -38 -48 -48 -48 13 -13 14 hvcurveto
            38 -68 -8 hlineto
            0 -16 67 -130 -116 -75 -54 -230 -19 callgsubr
            8 hlineto
            8 -57 rlineto
            hintmask 01110110
            -15 2 3 -9 62 hhcurveto
            88 96 10 callgsubr
            566 vlineto
            -270 -433 rmoveto
            hintmask 10110110
            -46 callsubr
            endchar
          </CharString>
          <CharString index="14">
            hmoveto
            367 hlineto
            21 12 78 84 47 -11 20 -10 -62 -122 -8 0 hvcurveto
            443 -101 callgsubr
            return
          </CharString>
          <CharString index="15">
            75 41 17 70 73 -46 10 -70 -68 -46 -10 -73 -70 42 -17 72 hvcurveto
            67 vmoveto
            -21 -5 5 14 14 6 3 20 21 7 -3 -14 -14 -5 -5 -23 hvcurveto
            endchar
          </CharString>
          <CharString index="16">
            6 -3 19 -65 -52 -76 -13 -12 -9 vhcurveto
            -17 -24 -91 -147 -15 vvcurveto
            -39 1 -49 17 vhcurveto
            138 -60 hlineto
            -9 7 -4 37 vhcurveto
            -35 156 rmoveto
            -37 hlineto
            37 115 rlineto
            endchar
          </CharString>
          <CharString index="17">
            99 45 62 129 87 -1 65 -41 -59 -103 -3 -50 -129 2 -161 58 hvcurveto
            endchar
          </CharString>
          <CharString index="18">
            -10 -10 -11 -18 -24 -6 33 33 35 22 37 36 vhcurveto
            return
          </CharString>
          <CharString index="19">
            24 rmoveto
            4 7 180 479 4 vvcurveto
            16 -22 50 -96 -64 -118 -28 -35 -4 vhcurveto
            -33 -257 rlineto
            -11 hlineto
            -11 241 rlineto
            23 -1 -32 20 -67 hhcurveto
            -69 -84 -28 -35 -2 hvcurveto
            -12 -221 rlineto
            -12 hlineto
            -34 274 rlineto
            16 -1 -13 30 -75 hhcurveto
            -88 -124 -42 -34 -23 186 -457 0 hvcurveto
            -16 7 9 -8 69 hhcurveto
            87 86 8 16 2 hvcurveto
            32 182 rlineto
            14 hlineto
            34 -182 rlineto
            -15 3 39 -9 69 hhcurveto
            87 57 9 15 8 hvcurveto
            return
          </CharString>
          <CharString index="20">
            0 117 235 22 -23 callsubr
            -19 -30 -24 -16 vhcurveto
            -16 -24 -135 -183 -31 vvcurveto
            -34 137 -198 14 -17 vhcurveto
            -23 19 16 -16 119 hhcurveto
            44 8 11 14 23 -117 240 0 hvcurveto
            return
          </CharString>
          <CharString index="21">
            -9 rmoveto
            185 126 64 169 67 -41 86 -32 34 hvcurveto
            hintmask 11101100
            17 19 33 78 59 vvcurveto
            151 -112 55 -176 -176 -112 -55 -151 -59 33 -78 17 -19 vhcurveto
            hintmask 11110100
            -31 -34 -41 -86 -67 vvcurveto
            -169 126 -64 184 vhcurveto
            145 vmoveto
            -19 -17 9 73 70 17 12 19 19 17 -12 -70 -73 -17 -9 -19 hvcurveto
            369 vmoveto
            -19 -17 14 46 43 17 16 19 19 17 -16 -43 -46 -17 -14 -19 hvcurveto
            endchar
          </CharString>
          <CharString index="22">
            55 rmoveto
            -22 108 -42 145 173 123 60 154 123 -89 55 0 vhcurveto
            0 80 40 111 vvcurveto
            89 -47 98 -241 -171 -75 -50 -32 -19 25 -143 36 vhcurveto
            hintmask 10011000
            21 63 42 65 hhcurveto
            43 6 -19 -11 -51 -126 15 -19 -7 hvcurveto
            -15 -6 -6 -43 -37 vvcurveto
            -31 4 -54 17 -6 vhcurveto
            19 -7 126 15 -54 vvcurveto
            -21 -18 -9 -36 vhcurveto
            hintmask 01101000
            -69 -53 36 -21 hhcurveto
            -25 -43 -55 -119 hvcurveto
            endchar
          </CharString>
          <CharString index="23">
            10 -3 58 8 -29 vvcurveto
            -11 -11 -5 -18 vhcurveto
            -36 -28 19 -12 hhcurveto
            -13 -23 -38 -63 hvcurveto
            return
          </CharString>
          <CharString index="24">
            -79 hhcurveto
            -91 -174 -35 -225 -75 callgsubr
            -296 hlineto
            -16 19 -8 69 87 95 -40 callgsubr
            return
          </CharString>
          <CharString index="25">
            rmoveto
            108 87 32 163 159 -92 28 -103 -102 -92 -28 -159 -163 86 -32 108 hvcurveto
            return
          </CharString>
          <CharString index="26">
            -48 13 -23 14 hvcurveto
            return
          </CharString>
          <CharString index="27">
            -55 callgsubr
            vhcurveto
            return
          </CharString>
          <CharString index="28">
            254 vlineto
            10 0 35 -87 -87 -96 -30 -27 vhcurveto
            -272 vlineto
            -190 50 -70 151 126 48 callgsubr
            return
          </CharString>
          <CharString index="29">
            142 22 12 20 19 21 -12 -142 return
          </CharString>
          <CharString index="30">
            136 -124 -21 283 79 12 224 -171 171 return
          </CharString>
          <CharString index="31">
            267 rmoveto
            0 85 38 114 vvcurveto
            188 -217 0 -67 -86 -167 -25 -40 -68 41 -88 27 vhcurveto
            27 44 38 72 hhcurveto
            42 15 -20 -19 -37 -31 -11 -116 -27 -4 -45 -35 -35 2 -58 29 84 64 -10 -36 -51 -80 -31 -134 -20 -8 -27 -34 -56 25 -74 38 139 311 20 234 129 -88 39 0 hvcurveto
            endchar
          </CharString>
          <CharString index="32">
            25 36 68 -89 callgsubr
            return
          </CharString>
          <CharString index="33">
            hintmask 01001110
            302 -9 rmoveto
            -209 -73 42 23 55 42 96 24 hvcurveto
            32 59 -44 81 hhcurveto
            41 16 4 20 hvcurveto
            65 -269 -71 203 vvcurveto
            hintmask 10101110
            60 2 147 273 209 43 -42 -23 -54 -51 -87 -22 vhcurveto
            hintmask 10011101
            -35 -68 35 -49 hhcurveto
            -33 -9 -10 -14 hvcurveto
            -56 275 56 -209 vvcurveto
            -80 -32 -116 -247 vhcurveto
            return
          </CharString>
          <CharString index="34">
            hintmask 10110101
            262 -8 rmoveto
            -102 -125 48 301 326 224 53 152 154 64 -19 -80 -42 -17 -111 -50 hvcurveto
            hintmask 11010110
            -24 -81 31 -53 hhcurveto
            -35 -51 -20 -125 -106 35 -37 35 -5 hvcurveto
            90 vlineto
            33 80 34 84 91 6 -41 -14 vhcurveto
            -277 vlineto
            -19 -91 -10 -81 -55 -20 1 35 -3 vhcurveto
            -7 59 rlineto
            -8 hlineto
            return
          </CharString>
          <CharString index="35">
            430 rmoveto
            0 -7 10 22 vvcurveto
            79 125 41 149 18 8 26 32 56 -24 77 -40 -341 -160 -77 -348 -266 114 -91 203 256 27 145 98 112 -20 106 -164 vhcurveto
            -115 -27 -22 -2 hhcurveto
            28 -93 rmoveto
            18 12 -28 -76 -78 -12 -23 -18 -20 -10 25 76 74 10 30 20 hvcurveto
            endchar
          </CharString>
          <CharString index="36">
            451 rmoveto
            hintmask 10110000
            25 51 46 71 hhcurveto
            31 18 -9 -21 hvcurveto
            -79 -261 -150 -41 vvcurveto
            -184 42 -13 21 vhcurveto
            438 hlineto
            0 49 4 126 vvcurveto
            98 -29 10 -7 vhcurveto
            -200 hlineto
            11 4 220 80 198 vvcurveto
            149 -123 52 -164 -159 -103 -50 -27 vhcurveto
            hintmask 11010000
            -72 29 -121 40 vhcurveto
            endchar
          </CharString>
          <CharString index="37">
            67 rmoveto
            -34 89 -42 151 232 79 100 122 173 -159 38 -184 vhcurveto
            45 280 vlineto
            36 6 130 33 32 -6 48 -20 hvcurveto
            -442 hlineto
            -30 -3 -110 -93 -45 1 -176 34 -2 hvcurveto
            78 -4 125 -10 -51 vvcurveto
            -22 -28 -11 -21 vhcurveto
            hintmask 01110000
            -66 -72 49 -22 hhcurveto
            -30 -28 -83 -87 hvcurveto
            endchar
          </CharString>
          <CharString index="38">
            19 38 10 15 vvcurveto
            15 -158 11 -1 vhcurveto
            return
          </CharString>
          <CharString index="39">
            14 -125 66 -55 return
          </CharString>
          <CharString index="40">
            79 74 -11 6 -10 vhcurveto
            -402 hlineto
            return
          </CharString>
          <CharString index="41">
            rmoveto
            -17 57 -23 80 140 32 54 64 91 -83 16 -115 vhcurveto
            23 165 vlineto
            20 3 69 17 17 -3 26 -11 hvcurveto
            -252 hlineto
            -16 -2 -58 -49 hvcurveto
            hintmask 10010010
            -25 1 -83 18 -1 vhcurveto
            42 -3 66 0 -27 vvcurveto
            -12 -15 -5 -12 vhcurveto
            hintmask 01010100
            -34 -39 25 -11 hhcurveto
            -16 -15 -52 -47 hvcurveto
            endchar
          </CharString>
          <CharString index="42">
            -75 -115 -37 callgsubr
            154 -38 callsubr
            return
          </CharString>
          <CharString index="43">
            28 -37 2 -23 -23 -36 -4 -28 return
          </CharString>
          <CharString index="44">
            -376 388 -21 237 135 hstemhm
            15 14 callsubr
            hintmask 11100000
            123 367 rmoveto
            -91 callgsubr
            hintmask 11010000
            -24 callsubr
            endchar
          </CharString>
          <CharString index="45">
            rmoveto
            -27 -5 -24 -39 vhcurveto
            -40 -46 8 -7 hhcurveto
            -13 -17 -79 -12 -16 73 -10 74 105 65 44 149 141 -70 48 -107 -122 -39 -76 -53 -69 31 -41 63 60 34 17 0 hvcurveto
            -19 48 rmoveto
            -9 -13 10 41 41 13 7 9 11 9 -8 -40 -40 -9 -11 -11 hvcurveto
            endchar
          </CharString>
          <CharString index="46">
            rmoveto
            127 82 77 168 hvcurveto
            427 vlineto
            11 -4 36 -88 -90 -89 -36 -29 vhcurveto
            -419 vlineto
            -49 -21 -11 -43 -6 vhcurveto
            -18 -2 -7 -20 -36 vvcurveto
            -102 27 -9 124 vhcurveto
            74 755 rmoveto
            77 63 18 75 76 -64 11 -71 -82 -63 -15 -74 -73 63 -18 77 hvcurveto
            endchar
          </CharString>
          <CharString index="47">
            209 -275 -56 56 vvcurveto
            14 9 10 33 vhcurveto
            49 68 -35 35 hhcurveto
            22 51 87 54 23 -43 42 -209 -273 -2 -147 -60 hvcurveto
            return
          </CharString>
          <CharString index="48">
            hmoveto
            -64 callgsubr
            641 vlineto
            10 -4 37 -123 -99 -127 -25 -22 -16 vhcurveto
            -31 -45 -163 -278 -29 vvcurveto
            -72 2 -94 32 vhcurveto
            250 -123 hlineto
            -49 callsubr
            vhcurveto
            -67 303 rmoveto
            -69 hlineto
            70 218 rlineto
            0 0 -218 -1 vhcurveto
            endchar
          </CharString>
          <CharString index="49">
            638 332 rmoveto
            169 -30 88 -142 -124 -40 -90 0 vhcurveto
            -7 hlineto
            -9 44 rlineto
            return
          </CharString>
          <CharString index="50">
            136 -101 -7 callsubr
            return
          </CharString>
          <CharString index="51">
            87 108 8 16 return
          </CharString>
          <CharString index="52">
            343 -9 rmoveto
            184 133 55 250 259 -142 34 -175 -177 -141 -34 -259 -250 133 -55 185 hvcurveto
            80 vmoveto
            -136 -98 41 183 189 104 25 130 128 104 -25 -189 -183 -97 -41 -135 hvcurveto
            return
          </CharString>
          <CharString index="53">
            hintmask 10110110
            308 -9 rmoveto
            -77 -206 7 292 255 211 44 82 153 54 -19 -64 -39 -19 -97 -37 hvcurveto
            hintmask 11010110
            -23 -44 34 -50 hhcurveto
            -35 -27 -14 -104 -88 19 -25 40 hvcurveto
            49 54 40 18 hhcurveto
            27 27 -83 -42 -77 -90 -20 -126 hvcurveto
            return
          </CharString>
          <CharString index="54">
            253 89 93 270 261 -82 86 -256 hvcurveto
            -225 hlineto
            -73 -25 -15 -34 hvcurveto
            return
          </CharString>
          <CharString index="55">
            -5 -113 39 -22 hhcurveto
            return
          </CharString>
          <CharString index="56">
            -9 rmoveto
            204 129 71 246 235 -140 64 -193 -194 -139 -64 -235 -246 129 -71 204 hvcurveto
            157 vmoveto
            -24 -21 11 141 140 21 10 24 25 20 -10 -140 -141 -20 -11 -25 hvcurveto
            endchar
          </CharString>
          <CharString index="57">
            hmoveto
            87 107 10 19 hvcurveto
            229 89 -229 vlineto
            -19 15 -10 69 88 107 10 19 vhcurveto
            636 vlineto
            13 -4 32 -90 -90 -95 -33 -33 vhcurveto
            -199 -89 220 vlineto
            13 -7 32 -88 -90 -94 -33 -33 vhcurveto
            -615 -25 callgsubr
            71 vhcurveto
            return
          </CharString>
          <CharString index="58">
            -16 15 -8 69 return
          </CharString>
          <CharString index="59">
            -30 callsubr
            hintmask 11001110
            -12 callgsubr
            hintmask 11100110
            -18 callgsubr
            hintmask 11001110
            -78 callgsubr
            hintmask 11100110
            -11 callgsubr
            hintmask 11010110
            -12 callsubr
            hintmask 11100110
            -36 callgsubr
          </CharString>
          <CharString index="60">
            321 rmoveto
            80 -241 hlineto
            -49 -1 -11 -43 -6 vhcurveto
            -18 -2 -7 -20 -36 vvcurveto
            -102 7 -9 124 127 82 77 168 vhcurveto
            374 vlineto
            11 -6 36 -83 vhcurveto
            -262 hlineto
            -3 7 -2 17 57 callgsubr
            return
          </CharString>
          <CharString index="61">
            0 -6 -20 -18 -26 -13 38 114 113 13 43 21 8 21 -6 -15 vhcurveto
            return
          </CharString>
          <CharString index="62">
            -8 -3 -4 -14 -20 vvcurveto
            -16 3 -14 9 -4 vhcurveto
            return
          </CharString>
          <CharString index="63">
            rmoveto
            hintmask 11110000
            0 -47 -23 -65 vvcurveto
            -82 83 -32 92 vhcurveto
            hintmask 11100010
            76 58 13 11 63 -23 38 -13 hvcurveto
            -12 -28 -9 -36 hhcurveto
            hintmask 11110000
            17 callsubr
          </CharString>
          <CharString index="64">
            370 81 rmoveto
            8 -57 rlineto
            -15 2 3 -9 62 hhcurveto
            88 96 10 callgsubr
            710 vlineto
            10 -6 36 -88 -89 -88 -36 -28 vhcurveto
            -125 vlineto
            12 -69 rlineto
            -8 hlineto
            0 -16 67 -130 -116 -75 -94 -190 vhcurveto
            return
          </CharString>
          <CharString index="65">
            21 65 callsubr
            return
          </CharString>
          <CharString index="66">
            22 17 18 41 11 11 -3 -4 11 vhcurveto
            -4 -20 -1 -21 -24 vvcurveto
            -81 hlineto
            -3 7 -2 18 7 vvcurveto
            endchar
          </CharString>
          <CharString index="67">
            205 vlineto
            0 5 -1 12 vhcurveto
            -17 155 rmoveto
            174 33 vlineto
            20 31 -15 -69 -74 -27 -16 -31 hvcurveto
            return
          </CharString>
          <CharString index="68">
            -9 -39 rlineto
            -8 hlineto
            0 -9 90 -130 -176 -17 -158 -80 -149 18 -124 164 115 39 46 67 callgsubr
            -40 68 rmoveto
            -22 -13 52 76 83 13 42 25 18 4 -21 0 hvcurveto
            return
          </CharString>
          <CharString index="69">
            15 23 81 -44 51 -26 hvcurveto
            return
          </CharString>
          <CharString index="70">
            67 4 9 hvcurveto
            334 vlineto
            return
          </CharString>
          <CharString index="71">
            23 callsubr
            3 -161 57 hvcurveto
            291 hmoveto
            -90 callsubr
          </CharString>
          <CharString index="72">
            50 18 115 40 94 -167 0 -70 -99 -260 -47 -321 -343 251 -18 81 hvcurveto
            return
          </CharString>
          <CharString index="73">
            55 9 175 31 31 -26 28 -57 -90 -78 -42 -49 -18 hvcurveto
            -7 hlineto
            -10 46 rlineto
            18 -4 -13 18 -53 hhcurveto
            -98 -82 -40 -23 hvcurveto
            12 callgsubr
            return
          </CharString>
          <CharString index="74">
            hmoveto
            -64 callgsubr
            641 vlineto
            10 -4 37 -87 -100 -183 -24 -27 -7 vhcurveto
            -10 -35 -7 -57 -42 vvcurveto
            -35 5 -36 12 vhcurveto
            102 -432 hlineto
            -49 callsubr
            vhcurveto
            endchar
          </CharString>
          <CharString index="75">
            vlineto
            -61 -18 -5 -21 -26 -16 -28 -54 -103 74 -8 100 vhcurveto
            endchar
          </CharString>
          <CharString index="76">
            -37 callsubr
            6 -3 19 return
          </CharString>
          <CharString index="77">
            rmoveto
            64 82 63 16 hvcurveto
            return
          </CharString>
          <CharString index="78">
            10 -155 171 -171 197 35 132 371 -20 return
          </CharString>
          <CharString index="79">
            -135 0 callgsubr
            553 vlineto
            19 -10 28 -89 -89 -91 -37 -28 vhcurveto
            -521 -32 callsubr
          </CharString>
          <CharString index="80">
            367 -9 rmoveto
            -81 -251 18 343 321 260 47 99 70 167 0 -94 return
          </CharString>
          <CharString index="81">
            -198 198 hstemhm
            88 270 return
          </CharString>
          <CharString index="82">
            hstemhm
            25 271 return
          </CharString>
          <CharString index="83">
            54 -224 hlineto
            -9 8 -4 37 vhcurveto
            return
          </CharString>
          <CharString index="84">
            vvcurveto
            14 -8 21 -44 -119 return
          </CharString>
          <CharString index="85">
            369 124 rmoveto
            -8 hlineto
            0 -39 -46 -115 -164 -18 124 149 80 17 158 176 130 9 -90 67 callgsubr
            9 39 rlineto
            return
          </CharString>
          <CharString index="86">
            -75 -20 -16 -74 -73 6 -180 95 96 4 180 73 81 -30 9 -76 hvcurveto
            return
          </CharString>
          <CharString index="87">
            rmoveto
            55 125 66 14 hvcurveto
            43 -15 47 -25 vhcurveto
            -23 -112 -39 -5 -58 callgsubr
          </CharString>
          <CharString index="88">
            -66 -174 -13 0 return
          </CharString>
          <CharString index="89">
            81 -81 160 hstemhm
            return
          </CharString>
          <CharString index="90">
            -18 -54 -40 -49 hhcurveto
            -26 callgsubr
            37 19 97 39 64 -54 19 -153 -82 -211 -44 -255 return
          </CharString>
          <CharString index="91">
            170 -41 callgsubr
            return
          </CharString>
          <CharString index="92">
            rmoveto
            55 125 66 14 43 -15 47 -25 hvcurveto
            -23 -112 -39 -5 hhcurveto
            return
          </CharString>
          <CharString index="93">
            vvcurveto
            -18 9 -26 32 116 36 18 26 7 vhcurveto
            return
          </CharString>
          <CharString index="94">
            -21 445 144 return
          </CharString>
          <CharString index="95">
            29 64 35 19 hhcurveto
            return
          </CharString>
          <CharString index="96">
            35 270 return
          </CharString>
          <CharString index="97">
            21 -21 600 -20 hstem
            return
          </CharString>
          <CharString index="98">
            -25 -15 -47 -43 return
          </CharString>
          <CharString index="99">
            -271 610 170 hstem
            50 280 vstem
            return
          </CharString>
          <CharString index="100">
            101 -101 135 hstemhm
            return
          </CharString>
          <CharString index="101">
            114 -114 139 -139 225 -64 216 -129 129 hstemhm
            40 294 -167 167 hintmask 00101100
            25 return
          </CharString>
          <CharString index="102">
            -106 -9 182 40 191 -34 219 21 -24 callgsubr
            25 return
          </CharString>
          <CharString index="103">
            0 3 3 -23 callsubr
            -27 -26 -28 -8 vhcurveto
            return
          </CharString>
          <CharString index="104">
            -310 -42 callsubr
            return
          </CharString>
          <CharString index="105">
            8 callgsubr
            hvcurveto
            return
          </CharString>
          <CharString index="106">
            hlineto
            -74 callgsubr
            return
          </CharString>
          <CharString index="107">
            vlineto
            -80 callsubr
            return
          </CharString>
          <CharString index="108">
            -28 -3 -19 -20 return
          </CharString>
          <CharString index="109">
            45 279 return
          </CharString>
          <CharString index="110">
            369 66 rmoveto
            -34 -18 -16 -56 vhcurveto
            -77 -67 27 -14 hhcurveto
            -25 -31 -114 -24 -29 74 -31 166 return
          </CharString>
          <CharString index="111">
            -643 -25 callgsubr
            71 87 108 10 19 vhcurveto
            return
          </CharString>
          <CharString index="112">
            50 11 23 24 return
          </CharString>
          <CharString index="113">
            66 -55 hvcurveto
            return
          </CharString>
          <CharString index="114">
            -35 3 20 -1 55 hhcurveto
            81 91 10 19 hvcurveto
            277 vlineto
            14 -6 41 -91 -84 -80 -34 -33 vhcurveto
            return
          </CharString>
          <CharString index="115">
            201 hstem
            40 213 vstem
            146 return
          </CharString>
          <CharString index="116">
            -21 343 -20 hstem
            return
          </CharString>
          <CharString index="117">
            rmoveto
            -100 callsubr
            return
          </CharString>
          <CharString index="118">
            -31 22 -67 22 136 28 121 122 59 -14 42 -93 -93 -13 -41 -56 vhcurveto
            endchar
          </CharString>
          <CharString index="119">
            27 15 55 47 72 -14 16 -13 hvcurveto
            -133 hlineto
            return
          </CharString>
          <CharString index="120">
            -41 callgsubr
            68 270 return
          </CharString>
          <CharString index="121">
            220 66 callgsubr
            return
          </CharString>
          <CharString index="122">
            6 19 4 22 hvcurveto
            206 vlineto
            0 -4 21 -18 -25 -13 -42 -83 -76 13 -52 22 vhcurveto
            return
          </CharString>
          <CharString index="123">
            -11 -10 -57 callgsubr
            21 170 -25 callsubr
            return
          </CharString>
          <CharString index="124">
            -18 -11 5 11 hvcurveto
            hintmask 11101000
            -69 callsubr
            endchar
          </CharString>
          <CharString index="125">
            8 -155 171 27 35 367 144 -9 -20 50 -24 callgsubr
            25 return
          </CharString>
          <CharString index="126">
            1 callsubr
            2 callgsubr
            vhcurveto
            endchar
          </CharString>
          <CharString index="127">
            -68 callgsubr
            50 -16 callsubr
            return
          </CharString>
          <CharString index="128">
            -28 callgsubr
            endchar
          </CharString>
          <CharString index="129">
            rmoveto
            82 18 9 92 39 -2 29 -20 -16 -51 8 42 hvcurveto
            183 return
          </CharString>
          <CharString index="130">
            rmoveto
            99 45 62 129 87 -1 65 -41 -59 -103 -3 -50 -129 return
          </CharString>
          <CharString index="131">
            267 -254 254 64 255 -255 268 hintmask 11110010
            return
          </CharString>
          <CharString index="132">
            240 33 109 hstem
            25 148 42 147 vstem
            175 return
          </CharString>
          <CharString index="133">
            126 90 20 77 42 -27 83 -27 hvcurveto
            -18 -54 -40 -49 hhcurveto
            return
          </CharString>
          <CharString index="134">
            -9 182 -182 222 157 219 -185 185 return
          </CharString>
          <CharString index="135">
            8 -155 171 -171 198 402 135 9 -20 return
          </CharString>
          <CharString index="136">
            -9 141 215 124 43 208 -189 189 hstemhm
            return
          </CharString>
          <CharString index="137">
            134 hmoveto
            -64 callgsubr
            return
          </CharString>
          <CharString index="138">
            213 64 213 return
          </CharString>
          <CharString index="139">
            rmoveto
            32 -35 0 -22 -22 -39 0 -30 -112 63 -18 79 return
          </CharString>
          <CharString index="140">
            -21 382 -20 hstem
            32 140 42 147 vstem
            193 return
          </CharString>
          <CharString index="141">
            177 157 -20 hstem
            188 177 vstem
            253 return
          </CharString>
          <CharString index="142">
            5 callsubr
            25 6 57 callsubr
            return
          </CharString>
          <CharString index="143">
            -8 rmoveto
            86 29 59 46 7 hvcurveto
            8 hlineto
            7 -59 rlineto
            return
          </CharString>
          <CharString index="144">
            2 callgsubr
            hvcurveto
            endchar
          </CharString>
          <CharString index="145">
            -117 292 -175 175 425 -20 hstemhm
            return
          </CharString>
          <CharString index="146">
            -9 145 164 205 119 149 hstemhm
            return
          </CharString>
          <CharString index="147">
            0 6 20 19 25 12 -37 -116 -116 -12 return
          </CharString>
          <CharString index="148">
            -155 190 120 166 45 234 hstem
            return
          </CharString>
          <CharString index="149">
            0 198 189 220 -183 183 hstemhm
            return
          </CharString>
          <CharString index="150">
            60 callsubr
            567 170 1 callgsubr
            return
          </CharString>
          <CharString index="151">
            280 64 callgsubr
            return
          </CharString>
          <CharString index="152">
            55 callgsubr
            hvcurveto
            return
          </CharString>
          <CharString index="153">
            -2 callgsubr
            endchar
          </CharString>
          <CharString index="154">
            6 callgsubr
            170 return
          </CharString>
          <CharString index="155">
            292 122 292 return
          </CharString>
          <CharString index="156">
            270 60 270 vstem
            return
          </CharString>
          <CharString index="157">
            21 -21 730 return
          </CharString>
          <CharString index="158">
            44 -18 62 hvcurveto
            return
          </CharString>
          <CharString index="159">
            -185 -151 162 549 159 hstemhm
            return
          </CharString>
          <CharString index="160">
            177 217 -20 hstem
            168 177 vstem
            return
          </CharString>
          <CharString index="161">
            vlineto
            -14 90 rlineto
            8 hlineto
            0 9 -90 114 return
          </CharString>
          <CharString index="162">
            247 32 116 80 hvcurveto
            return
          </CharString>
          <CharString index="163">
            -25 callsubr
            58 270 return
          </CharString>
          <CharString index="164">
            -36 -24 -17 callgsubr
            return
          </CharString>
          <CharString index="165">
            21 -21 345 255 hstem
            return
          </CharString>
          <CharString index="166">
            20 66 callsubr
            return
          </CharString>
          <CharString index="167">
            85 -8 181 return
          </CharString>
          <CharString index="168">
            21 -21 147 156 409 -20 hstem
            return
          </CharString>
          <CharString index="169">
            hlineto
            14 21 39 26 32 -7 5 -8 hvcurveto
            return
          </CharString>
          <CharString index="170">
            13 -21 476 252 -221 221 return
          </CharString>
          <CharString index="171">
            rmoveto
            -75 callsubr
            return
          </CharString>
          <CharString index="172">
            -21 580 -20 return
          </CharString>
          <CharString index="173">
            -24 callgsubr
            35 return
          </CharString>
          <CharString index="174">
            87 98 8 16 return
          </CharString>
        <CharString name=".notdef">
          -351 endchar
        </CharString>
        <CharString name="A">
          87 -9 callgsubr
          417 -107 callgsubr
          endchar
        </CharString>
        <CharString name="A.sc">
          106 -10 callsubr
          427 92 rmoveto
          7 -56 rlineto
          -24 3 77 -12 91 hhcurveto
          109 23 22 19 12 -92 264 -96 258 hvcurveto
          16 -7 -25 9 -73 hhcurveto
          -91 -136 -9 -16 -6 hvcurveto
          -97 -256 -94 -267 -12 vvcurveto
          -17 67 -23 119 78 39 9 35 3 vhcurveto
          5 48 rlineto
          75 162 rmoveto
          -54 hlineto
          17 148 rlineto
          22 hlineto
          endchar
        </CharString>
        <CharString name="AE">
          353 0 207 47 191 48 209 hstem
          434 -6 callgsubr
          941 hmoveto
          20 13 48 -13 callgsubr
          -19 callsubr
          hvcurveto
          64 vlineto
          0 142 -4 39 25 14 49 70 44 -6 28 -21 -45 -148 -6 0 vhcurveto
          67 vlineto
          0 159 -13 60 20 13 50 79 74 -11 6 -10 vhcurveto
          -416 hlineto
          -128 -94 -13 -17 -9 hvcurveto
          -78 -142 -204 -458 -24 vvcurveto
          -22 37 -26 119 78 42 11 40 12 vhcurveto
          17 56 rlineto
          114 -78 hlineto
          -19 14 -10 69 vhcurveto
          -83 297 rmoveto
          -59 hlineto
          59 169 rlineto
          endchar
        </CharString>
        <CharString name="Aacute">
          97 59 callgsubr
          274 280 vstem
          422 -107 callgsubr
          98 433 rmoveto
          -106 callsubr
        </CharString>
        <CharString name="Abreve">
          97 6 callgsubr
          -18 callsubr
          350 47 hintmask 10110000
          422 107 rmoveto
          7 -65 rlineto
          -29 3 77 -13 91 hhcurveto
          99 34 22 21 9 -189 628 0 hvcurveto
          19 -6 -26 11 -73 hhcurveto
          -91 -135 -11 -19 -7 hvcurveto
          hintmask 11010000
          -64 -208 -127 -396 -28 vvcurveto
          -27 67 -21 119 78 39 11 40 3 vhcurveto
          5 56 rlineto
          75 190 rmoveto
          -54 hlineto
          17 180 rlineto
          22 hlineto
          -36 391 rmoveto
          -92 callgsubr
          -64 callsubr
          19 callsubr
        </CharString>
        <CharString name="Acircumflex">
          97 50 callsubr
          170 hstem
          422 -107 callgsubr
          -12 423 rmoveto
          -48 -132 -67 -13 -43 15 -47 25 hvcurveto
          22 113 39 5 5 112 -39 23 hhcurveto
          47 callgsubr
        </CharString>
        <CharString name="Adieresis">
          97 50 callsubr
          180 hstem
          134 31 callsubr
          vstem
          422 -107 callgsubr
          -146 253 rmoveto
          -98 callgsubr
          277 hmoveto
          -98 callgsubr
          endchar
        </CharString>
        <CharString name="Agrave">
          97 59 callgsubr
          422 -107 callgsubr
          -142 433 rmoveto
          -99 callsubr
        </CharString>
        <CharString name="Amacron">
          97 50 callsubr
          160 hstem
          422 -107 callgsubr
          176 253 10 callsubr
          endchar
        </CharString>
        <CharString name="Aogonek">
          97 61 callgsubr
          60 -21 710 -20 hstemhm
          402 14 callgsubr
          hintmask 11110000
          422 -107 callgsubr
          63 -430 rmoveto
          -95 callgsubr
          hintmask 11101000
          -69 callsubr
          endchar
        </CharString>
        <CharString name="Aring">
          97 50 callsubr
          67 36 67 hstem
          259 88 54 88 vstem
          422 -107 callgsubr
          -13 253 rmoveto
          -92 callsubr
        </CharString>
        <CharString name="Atilde">
          97 6 callgsubr
          -57 callsubr
          hintmask 11000000
          422 -107 callgsubr
          91 263 -30 callsubr
          hintmask 10010000
          -12 callgsubr
          hintmask 11000000
          -18 callgsubr
          hintmask 10010000
          -78 callgsubr
          hintmask 11000000
          -11 callgsubr
          hintmask 10100000
          -12 callsubr
          hintmask 11000000
          -36 callgsubr
        </CharString>
        <CharString name="B">
          54 0 149 571 -20 hstemhm
          40 279 76 255 -255 280 hintmask 11101000
          343 hmoveto
          192 140 29 176 129 -61 29 -48 10 hvcurveto
          hintmask 11110000
          32 5 52 40 116 vvcurveto
          162 -138 24 -183 -160 -129 -14 -34 vhcurveto
          -643 -25 callgsubr
          70 vhcurveto
          195 436 rmoveto
          135 32 vlineto
          20 24 -18 -49 -52 -19 -16 -32 hvcurveto
          -25 -287 rmoveto
          135 32 vlineto
          20 24 -18 -49 -51 -19 -17 -32 hvcurveto
          endchar
        </CharString>
        <CharString name="B.sc">
          73 0 144 463 -20 hstemhm
          50 279 76 255 -255 279 hintmask 11101000
          353 hmoveto
          192 139 5 166 110 -60 29 -48 9 hvcurveto
          hintmask 11110000
          32 3 52 27 98 vvcurveto
          139 -138 21 -183 -160 -129 -13 -28 vhcurveto
          -542 0 callsubr
          195 364 rmoveto
          99 32 vlineto
          20 24 -7 -42 -45 -19 -5 -32 hvcurveto
          -25 -220 rmoveto
          99 32 vlineto
          20 24 -7 -43 -44 -19 -5 -32 hvcurveto
          endchar
        </CharString>
        <CharString name="C">
          5 25 callgsubr
          hstemhm
          30 283 hintmask 01101000
          362 -20 callgsubr
          hintmask 10011000
          -46 -32 55 94 106 41 47 43 hvcurveto
          42 95 -32 24 hhcurveto
          hintmask 01101000
          -35 callsubr
          endchar
        </CharString>
        <CharString name="C.sc">
          0 -9 191 -191 225 168 223 -196 196 hstemhm
          40 283 hintmask 01101000
          366 -9 rmoveto
          128 120 14 71 27 -17 113 -47 hvcurveto
          -26 -85 -34 -44 hhcurveto
          hintmask 10011000
          -45 -27 35 77 88 36 29 42 hvcurveto
          40 85 -27 24 hhcurveto
          hintmask 01101000
          49 17 112 34 71 -74 6 -147 -97 -258 -22 -288 -301 247 -5 79 hvcurveto
          endchar
        </CharString>
        <CharString name="Cacute">
          56 callgsubr
          249 -20 40 66 callsubr
          233 -233 283 230 83 hintmask 11110110
          -27 callsubr
          -40 -18 -115 -50 hvcurveto
          -54 callgsubr
          111 919 rmoveto
          hintmask 11111010
          -75 -135 -46 -44 hvcurveto
          hintmask 11110110
          -43 25 -37 25 56 174 15 23 81 -44 51 -26 vhcurveto
          endchar
        </CharString>
        <CharString name="Ccaron">
          10 25 callgsubr
          59 callsubr
          283 hintmask 01101100
          hintmask 10011100
          367 -20 callgsubr
          -46 -32 55 94 106 41 47 43 hvcurveto
          42 95 -32 24 hhcurveto
          -35 callsubr
          26 749 -15 callsubr
          hintmask 01101100
          -58 callgsubr
        </CharString>
        <CharString name="Ccedilla">
          10 -175 166 -75 75 24 186 41 229 32 217 hstemhm
          35 283 181 130 hintmask 10111110
          367 -20 callgsubr
          -46 -32 55 94 106 41 47 43 hvcurveto
          hintmask 01111110
          42 95 -32 24 hhcurveto
          -35 callsubr
          -33 -166 rmoveto
          hintmask 10111110
          -83 callgsubr
          21 21 -2 -8 -31 callgsubr
          hvcurveto
          endchar
        </CharString>
        <CharString name="Ccircumflex">
          56 callgsubr
          0 269 -237 217 59 callsubr
          180 -180 283 257 56 hintmask 11011011
          -27 callsubr
          hvcurveto
          -40 -18 -115 -50 vhcurveto
          -54 callgsubr
          28 919 rmoveto
          hintmask 10100101
          -48 -132 -67 -13 -43 15 -47 25 hvcurveto
          22 113 39 5 5 112 -39 23 hhcurveto
          -44 callgsubr
          hvcurveto
          hintmask 11011101
          -68 callsubr
          vhcurveto
          endchar
        </CharString>
        <CharString name="Cdotaccent">
          56 callgsubr
          32 217 59 callsubr
          203 -203 283 200 113 hintmask 11110110
          -27 callsubr
          hvcurveto
          -40 -18 -115 -50 vhcurveto
          -54 callgsubr
          11 919 rmoveto
          hintmask 11111010
          -93 callgsubr
        </CharString>
        <CharString name="D">
          80 0 149 412 149 hstem
          40 279 99 283 vstem
          359 -47 callgsubr
          endchar
        </CharString>
        <CharString name="D.sc">
          101 0 146 309 145 hstem
          50 279 100 283 vstem
          370 hmoveto
          253 89 85 223 216 -82 76 -256 hvcurveto
          -226 hlineto
          -73 18 callgsubr
          vhcurveto
          196 148 rmoveto
          304 vlineto
          0 4 3 29 42 25 -15 -147 -136 -24 -11 -37 vhcurveto
          endchar
        </CharString>
        <CharString name="Dcaron">
          90 0 149 412 149 30 170 hstem
          2 callsubr
          99 283 vstem
          364 -47 callgsubr
          -3 591 rmoveto
          -102 callsubr
        </CharString>
        <CharString name="Dcroat">
          -88 callgsubr
        </CharString>
        <CharString name="E">
          -41 0 212 47 191 48 212 hstem
          40 -6 callgsubr
          547 -106 callgsubr
          endchar
        </CharString>
        <CharString name="E.sc">
          -17 0 185 32 163 34 186 hstem
          50 -6 callgsubr
          566 hmoveto
          20 13 50 66 63 -11 6 -10 -66 -183 -10 0 hvcurveto
          46 vlineto
          0 151 -4 39 25 14 42 60 37 -6 24 -21 -45 -157 -5 0 vhcurveto
          50 vlineto
          0 168 -11 60 20 13 51 67 63 -11 5 -10 vhcurveto
          -412 hlineto
          -82 18 callgsubr
          vhcurveto
          endchar
        </CharString>
        <CharString name="Eacute">
          -52 callgsubr
          30 170 1 callgsubr
          -117 280 hintmask 11111000
          552 -106 callgsubr
          289 910 rmoveto
          hintmask 11110100
          -106 callsubr
        </CharString>
        <CharString name="Ebreve">
          -52 callgsubr
          30 -18 callsubr
          45 137 -137 279 -24 47 119 110 hintmask 1110110110000000
          45 callsubr
          hintmask 1110101010000000
          -19 callsubr
          hvcurveto
          64 vlineto
          0 142 -4 39 vhcurveto
          hintmask 1111010110000000
          25 14 49 70 hvcurveto
          hintmask 1111001010000000
          44 -6 28 -21 vhcurveto
          hintmask 1110110110000000
          -45 -148 -6 0 hvcurveto
          67 vlineto
          0 159 -13 60 20 13 53 -67 callsubr
          -83 38 callgsubr
          -633 vlineto
          hintmask 1110101010000000
          -19 14 -10 69 vhcurveto
          172 868 rmoveto
          -92 callgsubr
          -64 callsubr
          19 callsubr
        </CharString>
        <CharString name="Ecaron">
          -52 callgsubr
          30 170 hstem
          2 callsubr
          177 75 vstem
          552 -106 callgsubr
          193 740 rmoveto
          -102 callsubr
        </CharString>
        <CharString name="Ecircumflex">
          -52 callgsubr
          20 170 hstem
          45 -6 callgsubr
          552 -106 callgsubr
          179 900 rmoveto
          -48 -132 -67 -13 -43 15 -47 25 hvcurveto
          22 113 39 5 5 112 -39 23 hhcurveto
          47 callgsubr
        </CharString>
        <CharString name="Edieresis">
          -52 callgsubr
          20 180 1 callgsubr
          -257 31 callsubr
          -213 241 hintmask 11111001
          552 -106 callgsubr
          45 730 rmoveto
          hintmask 11110110
          -98 callgsubr
          277 hmoveto
          -98 callgsubr
          endchar
        </CharString>
        <CharString name="Edotaccent">
          -52 callgsubr
          30 170 1 callgsubr
          -142 280 hintmask 11111000
          552 -106 callgsubr
          194 910 rmoveto
          hintmask 11110100
          -93 callgsubr
        </CharString>
        <CharString name="Egrave">
          -52 callgsubr
          30 170 hstem
          2 callsubr
          93 159 vstem
          552 -106 callgsubr
          79 910 rmoveto
          -99 callsubr
        </CharString>
        <CharString name="Emacron">
          -52 callgsubr
          20 160 hstem
          45 -6 callgsubr
          552 -106 callgsubr
          363 730 10 callsubr
          endchar
        </CharString>
        <CharString name="Eng">
          93 -155 193 -17 -21 710 -20 hstemhm
          45 259 116 279 hintmask 10111000
          513 -155 0 callgsubr
          565 vlineto
          12 -4 43 -88 -99 -88 -34 -33 vhcurveto
          -166 -4 vlineto
          -96 188 rlineto
          43 -22 -23 2 -42 hhcurveto
          -99 -89 -34 -33 hvcurveto
          -614 vlineto
          hintmask 01111000
          -19 14 -10 70 86 89 10 19 vhcurveto
          236 5 vlineto
          111 -163 rlineto
          hintmask 10111000
          -59 -1 -17 -5 -21 hhcurveto
          -26 -16 -28 -54 -103 74 -8 100 hvcurveto
          endchar
        </CharString>
        <CharString name="Eogonek">
          -36 61 callgsubr
          39 212 47 191 48 212 1 callgsubr
          -39 14 callgsubr
          -206 300 hintmask 11110001
          45 callsubr
          hintmask 11111000
          -19 callsubr
          hvcurveto
          64 vlineto
          0 142 -4 39 25 14 49 70 44 -6 28 -21 -45 -148 -6 0 vhcurveto
          67 vlineto
          0 159 -13 60 20 13 53 -67 callsubr
          -83 38 callgsubr
          -633 -25 callgsubr
          69 vhcurveto
          204 47 rmoveto
          hintmask 11110100
          -95 callgsubr
          hintmask 11110010
          -69 callsubr
          endchar
        </CharString>
        <CharString name="Eth">
          -88 callgsubr
        </CharString>
        <CharString name="Euro">
          -26 -9 157 -157 178 61 101 39 102 59 179 66 callgsubr
          hstemhm
          hintmask 01111000
          418 -9 rmoveto
          131 46 13 64 33 -3 68 -48 hvcurveto
          -26 -51 -21 -45 hhcurveto
          -21 -11 35 47 -6 hvcurveto
          76 hlineto
          14 21 39 25 34 -7 3 -8 hvcurveto
          -101 39 101 62 callsubr
          hintmask 10110100
          -118 hlineto
          48 5 11 33 25 42 45 -22 24 hhcurveto
          50 8 65 40 74 -77 0 -70 -147 -163 -6 -232 -40 hvcurveto
          -28 62 callgsubr
          41 -39 -39 hlineto
          hintmask 01111000
          -15 -22 -32 -28 -28 7 -13 8 hvcurveto
          71 hlineto
          -226 41 159 -13 122 hhcurveto
          endchar
        </CharString>
        <CharString name="F">
          -65 21 -21 223 206 52 230 hstem
          40 -6 callgsubr
          123 hmoveto
          65 131 6 23 hvcurveto
          200 vlineto
          0 127 -6 39 25 13 70 69 44 -5 23 -21 -45 -133 -6 0 vhcurveto
          68 vlineto
          0 144 -10 59 21 13 60 79 74 -11 17 -10 vhcurveto
          -371 hlineto
          -99 38 callgsubr
          -634 -25 callgsubr
          69 vhcurveto
          endchar
        </CharString>
        <CharString name="F.sc">
          -41 21 -21 198 172 37 193 hstem
          50 -6 callgsubr
          329 202 rmoveto
          0 136 -4 39 25 13 56 59 38 -5 19 -21 -45 -142 -5 0 vhcurveto
          50 vlineto
          0 153 -8 59 21 13 49 67 63 -11 14 -10 vhcurveto
          -379 hlineto
          -100 18 callgsubr
          65 131 5 19 vhcurveto
          endchar
        </CharString>
        <CharString name="G">
          23 63 callsubr
          hstemhm
          30 283 70 261 hintmask 10111000
          257 36 callsubr
          hintmask 11011000
          7 callsubr
          -33 callgsubr
          endchar
        </CharString>
        <CharString name="G.sc">
          40 13 -21 29 -21 383 224 -197 197 hstemhm
          40 283 69 264 hintmask 10011100
          656 253 rmoveto
          hintmask 10101100
          12 -6 35 -91 -84 -83 -29 -28 vhcurveto
          -60 vlineto
          -35 4 -34 19 91 vvcurveto
          107 50 6 35 vhcurveto
          53 71 -27 25 hhcurveto
          49 17 110 36 69 -55 9 -153 hvcurveto
          hintmask 01101100
          -152 -223 -9 -313 -256 124 -37 102 86 29 50 40 7 hvcurveto
          8 hlineto
          7 -51 rlineto
          -30 4 19 -1 54 hhcurveto
          81 95 10 callgsubr
          endchar
        </CharString>
        <CharString name="Gbreve">
          28 63 callsubr
          20 -18 callsubr
          35 283 -59 118 11 261 -225 119 hintmask 1100101010000000
          262 36 callsubr
          7 callsubr
          hintmask 1101001100000000
          -33 callgsubr
          115 876 32 callsubr
          vhcurveto
          hintmask 1011010100000000
          78 64 21 109 28 -37 2 -23 hvcurveto
          hintmask 1101010100000000
          -23 -36 -4 -28 1 callsubr
          37 callsubr
        </CharString>
        <CharString name="Gcircumflex">
          26 callgsubr
          179 -179 283 70 261 -75 55 -73 callsubr
          -46 -7 -29 -59 -86 hhcurveto
          132 918 rmoveto
          hintmask 10111001
          -48 -132 -67 -13 -43 15 -47 25 hvcurveto
          22 113 39 5 5 112 -39 23 hhcurveto
          47 callgsubr
        </CharString>
        <CharString name="Gdotaccent">
          26 callgsubr
          227 -227 283 70 261 -107 87 -73 callsubr
          hintmask 10111001
          -46 -7 -29 -59 -86 hhcurveto
          140 918 rmoveto
          -93 callgsubr
        </CharString>
        <CharString name="H">
          76 21 -21 258 187 265 60 callgsubr
          89 -6 callgsubr
          125 -50 callsubr
          endchar
        </CharString>
        <CharString name="H.sc">
          96 21 -21 208 185 207 -20 hstem
          50 279 88 44 callsubr
          184 88 -184 -56 callgsubr
          87 109 -40 callgsubr
          530 vlineto
          10 -4 36 -90 -89 -97 -36 -28 vhcurveto
          -143 -88 161 vlineto
          10 -5 36 -88 -89 -97 -36 -28 vhcurveto
          5 callgsubr
        </CharString>
        <CharString name="Hcircumflex">
          86 21 -21 258 187 295 170 hstem
          2 callsubr
          89 -6 callgsubr
          130 -50 callsubr
          238 910 rmoveto
          -48 -132 -67 -13 -43 15 -47 25 hvcurveto
          22 113 39 5 5 112 -39 23 hhcurveto
          47 callgsubr
        </CharString>
        <CharString name="I">
          -292 21 -21 711 60 callgsubr
          vstem
          124 hmoveto
          -96 callgsubr
          endchar
        </CharString>
        <CharString name="I.sc">
          -272 -10 callsubr
          50 279 64 callgsubr
          530 vlineto
          50 callgsubr
          -36 -28 vhcurveto
          5 callgsubr
        </CharString>
        <CharString name="IJ">
          138 -135 193 -37 -21 710 -20 21 -20 1 callgsubr
          116 279 hintmask 01011100
          129 hmoveto
          -96 callgsubr
          hintmask 10101100
          404 -28 callsubr
        </CharString>
        <CharString name="Iacute">
          -282 47 callsubr
          1 callgsubr
          -249 280 hintmask 11100000
          129 hmoveto
          -96 callgsubr
          156 910 rmoveto
          hintmask 11010000
          -106 callsubr
        </CharString>
        <CharString name="Ibreve">
          -282 6 callgsubr
          -18 callsubr
          42 118 47 119 hintmask 10111000
          129 hmoveto
          -96 callgsubr
          31 868 rmoveto
          -92 callgsubr
          -64 callsubr
          1 callsubr
          vhcurveto
          hintmask 11011000
          37 callsubr
        </CharString>
        <CharString name="Icircumflex">
          -282 50 callsubr
          170 hstem
          45 -6 callgsubr
          129 hmoveto
          -96 callgsubr
          60 900 rmoveto
          -48 -132 -67 -13 -43 15 -47 25 hvcurveto
          22 113 39 5 5 112 -39 23 hhcurveto
          47 callgsubr
        </CharString>
        <CharString name="Idieresis">
          -282 50 callsubr
          180 hstemhm
          -55 213 -113 113 64 102 -102 213 hintmask 11011000
          129 hmoveto
          -96 callgsubr
          -78 730 -2 callsubr
          hintmask 11100100
          -58 -48 -12 -76 -75 44 -17 62 hvcurveto
          277 hmoveto
          -98 callgsubr
          endchar
        </CharString>
        <CharString name="Igrave">
          -282 47 callsubr
          hstemhm
          15 280 -250 279 hintmask 11100000
          129 hmoveto
          -64 callgsubr
          640 vlineto
          10 -5 37 -86 -100 -88 -37 -28 vhcurveto
          -622 vlineto
          hintmask 11010000
          -80 callsubr
          -44 910 rmoveto
          -99 callsubr
        </CharString>
        <CharString name="Imacron">
          -188 50 callsubr
          160 hstem
          90 -6 callgsubr
          417 730 10 callsubr
          162 -730 rmoveto
          -96 callgsubr
          endchar
        </CharString>
        <CharString name="Iogonek">
          -282 61 callgsubr
          60 -21 711 -20 hstemhm
          30 168 -153 191 -191 279 -279 294 hintmask 11100100
          129 hmoveto
          -96 callgsubr
          -52 47 -44 callsubr
        </CharString>
        <CharString name="Itilde">
          -282 50 callsubr
          -57 callsubr
          45 279 hintmask 11001000
          129 hmoveto
          -96 callgsubr
          156 730 -30 callsubr
          hintmask 10011000
          -12 callgsubr
          hintmask 11001000
          -18 callgsubr
          hintmask 10011000
          -78 callgsubr
          hintmask 11001000
          -11 callgsubr
          hintmask 10101000
          -12 callsubr
          hintmask 11001000
          -36 callgsubr
        </CharString>
        <CharString name="J">
          -241 -135 193 652 -20 hstem
          91 -6 callgsubr
          184 -28 callsubr
        </CharString>
        <CharString name="J.sc">
          -221 -135 193 542 -20 hstem
          101 -6 callgsubr
          194 -135 0 callgsubr
          444 vlineto
          19 -10 27 -89 -89 -91 -36 -28 vhcurveto
          -412 -32 callsubr
        </CharString>
        <CharString name="Jcircumflex">
          -231 -135 193 632 170 hstem
          96 -6 callgsubr
          239 860 rmoveto
          -48 -132 -67 -13 -43 15 -47 25 hvcurveto
          22 113 39 5 5 112 -39 23 hhcurveto
          65 callgsubr
          -50 -995 0 callgsubr
          503 vlineto
          19 -10 28 -89 -89 -91 -37 -28 vhcurveto
          -471 -32 callsubr
        </CharString>
        <CharString name="K">
          58 13 -21 728 60 callgsubr
          vstem
          123 2 rmoveto
          87 109 10 19 hvcurveto
          130 vlineto
          31 37 rlineto
          0 79 -206 39 48 178 77 65 49 -174 178 0 vhcurveto
          0 163 187 44 vvcurveto
          92 -197 36 -46 -38 -68 -214 -16 -7 vhcurveto
          -8 165 hlineto
          12 -5 43 -87 -100 -87 -32 -34 vhcurveto
          -613 -25 callgsubr
          69 vhcurveto
          endchar
        </CharString>
        <CharString name="K.sc">
          79 13 -21 29 -21 609 -20 hstemhm
          50 279 hintmask 01110000
          30 callsubr
          105 vlineto
          32 31 rlineto
          hintmask 10110000
          0 82 -168 40 48 179 66 55 42 -176 145 0 vhcurveto
          0 150 162 38 vvcurveto
          78 -198 31 -45 -30 -66 -183 -14 -7 vhcurveto
          -9 142 hlineto
          50 callgsubr
          -27 -28 vhcurveto
          -521 vlineto
          hintmask 01110000
          -80 callsubr
          endchar
        </CharString>
        <CharString name="L">
          -107 0 229 482 60 callgsubr
          vstem
          124 -93 callsubr
          endchar
        </CharString>
        <CharString name="L.sc">
          -87 0 229 371 -20 hstem
          50 -6 callgsubr
          501 hmoveto
          21 12 78 84 47 -11 20 -10 -62 -122 -8 0 hvcurveto
          333 vlineto
          50 callgsubr
          -36 -28 vhcurveto
          5 callgsubr
        </CharString>
        <CharString name="Lacute">
          -102 0 229 511 170 1 callgsubr
          -192 280 hintmask 11100000
          129 -93 callsubr
          213 910 rmoveto
          hintmask 11010000
          -106 callsubr
        </CharString>
        <CharString name="Lcaron">
          -51 0 229 481 -20 21 -20 1 callgsubr
          32 204 hintmask 10111000
          129 -93 callsubr
          287 367 rmoveto
          99 45 62 129 hvcurveto
          hintmask 11011000
          87 -1 65 -41 -59 -103 -3 -50 -129 2 -161 58 vhcurveto
          endchar
        </CharString>
        <CharString name="Ldot">
          -44 0 229 79 201 202 -20 1 callgsubr
          40 165 -165 213 hintmask 11111000
          129 -93 callsubr
          341 308 rmoveto
          hintmask 11110100
          -71 callgsubr
          endchar
        </CharString>
        <CharString name="Ldotaccent">
          -102 0 229 97 170 215 -20 1 callgsubr
          30 175 -175 280 hintmask 11111000
          129 -93 callsubr
          365 496 rmoveto
          -75 -65 -11 -74 -73 65 -12 75 hvcurveto
          hintmask 11110100
          76 64 12 73 81 -64 4 -76 hvcurveto
          endchar
        </CharString>
        <CharString name="Lslash">
          -40 0 229 84 177 221 -20 hstem
          107 -6 callgsubr
          191 hmoveto
          367 hlineto
          21 12 78 84 47 -11 20 -10 -62 -122 -8 0 hvcurveto
          92 66 vlineto
          -75 callsubr
          -101 174 hlineto
          10 -5 37 -86 -100 -88 -37 -28 vhcurveto
          -156 -32 vlineto
          -74 callgsubr
          70 -289 hlineto
          -80 callsubr
          endchar
        </CharString>
        <CharString name="M">
          229 -9 callgsubr
          40 279 243 278 vstem
          124 hmoveto
          87 108 0 29 75 -18 206 0 hvcurveto
          9 hlineto
          54 -261 rlineto
          -20 4 2 -9 52 hhcurveto
          69 23 9 20 4 hvcurveto
          52 261 rlineto
          9 hlineto
          0 -17 -206 -75 vvcurveto
          -28 60 -1 32 87 99 10 19 vhcurveto
          642 vlineto
          22 -43 17 -87 -105 -87 -32 -36 -9 vhcurveto
          -64 -252 rlineto
          -9 hlineto
          -68 264 rlineto
          19 -5 -31 37 -87 hhcurveto
          -101 -104 -17 -33 hvcurveto
          -631 -25 callgsubr
          70 vhcurveto
          endchar
        </CharString>
        <CharString name="M.sc">
          249 -10 callsubr
          50 279 234 287 vstem
          134 hmoveto
          87 108 0 24 65 -20 175 0 hvcurveto
          9 hlineto
          56 -223 rlineto
          -17 4 2 -7 52 hhcurveto
          69 14 7 17 4 hvcurveto
          51 223 rlineto
          9 hlineto
          0 -16 -175 -65 vvcurveto
          -23 60 -1 32 -56 callsubr
          vhcurveto
          543 vlineto
          19 -43 14 -87 -105 -88 -27 -30 -8 vhcurveto
          -59 -211 rlineto
          -12 hlineto
          -70 221 rlineto
          16 -5 -31 31 -87 hhcurveto
          -101 -104 -14 -28 hvcurveto
          -534 0 callsubr
          endchar
        </CharString>
        <CharString name="N">
          83 -9 callgsubr
          40 279 96 -6 callgsubr
          124 -100 callgsubr
          endchar
        </CharString>
        <CharString name="N.sc">
          103 -10 callsubr
          50 279 95 44 callsubr
          179 5 vlineto
          92 -187 rlineto
          -11 6 19 -5 57 hhcurveto
          87 109 10 callgsubr
          530 vlineto
          10 -4 36 -88 -99 -89 -36 -28 vhcurveto
          -166 -4 vlineto
          -95 192 rlineto
          37 -18 -27 1 -42 hhcurveto
          -100 -88 -36 -28 hvcurveto
          5 callgsubr
        </CharString>
        <CharString name="Nacute">
          93 47 callsubr
          1 callgsubr
          -72 280 -112 279 hintmask 11101000
          129 -100 callgsubr
          333 910 rmoveto
          hintmask 11010000
          -106 callsubr
        </CharString>
        <CharString name="Ncaron">
          93 59 callgsubr
          2 callsubr
          96 -6 callgsubr
          129 -100 callgsubr
          243 740 rmoveto
          -102 callsubr
        </CharString>
        <CharString name="Ntilde">
          83 50 callsubr
          -57 callsubr
          40 279 96 279 hintmask 11001100
          124 -100 callgsubr
          332 730 -48 callgsubr
        </CharString>
        <CharString name="O">
          105 -30 callgsubr
          hstem
          25 48 callsubr
          vstem
          378 -105 callsubr
          endchar
        </CharString>
        <CharString name="O.sc">
          117 -9 154 310 154 hstem
          40 283 122 283 vstem
          384 -9 rmoveto
          205 139 72 244 255 -150 47 -194 -195 -149 -67 -235 -264 139 -52 205 hvcurveto
          154 vmoveto
          -38 -23 4 152 150 23 4 38 38 23 -4 -150 -152 -23 -4 -38 hvcurveto
          endchar
        </CharString>
        <CharString name="OE">
          373 0 148 -148 207 -195 -21 263 191 48 207 -147 147 9 -20 hstemhm
          40 292 122 279 hintmask 0011100110000000
          393 -9 rmoveto
          38 31 4 8 24 hvcurveto
          hintmask 1001100110000000
          -2 12 16 -1 23 hhcurveto
          424 hlineto
          20 13 48 78 hvcurveto
          hintmask 0101100110000000
          74 -11 7 -10 -19 callsubr
          vhcurveto
          64 vlineto
          0 142 -4 39 25 14 49 70 44 -6 28 -21 -45 -148 -6 0 vhcurveto
          67 vlineto
          0 159 -13 60 20 13 48 -67 callsubr
          -31 -22 -3 -3 -17 hvcurveto
          hintmask 0011001110000000
          10 -25 -32 5 -42 hhcurveto
          -195 -158 -101 -248 -309 148 -60 205 hvcurveto
          hintmask 1001010110000000
          157 vmoveto
          -38 -23 27 177 176 23 25 38 38 23 -25 -176 -177 -23 -27 -38 hvcurveto
          endchar
        </CharString>
        <CharString name="Oacute">
          -30 callgsubr
          30 66 callsubr
          292 -39 39 122 119 -119 292 hintmask 11110010
          388 -105 callsubr
          110 772 rmoveto
          hintmask 11101100
          -106 callsubr
        </CharString>
        <CharString name="Obreve">
          -30 callgsubr
          20 -18 callsubr
          35 212 -212 292 38 47 37 292 -210 210 hintmask 1101101010000000
          388 -9 rmoveto
          204 149 105 269 298 -160 57 -193 -195 -158 -97 -258 -309 148 -65 205 hvcurveto
          157 vmoveto
          -38 -23 32 177 hvcurveto
          hintmask 1110011100000000
          -90 callgsubr
          vhcurveto
          -23 720 rmoveto
          -92 callgsubr
          -64 callsubr
          19 callsubr
        </CharString>
        <CharString name="Ocircumflex">
          -30 callgsubr
          59 callsubr
          292 -119 119 122 119 -119 292 hintmask 11110010
          388 -105 callsubr
          762 vmoveto
          hintmask 11101100
          -48 -132 -67 -13 -43 15 -47 25 hvcurveto
          22 113 39 5 5 112 -39 23 hhcurveto
          47 callgsubr
        </CharString>
        <CharString name="Odieresis">
          -30 callgsubr
          10 180 hstemhm
          35 292 -184 31 callsubr
          -184 292 hintmask 11110010
          388 -105 callsubr
          -139 582 rmoveto
          hintmask 11101100
          -98 callgsubr
          277 hmoveto
          -98 callgsubr
          endchar
        </CharString>
        <CharString name="Ograve">
          -30 callgsubr
          59 callsubr
          163 -163 48 callsubr
          -263 263 hintmask 11110010
          388 -9 rmoveto
          204 149 105 269 298 -160 57 -193 -195 -158 -97 -258 -309 148 -65 205 hvcurveto
          157 vmoveto
          hintmask 11101100
          16 callgsubr
          -120 762 rmoveto
          -99 callsubr
        </CharString>
        <CharString name="Ohungarumlaut">
          -30 callgsubr
          59 callsubr
          292 -225 260 51 260 -224 292 hintmask 11110010
          388 -105 callsubr
          -96 762 rmoveto
          hintmask 11101100
          -96 callsubr
        </CharString>
        <CharString name="Omacron">
          -30 callgsubr
          20 160 hstemhm
          35 292 -185 185 122 186 -186 292 hintmask 11110010
          388 -105 callsubr
          186 592 rmoveto
          hintmask 11101100
          -100 callsubr
          endchar
        </CharString>
        <CharString name="Oslash">
          -54 202 66 callgsubr
          414 158 -158 212 hstemhm
          35 292 -138 138 122 292 hintmask 01011010
          389 -9 rmoveto
          203 1 149 65 308 vvcurveto
          198 -71 91 -104 39 vhcurveto
          15 18 9 17 11 vvcurveto
          14 -8 21 -44 vhcurveto
          hintmask 10101010
          -119 -29 -26 -28 -6 hvcurveto
          -193 -1 -156 -58 -296 vvcurveto
          -199 61 -98 98 -44 vhcurveto
          hintmask 10100110
          -3 -13 -2 -12 -9 vvcurveto
          -18 9 -26 32 vhcurveto
          hintmask 01101010
          116 43 23 22 hvcurveto
          -1 157 rmoveto
          16 callgsubr
          endchar
        </CharString>
        <CharString name="Otilde">
          -30 callgsubr
          20 -57 callsubr
          35 48 callsubr
          hintmask 11100110
          388 -105 callsubr
          99 592 -48 callsubr
        </CharString>
        <CharString name="P">
          56 21 -21 180 167 373 60 callgsubr
          82 281 vstem
          318 181 rmoveto
          0 13 -1 11 191 149 11 270 248 -140 11 -214 -200 -88 -14 -34 vhcurveto
          -643 -25 callgsubr
          70 86 108 10 19 vhcurveto
          1 318 rmoveto
          205 31 vlineto
          20 31 -6 -92 -99 -26 -8 -32 hvcurveto
          endchar
        </CharString>
        <CharString name="P.sc">
          85 0 275 -144 144 334 -20 hstemhm
          50 279 84 283 hintmask 01111000
          329 132 rmoveto
          0 13 -1 11 192 151 15 230 212 -142 21 -215 -201 -88 -12 -28 vhcurveto
          -545 vlineto
          hintmask 10111000
          -55 callgsubr
          -56 callsubr
          vhcurveto
          251 vmoveto
          190 32 vlineto
          20 32 -8 -87 -93 -27 -2 -32 hvcurveto
          endchar
        </CharString>
        <CharString name="Q">
          95 -135 283 -127 -21 562 158 hstemhm
          20 48 callsubr
          hintmask 01111000
          286 hmoveto
          43 -92 rlineto
          hintmask 10111000
          -36 16 21 -7 36 hhcurveto
          59 139 11 62 12 -45 74 0 hvcurveto
          106 42 65 116 191 vvcurveto
          292 -159 55 -194 -195 -158 -95 -252 vhcurveto
          hintmask 01111000
          -269 114 -104 152 vhcurveto
          hintmask 10111000
          87 148 rmoveto
          -38 -23 45 173 171 23 25 38 38 23 -25 -171 -173 -23 -45 -38 hvcurveto
          endchar
        </CharString>
        <CharString name="Q.sc">
          117 -125 271 310 154 hstemhm
          40 283 121 167 -167 284 hintmask 11101000
          728 307 rmoveto
          264 -151 39 -194 -195 -148 -59 -244 -235 107 -59 158 -18 vhcurveto
          34 -82 rlineto
          -33 13 25 -5 35 hhcurveto
          hintmask 11110000
          59 140 9 55 10 -37 67 0 hvcurveto
          hintmask 11101000
          105 37 49 96 158 vvcurveto
          -345 -161 rmoveto
          -38 -22 3 152 150 22 5 38 39 22 -5 -150 -152 -22 -3 -39 hvcurveto
          endchar
        </CharString>
        <CharString name="R">
          65 21 -21 720 -20 hstem
          40 280 84 284 vstem
          337 -80 callgsubr
          4 callsubr
          -40 callsubr
          endchar
        </CharString>
        <CharString name="R.sc">
          82 21 -21 610 -20 hstem
          50 279 84 283 vstem
          410 23 rmoveto
          -19 8 25 -4 74 hhcurveto
          74 122 2 39 43 -115 131 0 hvcurveto
          59 32 39 55 106 vvcurveto
          195 -150 7 -215 -201 -80 -12 -28 vhcurveto
          -546 vlineto
          -55 callgsubr
          -56 callsubr
          vhcurveto
          157 vlineto
          0 5 -1 11 vhcurveto
          -16 152 rmoveto
          134 32 vlineto
          20 32 -6 -59 -63 -27 -6 -32 hvcurveto
          endchar
        </CharString>
        <CharString name="Racute">
          70 21 -21 720 -20 40 -24 callgsubr
          45 280 -85 280 -111 284 hintmask 11110100
          342 -80 callgsubr
          4 callsubr
          -40 callsubr
          99 522 rmoveto
          hintmask 11101000
          -106 callsubr
        </CharString>
        <CharString name="Rcaron">
          70 21 -21 388 174 0 158 20 -24 callgsubr
          45 280 84 284 -153 153 hintmask 11011010
          342 -80 callgsubr
          hintmask 10111100
          4 callsubr
          hintmask 11011100
          -40 callsubr
          9 352 rmoveto
          55 125 66 14 43 -15 47 -25 hvcurveto
          -23 -112 -39 -5 -52 callsubr
          -9 callsubr
          hvcurveto
          hintmask 10111100
          -34 callgsubr
          vhcurveto
          endchar
        </CharString>
        <CharString name="S">
          3 -9 201 285 243 -205 205 hstemhm
          48 285 12 284 hintmask 10111000
          342 -9 rmoveto
          244 43 132 80 hvcurveto
          hintmask 11011000
          -59 callgsubr
          hvcurveto
          -223 296 16 1 -64 vhcurveto
          -29 callgsubr
          -29 104 -49 213 hvcurveto
          endchar
        </CharString>
        <CharString name="S.sc">
          17 -9 179 223 216 -183 183 hstemhm
          62 283 5 283 hintmask 10111000
          339 -9 rmoveto
          243 51 113 84 hvcurveto
          hintmask 11011000
          221 -287 -70 -1 56 vhcurveto
          24 25 7 42 vhcurveto
          72 57 -33 14 hhcurveto
          32 46 98 57 25 -89 36 -212 -257 -13 -132 -74 hvcurveto
          -198 287 61 1 -65 vhcurveto
          -20 -14 -11 -43 vhcurveto
          -83 -79 50 -23 hhcurveto
          -31 -42 -105 -57 -26 93 -41 211 hvcurveto
          endchar
        </CharString>
        <CharString name="Sacute">
          -32 callgsubr
          -132 132 -73 callgsubr
          85 919 rmoveto
          -106 callsubr
        </CharString>
        <CharString name="Scaron">
          -32 callgsubr
          hintmask 10111100
          347 -9 rmoveto
          hintmask 11011100
          244 43 132 80 hvcurveto
          -59 callgsubr
          -223 296 16 1 -64 hvcurveto
          -29 callgsubr
          -29 104 -49 213 hvcurveto
          -5 749 -20 callsubr
        </CharString>
        <CharString name="Scedilla">
          13 -175 166 -75 75 0 255 -231 177 323 205 hstemhm
          53 224 -224 285 12 284 hintmask 10011101
          hintmask 01011101
          347 -9 rmoveto
          244 43 132 80 hvcurveto
          -59 callgsubr
          hvcurveto
          hintmask 10011011
          -223 296 16 1 -64 vhcurveto
          -29 callgsubr
          -29 104 -49 213 hvcurveto
          -52 -166 rmoveto
          -83 callgsubr
          21 21 -2 -8 hvcurveto
          hintmask 00101101
          -31 callgsubr
          vhcurveto
          endchar
        </CharString>
        <CharString name="Scircumflex">
          -32 callgsubr
          -119 119 -73 callgsubr
          -12 919 rmoveto
          -48 -132 -67 -13 -43 15 -47 25 hvcurveto
          22 113 39 5 5 112 -39 23 hhcurveto
          47 callgsubr
        </CharString>
        <CharString name="T">
          0 21 -21 454 256 -43 callgsubr
          endchar
        </CharString>
        <CharString name="T.sc">
          10 58 callsubr
          191 -6 callgsubr
          595 345 rmoveto
          25 16 67 105 58 -14 25 -12 hvcurveto
          -541 hlineto
          -26 -18 -63 -99 -49 12 -44 15 hvcurveto
          139 -321 hlineto
          -16 14 -8 68 88 109 -40 callgsubr
          321 vlineto
          endchar
        </CharString>
        <CharString name="Tcaron">
          0 21 -21 454 256 30 170 -43 callgsubr
          57 740 rmoveto
          -102 callsubr
        </CharString>
        <CharString name="Thorn">
          67 0 257 66 callgsubr
          476 -20 hstemhm
          45 280 82 281 hintmask 10111000
          324 696 rmoveto
          10 -5 27 -88 -89 -97 -27 -28 vhcurveto
          -654 vlineto
          -15 12 -9 91 99 77 11 13 vhcurveto
          77 vlineto
          hintmask 01111000
          0 13 -1 11 191 149 6 270 248 -140 6 -224 vhcurveto
          1 -373 rmoveto
          215 31 vlineto
          20 31 -1 -102 -109 -26 -3 -32 hvcurveto
          endchar
        </CharString>
        <CharString name="U">
          75 -8 181 538 60 callgsubr
          88 -6 callgsubr
          364 -107 callsubr
          endchar
        </CharString>
        <CharString name="U.sc">
          104 -8 154 454 -20 hstem
          50 279 96 280 vstem
          705 554 rmoveto
          10 -4 36 -88 -99 -89 -27 -28 vhcurveto
          -239 vlineto
          -127 -9 -33 -38 -38 -11 32 127 vhcurveto
          249 vlineto
          50 callgsubr
          -27 -28 vhcurveto
          -308 vlineto
          -168 123 -77 205 205 122 78 167 vhcurveto
          endchar
        </CharString>
        <CharString name="Uacute">
          43 callsubr
          -46 280 -146 279 hintmask 11101000
          369 -107 callsubr
          119 918 rmoveto
          hintmask 11010000
          -106 callsubr
        </CharString>
        <CharString name="Ubreve">
          60 callsubr
          567 -18 callsubr
          45 181 -181 279 20 47 21 279 -181 181 hintmask 10110101
          369 -8 rmoveto
          206 116 92 195 hvcurveto
          378 vlineto
          11 -4 43 -88 -99 -88 -32 -33 vhcurveto
          -286 vlineto
          -149 -4 -38 -39 vhcurveto
          hintmask 11010110
          -38 -7 38 148 hvcurveto
          298 vlineto
          11 -5 43 -86 -101 -87 -32 -33 vhcurveto
          -367 vlineto
          -196 120 -91 204 vhcurveto
          -25 876 rmoveto
          -92 callgsubr
          -64 callsubr
          1 callsubr
          vhcurveto
          hintmask 10101110
          37 callsubr
        </CharString>
        <CharString name="Ucircumflex">
          60 callsubr
          557 170 hstem
          2 callsubr
          88 -6 callgsubr
          369 -107 callsubr
          -1 908 rmoveto
          -48 -132 -67 -13 -43 15 -47 25 hvcurveto
          22 113 39 5 5 112 -39 23 hhcurveto
          47 callgsubr
        </CharString>
        <CharString name="Udieresis">
          60 callsubr
          557 180 1 callgsubr
          -201 31 callsubr
          -201 279 hintmask 11100100
          369 -107 callsubr
          -140 738 rmoveto
          hintmask 11011000
          -98 callgsubr
          277 hmoveto
          -98 callgsubr
          endchar
        </CharString>
        <CharString name="Ugrave">
          60 callsubr
          567 170 hstem
          2 callsubr
          88 -6 callgsubr
          369 -107 callsubr
          -111 918 rmoveto
          -99 callsubr
        </CharString>
        <CharString name="Uhungarumlaut">
          43 callsubr
          -242 260 51 260 -241 279 hintmask 11100100
          369 -107 callsubr
          -97 918 rmoveto
          hintmask 11011000
          -96 callsubr
        </CharString>
        <CharString name="Umacron">
          60 callsubr
          557 160 hstem
          2 callsubr
          88 -6 callgsubr
          369 -107 callsubr
          187 738 10 callsubr
          endchar
        </CharString>
        <CharString name="Uogonek">
          85 61 callgsubr
          31 181 538 -20 1 callgsubr
          -65 14 callgsubr
          -53 279 hintmask 11110010
          369 -107 callsubr
          -63 55 rmoveto
          hintmask 11101000
          -95 callgsubr
          hintmask 11100100
          -69 callsubr
          endchar
        </CharString>
        <CharString name="Uring">
          60 callsubr
          567 67 36 67 1 callgsubr
          -71 88 54 88 -71 279 hintmask 11110010
          369 -107 callsubr
          -2 748 rmoveto
          hintmask 11101100
          -92 callsubr
        </CharString>
        <CharString name="Utilde">
          60 callsubr
          557 -57 callsubr
          45 279 88 279 hintmask 11001100
          369 -107 callsubr
          96 738 -48 callgsubr
        </CharString>
        <CharString name="V">
          76 -9 callgsubr
          233 31 rmoveto
          -20 7 8 -11 73 hhcurveto
          92 73 11 20 7 hvcurveto
          209 603 15 10 15 vvcurveto
          19 -18 32 -94 -78 -120 -19 -41 -4 vhcurveto
          -31 -355 rlineto
          -14 hlineto
          -35 364 rlineto
          19 -2 -22 32 -91 hhcurveto
          -109 -89 -48 -23 -15 118 -292 105 -301 hvcurveto
          endchar
        </CharString>
        <CharString name="V.sc">
          97 -10 callsubr
          243 26 rmoveto
          -17 7 8 -9 73 hhcurveto
          93 73 9 17 7 hvcurveto
          209 514 15 5 11 vvcurveto
          17 -18 27 -94 -78 -120 -16 -35 -4 vhcurveto
          -34 -297 rlineto
          -9 hlineto
          -38 304 rlineto
          17 -2 -22 27 -91 hhcurveto
          -109 -89 -40 -20 -12 118 -245 105 -257 hvcurveto
          endchar
        </CharString>
        <CharString name="W">
          365 -9 callgsubr
          315 -84 callgsubr
          endchar
        </CharString>
        <CharString name="W.sc">
          384 -10 callsubr
          579 26 rmoveto
          -17 7 8 -9 59 hhcurveto
          88 53 9 17 7 hvcurveto
          199 512 15 1 11 vvcurveto
          17 -17 33 -89 -75 -125 -21 -36 -4 vhcurveto
          -28 -292 rlineto
          -9 hlineto
          -36 308 rlineto
          18 -6 -6 23 -74 hhcurveto
          -75 -55 -21 -36 -4 hvcurveto
          -30 -292 rlineto
          -10 hlineto
          -36 299 rlineto
          17 -1 -12 33 -87 hhcurveto
          -103 -113 -46 -20 -12 122 -239 99 -257 hvcurveto
          -17 7 8 -9 69 hhcurveto
          88 44 9 17 6 hvcurveto
          54 149 rlineto
          8 hlineto
          endchar
        </CharString>
        <CharString name="Wcircumflex">
          375 59 callgsubr
          320 -84 callgsubr
          203 910 rmoveto
          -48 -132 -67 -13 -43 15 -47 25 hvcurveto
          22 113 39 5 5 112 -39 23 hhcurveto
          47 callgsubr
        </CharString>
        <CharString name="X">
          70 -9 callgsubr
          209 hmoveto
          33 72 -1 49 11 hvcurveto
          32 139 rlineto
          6 hlineto
          39 -139 rlineto
          -48 13 127 0 50 hhcurveto
          79 40 13 36 14 -162 263 0 hvcurveto
          0 145 288 39 vvcurveto
          47 -56 10 -76 -80 -79 -36 -14 -2 vhcurveto
          -28 -175 rlineto
          -5 hlineto
          -39 177 rlineto
          19 -4 -47 29 -63 hhcurveto
          -73 -115 -23 -31 -14 150 -282 0 hvcurveto
          0 -167 -280 -31 vvcurveto
          -36 120 -13 79 vhcurveto
          endchar
        </CharString>
        <CharString name="X.sc">
          94 -10 callsubr
          221 hmoveto
          33 64 1 39 19 hvcurveto
          34 119 rlineto
          4 hlineto
          40 -119 rlineto
          -40 13 128 0 49 hhcurveto
          81 39 12 29 13 -163 224 0 hvcurveto
          0 147 241 33 vvcurveto
          40 -57 8 -76 -81 -79 -38 -11 -2 vhcurveto
          -29 -144 rlineto
          -4 hlineto
          -40 153 rlineto
          16 -6 -45 24 -63 hhcurveto
          -74 -116 -27 -27 -11 151 -228 0 hvcurveto
          0 -168 -239 -27 vvcurveto
          -29 121 -12 80 vhcurveto
          endchar
        </CharString>
        <CharString name="Y">
          47 -9 callgsubr
          208 -6 callgsubr
          -99 callgsubr
          endchar
        </CharString>
        <CharString name="Y.sc">
          69 -10 callsubr
          219 -6 callgsubr
          308 hmoveto
          79 111 10 callgsubr
          150 vlineto
          0 202 362 17 vvcurveto
          16 -20 31 -84 -81 -124 -19 -35 -4 vhcurveto
          -21 -187 rlineto
          -7 hlineto
          -29 194 rlineto
          16 -2 -11 31 -88 hhcurveto
          -105 -104 -35 -21 -30 199 -340 0 hvcurveto
          -150 vlineto
          -17 15 -7 74 vhcurveto
          endchar
        </CharString>
        <CharString name="Yacute">
          47 47 callsubr
          hstemhm
          208 279 -228 280 hintmask 11100000
          -99 callgsubr
          171 910 rmoveto
          hintmask 11010000
          -106 callsubr
        </CharString>
        <CharString name="Ycircumflex">
          47 47 callsubr
          hstemhm
          208 279 -121 173 hintmask 11100000
          -99 callgsubr
          61 910 rmoveto
          -48 -132 -67 -13 -43 15 -47 25 hvcurveto
          22 113 39 5 5 112 -39 23 hhcurveto
          hintmask 11010000
          47 callgsubr
        </CharString>
        <CharString name="Ydieresis">
          47 50 callsubr
          180 hstemhm
          105 213 -110 279 -105 213 hintmask 11010000
          -99 callgsubr
          -87 730 rmoveto
          hintmask 11101000
          -98 callgsubr
          277 hmoveto
          -98 callgsubr
          endchar
        </CharString>
        <CharString name="Z">
          -24 31 callgsubr
          hstem
          582 -97 callsubr
          endchar
        </CharString>
        <CharString name="Z.sc">
          7 0 238 125 237 hstem
          598 408 rmoveto
          87 -10 105 -41 vhcurveto
          -462 hlineto
          -28 -18 -81 -63 -53 12 -40 15 hvcurveto
          203 hlineto
          0 -234 -152 -27 vvcurveto
          -59 11 -125 43 vhcurveto
          488 hlineto
          29 17 84 62 57 -11 35 -15 hvcurveto
          -220 hlineto
          0 221 136 34 vvcurveto
          endchar
        </CharString>
        <CharString name="Zacute">
          -14 31 callgsubr
          30 170 hstem
          188 280 vstem
          587 -97 callsubr
          -189 403 rmoveto
          -106 callsubr
        </CharString>
        <CharString name="Zcaron">
          -14 31 callgsubr
          20 170 hstem
          587 -97 callsubr
          -273 223 rmoveto
          -102 callsubr
        </CharString>
        <CharString name="Zdotaccent">
          -14 31 callgsubr
          30 170 hstem
          178 280 vstem
          587 -97 callsubr
          -269 403 rmoveto
          -93 callgsubr
        </CharString>
        <CharString name="a">
          13 0 -77 callsubr
          hstemhm
          30 271 58 270 hintmask 10110110
          370 -103 callsubr
          hintmask 01101110
          22 57 53 -103 callgsubr
          hintmask 10110110
          -89 callsubr
          endchar
        </CharString>
        <CharString name="aacute">
          8 0 -77 callsubr
          21 170 -25 callsubr
          -67 280 -155 270 hintmask 1011011010000000
          365 -103 callsubr
          hintmask 0110111010000000
          22 57 53 -103 callgsubr
          hintmask 1011011010000000
          -89 callsubr
          85 506 rmoveto
          hintmask 1011010100000000
          -106 callsubr
        </CharString>
        <CharString name="abreve">
          34 callgsubr
          -18 callsubr
          25 160 -160 271 -235 124 118 47 4 270 -155 155 hintmask 1001011001010000
          365 81 rmoveto
          8 -57 rlineto
          -16 3 0 -8 69 hhcurveto
          88 91 10 callgsubr
          301 vlineto
          91 -1 173 -283 -151 -128 -66 -24 vhcurveto
          hintmask 1010100101100000
          -55 58 -79 22 vhcurveto
          22 57 53 -103 callgsubr
          -89 callsubr
          -51 464 rmoveto
          -92 callgsubr
          -64 callsubr
          vhcurveto
          hintmask 0101010011100000
          19 callsubr
        </CharString>
        <CharString name="acircumflex">
          8 0 -77 callsubr
          21 170 56 callsubr
          hintmask 10110111
          365 -103 callsubr
          hintmask 01101111
          22 57 53 -103 callgsubr
          hintmask 10110111
          -89 callsubr
          5 506 rmoveto
          -48 -132 -67 -13 -43 15 -47 25 hvcurveto
          22 113 39 5 5 112 -39 23 hhcurveto
          47 callgsubr
        </CharString>
        <CharString name="acute">
          -8 callsubr
          260 780 rmoveto
          -106 callsubr
        </CharString>
        <CharString name="adieresis">
          8 0 -77 callsubr
          10 180 hstemhm
          25 274 -238 238 -213 31 callsubr
          -213 261 hintmask 1011010100100000
          365 -103 callsubr
          hintmask 0110111001000000
          22 57 53 -103 callgsubr
          hintmask 1011010011000000
          -89 callsubr
          -162 325 rmoveto
          -98 callgsubr
          277 hmoveto
          -98 callgsubr
          endchar
        </CharString>
        <CharString name="ae">
          319 54 callgsubr
          16 80 -32 79 17 219 -171 171 -144 144 -25 callsubr
          58 271 66 254 hintmask 1001010011100000
          627 21 callgsubr
          -71 -63 -8 -21 -52 hvcurveto
          19 -40 -54 10 -72 hhcurveto
          -201 -78 -46 -24 -55 58 -94 22 hvcurveto
          hintmask 1000101011100000
          22 57 48 78 hhcurveto
          55 0 -65 0 hvcurveto
          -33 hlineto
          -92 -203 -20 -164 -167 141 -11 54 43 133 3 65 43 hvcurveto
          -40 49 72 -28 116 hhcurveto
          99 150 21 57 hvcurveto
          hintmask 0011010011100000
          34 -55 107 -25 vhcurveto
          hintmask 0101000111100000
          -17 -78 -49 -61 hhcurveto
          -60 -2 48 17 hvcurveto
          -2 146 rmoveto
          5 callsubr
          26 5 57 callsubr
          -271 -149 rmoveto
          hintmask 1000110011100000
          -89 callsubr
          endchar
        </CharString>
        <CharString name="agrave">
          34 callgsubr
          170 56 callsubr
          hintmask 10101110
          365 -103 callsubr
          22 57 53 -103 callgsubr
          hintmask 01011110
          -89 callsubr
          -115 506 rmoveto
          -99 callsubr
        </CharString>
        <CharString name="amacron">
          8 0 -77 callsubr
          21 160 56 callsubr
          hintmask 10110111
          365 -103 callsubr
          hintmask 01101111
          22 57 53 -103 callgsubr
          hintmask 10110111
          -89 callsubr
          170 336 10 callsubr
          endchar
        </CharString>
        <CharString name="ampersand">
          -9 202 73 172 39 234 -202 202 hstemhm
          39 275 110 260 hintmask 11011100
          447 438 rmoveto
          -37 2 -96 -6 45 vvcurveto
          11 6 19 43 vhcurveto
          65 63 -32 21 hhcurveto
          36 25 143 19 32 -75 40 -171 hvcurveto
          hintmask 11101100
          -241 -47 -98 -89 -111 80 -40 0 hvcurveto
          0 -89 -45 -123 vvcurveto
          -154 123 -60 173 125 161 11 92 63 vhcurveto
          9 13 0 69 62 vvcurveto
          29 50 vlineto
          14 13 47 48 58 -18 18 -27 hvcurveto
          -292 -227 rmoveto
          -4 -1 -4 -3 vvcurveto
          -4 -17 -18 -3 -20 hhcurveto
          -36 -18 9 21 39 66 3 44 1 hvcurveto
          endchar
        </CharString>
        <CharString name="aogonek">
          8 61 callgsubr
          39 -77 callsubr
          -25 callsubr
          62 14 callgsubr
          -206 266 hintmask 1101101001000000
          365 -103 callsubr
          hintmask 1011011100000000
          22 57 53 -103 callgsubr
          hintmask 1101101100000000
          -89 callsubr
          51 -227 rmoveto
          -95 callgsubr
          hintmask 1101101010000000
          -69 callsubr
          endchar
        </CharString>
        <CharString name="aring">
          8 0 136 -124 -21 283 79 17 220 -172 172 20 67 36 67 -25 callsubr
          -69 88 39 270 -255 88 hintmask 1011011101000000
          365 81 rmoveto
          8 -57 rlineto
          -16 3 0 -8 69 hhcurveto
          88 91 10 callgsubr
          301 vlineto
          91 -1 174 -283 -201 -78 -47 -24 -55 58 -94 22 vhcurveto
          hintmask 0110111101000000
          22 57 48 -103 callgsubr
          hintmask 1011011101000000
          -89 callsubr
          -13 336 rmoveto
          hintmask 1011011010100000
          -92 callsubr
        </CharString>
        <CharString name="asciicircum">
          -211 610 170 hstem
          220 780 rmoveto
          -48 -132 -67 -13 -43 15 -47 25 hvcurveto
          22 113 39 5 5 112 -39 23 hhcurveto
          47 callgsubr
        </CharString>
        <CharString name="asciitilde">
          -67 callgsubr
        </CharString>
        <CharString name="asterisk">
          -93 293 -21 508 -20 hstem
          201 156 vstem
          15 549 rmoveto
          -52 159 -18 1 0 -94 -91 -37 vvcurveto
          -35 65 -43 32 46 53 138 9 3 vhcurveto
          -7 3 59 -142 41 hhcurveto
          31 67 48 33 hvcurveto
          48 -106 79 1 0 169 16 53 vvcurveto
          35 -19 71 -43 -43 -93 -63 -3 -5 vhcurveto
          3 9 14 88 23 vvcurveto
          63 -23 7 -59 -59 -15 -12 -58 -24 7 -96 0 vhcurveto
          0 -81 65 -48 -45 -19 -72 -34 vhcurveto
          endchar
        </CharString>
        <CharString name="at">
          135 -10 108 88 81 -81 207 10 127 -99 99 83 107 hstemhm
          40 109 65 157 -157 213 -22 157 80 104 hintmask 1101011101100000
          431 235 rmoveto
          hintmask 1101011010100000
          -46 81 -3 47 87 100 11 207 191 -106 125 -243 -173 -184 -32 -329 -329 181 -40 175 vhcurveto
          hintmask 1101011101100000
          23 8 17 20 28 -16 43 -15 -236 -11 128 137 151 31 99 215 211 36 -104 -145 -55 -6 -42 -42 hvcurveto
          hintmask 1010111010100000
          -32 110 hlineto
          52 -1 101 -164 -117 -45 -27 -14 -32 33 -54 13 vhcurveto
          13 33 28 46 hhcurveto
          31 0 -38 0 hvcurveto
          -19 hlineto
          -53 -118 -12 -95 -97 82 -7 51 25 42 6 47 13 hvcurveto
          -22 44 rmoveto
          -6 -6 -6 -10 -14 -4 19 19 20 13 22 21 vhcurveto
          endchar
        </CharString>
        <CharString name="atilde">
          8 0 -77 callsubr
          21 -57 callsubr
          25 271 58 270 hintmask 1011010011000000
          365 -103 callsubr
          hintmask 0110110011000000
          22 57 53 -103 callgsubr
          hintmask 1011010011000000
          -89 callsubr
          79 336 -30 callsubr
          hintmask 1011000111000000
          -12 callgsubr
          hintmask 1011010011000000
          -18 callgsubr
          hintmask 1011000111000000
          -78 callgsubr
          hintmask 1011010011000000
          -11 callgsubr
          hintmask 1011001011000000
          -12 callsubr
          hintmask 1011010011000000
          -36 callgsubr
        </CharString>
        <CharString name="b">
          17 -9 147 451 -20 181 -20 hstem
          -11 callsubr
          63 270 vstem
          295 -9 rmoveto
          263 80 76 277 130 -27 115 -143 -116 -49 -67 0 hvcurveto
          -8 hlineto
          11 69 rlineto
          113 vlineto
          10 0 36 -88 -89 -94 -36 -28 vhcurveto
          -634 vlineto
          -57 202 -4 58 vhcurveto
          10 147 rmoveto
          307 30 vlineto
          20 13 -39 -114 -115 -13 -39 -19 hvcurveto
          endchar
        </CharString>
        <CharString name="backslash">
          -283 21 -21 711 -20 hstem
          168 44 rmoveto
          -26 7 36 -18 36 hhcurveto
          112 9 26 18 7 0 6 -162 600 hvcurveto
          28 -8 -27 26 -39 hhcurveto
          -124 -8 -21 -14 -3 0 -3 168 -626 hvcurveto
          endchar
        </CharString>
        <CharString name="bar">
          -371 -124 -21 855 -20 hstem
          45 190 vstem
          235 669 rmoveto
          22 callgsubr
          -752 46 callsubr
        </CharString>
        <CharString name="braceleft">
          52 callsubr
          10 289 -230 230 hintmask 11010000
          421 671 rmoveto
          46 -8 2 -47 -77 -220 -13 -225 vhcurveto
          hintmask 11100000
          -215 -59 140 -120 vvcurveto
          hintmask 11010000
          -120 59 136 -215 vvcurveto
          -225 220 -13 77 47 8 23 25 25 -1 89 -58 -48 -15 35 98 108 -66 30 2 1 vhcurveto
          0 65 29 96 vvcurveto
          104 9 48 55 35 22 45 66 vhcurveto
          endchar
        </CharString>
        <CharString name="braceright">
          52 callsubr
          166 231 -231 290 hintmask 11100000
          45 671 rmoveto
          -66 22 -45 35 vhcurveto
          hintmask 11010000
          55 9 -48 -104 hvcurveto
          hintmask 11100000
          -96 65 -29 0 vhcurveto
          2 -1 -66 -30 -108 vvcurveto
          -98 -15 -35 -48 -58 -1 -89 -25 -25 8 -23 47 77 220 13 225 vhcurveto
          215 59 -136 120 120 -59 -140 215 vvcurveto
          225 -220 13 -77 -47 -8 -2 -46 vhcurveto
          endchar
        </CharString>
        <CharString name="bracketleft">
          52 callgsubr
          50 244 vstem
          134 -143 rmoveto
          253 hlineto
          21 12 48 44 47 -11 20 -10 -62 -43 -8 0 hvcurveto
          551 vlineto
          0 43 -8 62 10 11 20 47 44 -12 48 -21 vhcurveto
          -253 hlineto
          -70 -14 -8 -16 hvcurveto
          -805 0 callsubr
          endchar
        </CharString>
        <CharString name="bracketright">
          52 callgsubr
          176 244 vstem
          336 -143 rmoveto
          70 14 10 callgsubr
          805 vlineto
          16 -14 8 -70 vhcurveto
          -253 hlineto
          -21 -12 -48 -44 -47 11 -20 10 62 43 8 0 hvcurveto
          -551 vlineto
          0 -43 8 -62 -10 -11 -20 -47 -44 12 -48 21 vhcurveto
          253 hlineto
          endchar
        </CharString>
        <CharString name="breve">
          -287 610 -18 callsubr
          40 118 47 119 hintmask 01110000
          158 738 rmoveto
          hintmask 10110000
          -92 callgsubr
          -64 callsubr
          19 callsubr
        </CharString>
        <CharString name="brokenbar">
          -371 -123 -21 854 -20 hstem
          45 190 vstem
          235 669 rmoveto
          22 callgsubr
          -284 -2 callgsubr
          -165 vmoveto
          22 callgsubr
          -284 46 callsubr
        </CharString>
        <CharString name="bullet">
          -276 164 266 hstem
          45 285 vstem
          186 164 rmoveto
          85 59 35 101 106 -67 24 -77 -75 -66 -24 -106 -101 61 -35 80 hvcurveto
          endchar
        </CharString>
        <CharString name="c">
          -101 27 callsubr
          hstemhm
          25 265 hintmask 01101000
          308 -9 rmoveto
          26 callsubr
          hintmask 10011000
          -26 callgsubr
          hintmask 01101000
          37 19 97 39 64 -54 19 -153 -82 -211 -44 -255 -292 206 -7 77 hvcurveto
          endchar
        </CharString>
        <CharString name="cacute">
          -5 callsubr
          187 -187 265 202 33 -54 callsubr
          114 789 rmoveto
          hintmask 10111010
          -106 callsubr
        </CharString>
        <CharString name="caron">
          -211 610 170 hstem
          220 610 rmoveto
          -102 callsubr
        </CharString>
        <CharString name="ccaron">
          -106 27 callsubr
          21 -24 callgsubr
          25 265 hintmask 01101100
          hintmask 10011100
          308 -9 rmoveto
          126 90 20 77 42 -27 83 -27 hvcurveto
          -17 callsubr
          -292 206 -7 77 hvcurveto
          18 619 -15 callsubr
          hintmask 01101100
          -58 callgsubr
        </CharString>
        <CharString name="ccedilla">
          -106 -84 75 24 158 231 185 hstem
          25 265 132 102 vstem
          257 -175 rmoveto
          62 103 14 67 62 -57 6 -30 1 hvcurveto
          16 vlineto
          111 3 78 22 72 vvcurveto
          42 -27 83 -27 vhcurveto
          -17 callsubr
          -222 118 -57 91 -15 hvcurveto
          -50 vlineto
          -21 5 -10 11 vhcurveto
          6 6 1 17 hhcurveto
          21 21 -2 -8 -31 callgsubr
          hvcurveto
          endchar
        </CharString>
        <CharString name="ccircumflex">
          -5 callsubr
          122 -122 265 hintmask 10110100
          308 -9 rmoveto
          -77 -206 7 292 255 211 44 82 153 54 -19 -64 -39 -19 -97 -37 hvcurveto
          hintmask 11010100
          -23 -44 34 -50 hhcurveto
          -35 -27 -14 -104 -88 19 -25 40 hvcurveto
          49 54 40 18 hhcurveto
          27 27 -83 -42 -77 -90 -20 -126 hvcurveto
          19 789 rmoveto
          hintmask 10111000
          -48 -132 -67 -13 -43 15 -47 25 hvcurveto
          22 113 39 5 5 112 -39 23 hhcurveto
          47 callgsubr
        </CharString>
        <CharString name="cdotaccent">
          -5 callsubr
          148 -148 265 163 72 -54 callsubr
          5 789 rmoveto
          hintmask 10111010
          -93 callgsubr
        </CharString>
        <CharString name="cedilla">
          -383 -165 65 25 100 hstem
          40 188 vstem
          63 -165 rmoveto
          -83 callgsubr
          21 21 -2 -8 -31 callgsubr
          hvcurveto
          endchar
        </CharString>
        <CharString name="cent">
          -106 -97 270 197 216 -182 182 -182 273 hstemhm
          25 265 -80 190 hintmask 11000100
          400 -4 rmoveto
          75 9 49 26 57 vvcurveto
          42 -27 83 -27 vhcurveto
          hintmask 10101000
          -18 -54 -40 -49 hhcurveto
          hintmask 11000100
          -26 callgsubr
          hintmask 10010100
          37 19 97 39 51 -34 22 -91 7 hvcurveto
          50 vlineto
          10 -4 31 -58 vhcurveto
          hintmask 11001000
          -109 -19 -31 -28 hvcurveto
          -40 vlineto
          hintmask 11000100
          -88 -22 -97 -66 -200 vvcurveto
          -202 98 -66 87 -21 vhcurveto
          -54 46 callsubr
        </CharString>
        <CharString name="circumflex">
          -211 610 170 hstem
          220 780 rmoveto
          -48 -132 -67 -13 -43 15 -47 25 hvcurveto
          22 113 39 5 5 112 -39 23 hhcurveto
          47 callgsubr
        </CharString>
        <CharString name="colon">
          -358 -9 201 124 -8 callgsubr
          -325 vmoveto
          -71 callgsubr
          endchar
        </CharString>
        <CharString name="comma">
          -358 -153 114 230 -20 hstem
          40 213 vstem
          40 94 33 callgsubr
          11 callsubr
        </CharString>
        <CharString name="copyright">
          34 -9 80 -80 157 85 121 -105 92 100 148 -80 80 hstemhm
          25 84 -84 182 239 214 -85 85 hintmask 1010011001000000
          -55 callsubr
          hintmask 0101100110000000
          -3 77 rmoveto
          -32 -101 8 137 142 104 6 40 28 67 0 -37 -16 -7 -47 -20 hvcurveto
          hintmask 1010101010000000
          -10 -38 13 -17 hhcurveto
          -17 -16 -19 -42 -38 12 -22 19 hvcurveto
          hintmask 0101101010000000
          18 38 16 11 hhcurveto
          19 7 -48 -14 -33 -52 -6 -53 hvcurveto
          endchar
        </CharString>
        <CharString name="ct">
          303 -9 169 -169 222 181 186 190 -20 hstemhm
          25 265 269 270 hintmask 10111100
          818 -9 22 callsubr
          vlineto
          hintmask 01111100
          59 hlineto
          hintmask 10111100
          3 callgsubr
          -201 vlineto
          -122 -211 -35 -255 -292 206 -7 77 26 callsubr
          -40 -19 20 88 99 27 14 65 hvcurveto
          50 104 -1 23 hhcurveto
          -156 vlineto
          -215 106 -31 153 vhcurveto
          endchar
        </CharString>
        <CharString name="currency">
          70 -9 145 308 145 hstem
          39 256 122 257 vstem
          357 -9 rmoveto
          52 49 8 15 42 hvcurveto
          43 -42 11 -11 23 -17 35 35 rlinecurve
          76 76 7 33 -18 18 -35 35 rcurveline
          20 42 12 51 62 vvcurveto
          61 -11 49 -18 39 vhcurveto
          32 32 18 18 -7 33 -76 76 rlinecurve
          -35 35 -23 -17 -11 -11 -42 -42 rcurveline
          14 -43 -49 6 -52 hhcurveto
          -51 -48 -7 -14 -43 hvcurveto
          -44 45 -7 8 -25 18 -41 -41 rlinecurve
          -77 -77 8 -35 20 -20 20 -20 rcurveline
          -20 -40 -10 -50 -60 vvcurveto
          -62 11 -52 21 -43 vhcurveto
          -22 -22 -20 -20 -8 -35 77 -77 rlinecurve
          41 -41 24 19 8 7 44 44 rcurveline
          -15 42 48 -8 52 hhcurveto
          145 vmoveto
          -20 -42 9 145 142 42 12 20 19 41 -12 -142 -145 -41 -9 -19 hvcurveto
          endchar
        </CharString>
        <CharString name="d">
          13 -9 146 -116 -13 callsubr
          191 -20 -25 callsubr
          63 270 hintmask 01111100
          -43 callsubr
          hintmask 10111100
          -19 callgsubr
          -3 76 rmoveto
          -46 callsubr
          endchar
        </CharString>
        <CharString name="dagger">
          -138 -124 -21 461 53 callsubr
          233 -145 rmoveto
          44 68 16 25 hvcurveto
          420 97 vlineto
          -75 callsubr
          -132 190 hlineto
          14 -23 13 -48 -48 -58 -18 -27 vhcurveto
          -172 -93 vlineto
          -74 callgsubr
          131 -435 hlineto
          -13 7 -13 58 vhcurveto
          endchar
        </CharString>
        <CharString name="daggerdbl">
          -138 -124 -21 217 177 67 53 callsubr
          345 72 rmoveto
          93 hlineto
          27 38 58 48 48 -13 23 -14 hvcurveto
          -131 67 97 hlineto
          -75 callsubr
          -132 191 hlineto
          12 -7 14 -54 -44 -72 -9 -32 vhcurveto
          -176 -93 vlineto
          -74 callgsubr
          131 -67 -97 hlineto
          -25 -36 -68 -44 -58 13 -7 13 hvcurveto
          132 -191 hlineto
          -12 7 -14 64 44 62 12 29 vhcurveto
          endchar
        </CharString>
        <CharString name="dcaron">
          277 -9 146 -116 -21 437 152 191 -20 -25 callsubr
          63 270 55 204 hintmask 01111110
          -43 callsubr
          hintmask 10111110
          -19 callgsubr
          -3 76 rmoveto
          -46 callsubr
          385 13 rmoveto
          -90 callsubr
        </CharString>
        <CharString name="dcroat">
          -94 callsubr
        </CharString>
        <CharString name="degree">
          -276 464 89 67 90 hstem
          45 104 77 104 7 callgsubr
          1 89 rmoveto
          -22 -16 7 27 30 17 3 21 21 18 -3 -30 -27 -16 -7 -23 hvcurveto
          endchar
        </CharString>
        <CharString name="dieresis">
          -81 600 180 hstem
          40 31 callsubr
          vstem
          146 600 rmoveto
          -98 callgsubr
          277 hmoveto
          -98 callgsubr
          endchar
        </CharString>
        <CharString name="divide">
          -118 -10 162 38 177 40 162 hstem
          182 172 vstem
          268 -10 19 callgsubr
          184 200 -86 callgsubr
          221 217 19 callgsubr
          endchar
        </CharString>
        <CharString name="dollar">
          13 -70 272 303 275 hstemhm
          53 285 -103 210 -95 284 hintmask 11010000
          235 703 rmoveto
          -163 -28 -19 -112 -75 vvcurveto
          -223 296 36 1 -64 vhcurveto
          hintmask 11101000
          -29 callgsubr
          -24 67 -36 138 -13 hvcurveto
          -30 vlineto
          hintmask 11010000
          -10 4 -36 68 89 49 36 28 vhcurveto
          16 vlineto
          156 30 33 105 68 vvcurveto
          -1 241 -295 -41 56 vvcurveto
          hintmask 11101000
          28 22 8 43 vhcurveto
          72 59 -38 14 hhcurveto
          32 40 104 68 21 -53 31 -122 13 hvcurveto
          30 vlineto
          hintmask 11010000
          10 -4 36 -68 -89 -49 -36 -28 vhcurveto
          endchar
        </CharString>
        <CharString name="dotaccent">
          -8 callsubr
          190 780 rmoveto
          -93 callgsubr
        </CharString>
        <CharString name="dotaccentcmb">
          -8 callsubr
          190 780 rmoveto
          -93 callgsubr
        </CharString>
        <CharString name="dotlessi">
          -3 callsubr
          hstem
          35 271 vstem
          306 534 rmoveto
          10 -4 36 -87 -91 -89 -36 -28 vhcurveto
          -492 -16 callgsubr
          endchar
        </CharString>
        <CharString name="e">
          -11 -10 -57 callgsubr
          -25 callsubr
          66 253 hintmask 01111100
          -104 callsubr
          51 callgsubr
          hvcurveto
          hintmask 10111100
          -7 callgsubr
          -61 -1 48 17 hvcurveto
          -2 146 rmoveto
          35 callsubr
          endchar
        </CharString>
        <CharString name="eacute">
          16 callsubr
          -67 280 -147 253 hintmask 01111101
          -104 callsubr
          51 callgsubr
          hvcurveto
          hintmask 10111101
          -7 callgsubr
          -61 -1 48 17 hvcurveto
          -2 146 rmoveto
          35 callsubr
          143 474 rmoveto
          hintmask 10111010
          -106 callsubr
        </CharString>
        <CharString name="ebreve">
          4 callgsubr
          -18 callsubr
          25 182 -182 271 29 47 -10 253 -124 124 hintmask 1001011010100000
          -104 callsubr
          hvcurveto
          hintmask 1001100110100000
          51 callgsubr
          vhcurveto
          -7 callgsubr
          -61 -1 48 17 hvcurveto
          hintmask 0010010101000000
          -2 146 rmoveto
          5 callsubr
          25 6 -36 -24 vhcurveto
          hintmask 0101011010100000
          -17 callgsubr
          29 432 rmoveto
          hintmask 1001011001000000
          -92 callgsubr
          vhcurveto
          hintmask 0101011010100000
          -64 callsubr
          19 callsubr
        </CharString>
        <CharString name="ecaron">
          4 callgsubr
          -24 callgsubr
          25 127 -127 271 66 253 -103 103 hintmask 1001110010000000
          -104 callsubr
          hvcurveto
          hintmask 0010101100000000
          51 callgsubr
          vhcurveto
          -7 callgsubr
          -61 -1 48 17 hvcurveto
          -2 146 rmoveto
          hintmask 0101110100000000
          35 callsubr
          36 304 rmoveto
          hintmask 1001110100000000
          55 125 66 14 43 -15 47 -25 hvcurveto
          -23 -112 -39 -5 -52 callsubr
          hintmask 0101110100000000
          -39 callgsubr
        </CharString>
        <CharString name="ecircumflex">
          16 callsubr
          66 253 hintmask 01111110
          -104 callsubr
          51 callgsubr
          hvcurveto
          hintmask 10111110
          -7 callgsubr
          -61 -1 48 17 hvcurveto
          -2 146 rmoveto
          35 callsubr
          34 474 rmoveto
          -48 -132 -67 -13 -43 15 -47 25 hvcurveto
          22 113 39 5 5 112 -39 23 hhcurveto
          47 callgsubr
        </CharString>
        <CharString name="edieresis">
          -11 -10 -57 callgsubr
          11 180 hstemhm
          25 272 -213 31 callsubr
          -213 254 hintmask 0111110010000000
          -104 callsubr
          51 callgsubr
          hvcurveto
          hintmask 1011101100000000
          -7 callgsubr
          -61 -1 48 17 hvcurveto
          -2 146 rmoveto
          35 callsubr
          -106 294 rmoveto
          -98 callgsubr
          277 hmoveto
          -98 callgsubr
          endchar
        </CharString>
        <CharString name="edotaccent">
          16 callsubr
          -96 280 -118 253 hintmask 01111101
          -104 callsubr
          51 callgsubr
          hvcurveto
          hintmask 10111101
          -7 callgsubr
          -61 -1 48 17 hvcurveto
          -2 146 rmoveto
          35 callsubr
          44 474 rmoveto
          hintmask 10111010
          -93 callgsubr
        </CharString>
        <CharString name="egrave">
          4 callgsubr
          -24 callgsubr
          25 125 -125 271 66 253 -185 185 hintmask 1001110010000000
          298 226 rmoveto
          33 hlineto
          92 192 12 175 162 -157 14 -96 -199 -138 -63 -251 hvcurveto
          hintmask 0010101100000000
          -78 13 -207 308 99 151 22 57 51 callgsubr
          vhcurveto
          -7 callgsubr
          hintmask 0101110100000000
          -61 -1 48 17 hvcurveto
          -2 146 rmoveto
          5 callsubr
          25 6 -36 -24 vhcurveto
          hintmask 1001110100000000
          -17 callgsubr
          -76 474 rmoveto
          hintmask 0101110100000000
          -99 callsubr
        </CharString>
        <CharString name="eight">
          8 42 callgsubr
          30 24 callsubr
          330 -85 callgsubr
        </CharString>
        <CharString name="eight.den">
          -265 16 33 callsubr
          -5 -79 callgsubr
        </CharString>
        <CharString name="eight.num">
          -265 387 33 callsubr
          366 -79 callgsubr
        </CharString>
        <CharString name="eight.os">
          40 39 callsubr
          35 24 callgsubr
          345 -86 callsubr
        </CharString>
        <CharString name="eight.os.tab">
          29 39 callsubr
          30 24 callgsubr
          340 -86 callsubr
        </CharString>
        <CharString name="eight.tab">
          29 42 callgsubr
          40 24 callsubr
          340 -85 callgsubr
        </CharString>
        <CharString name="ellipsis">
          297 -9 201 hstem
          70 213 99 214 99 213 cntrmask 01110000
          176 -9 rmoveto
          -71 callgsubr
          312 hmoveto
          63 45 18 85 86 -48 12 -60 -58 -48 -12 -86 -85 51 callsubr
          313 hmoveto
          63 44 18 85 86 -48 12 -59 -59 -47 -12 -86 -85 51 callsubr
          endchar
        </CharString>
        <CharString name="emacron">
          -11 -10 -57 callgsubr
          21 160 -25 callsubr
          66 253 hintmask 01111110
          -104 callsubr
          51 callgsubr
          hvcurveto
          hintmask 10111110
          -7 callgsubr
          -61 -1 48 17 hvcurveto
          -2 146 rmoveto
          35 callsubr
          219 304 10 callsubr
          endchar
        </CharString>
        <CharString name="emdash">
          303 190 177 hstem
          890 41 callgsubr
          -830 -1 callsubr
          endchar
        </CharString>
        <CharString name="endash">
          22 190 177 hstem
          582 41 callgsubr
          -522 -1 callsubr
          endchar
        </CharString>
        <CharString name="eng">
          22 -134 -21 176 -13 callsubr
          49 callgsubr
          63 270 hintmask 11101100
          451 -155 rmoveto
          131 56 60 126 hvcurveto
          301 vlineto
          169 -30 88 -142 -124 -40 -90 0 vhcurveto
          -7 hlineto
          -9 44 rlineto
          hintmask 11011100
          18 -4 -10 19 -55 hhcurveto
          -92 -90 -36 -27 hvcurveto
          12 callgsubr
          394 vlineto
          hintmask 11101100
          23 19 4 9 35 0 -61 -82 vhcurveto
          -222 vlineto
          -14 callgsubr
          endchar
        </CharString>
        <CharString name="eogonek">
          -11 61 callgsubr
          29 -57 callgsubr
          -25 callsubr
          -90 14 callgsubr
          -50 253 hintmask 1011110010000000
          -104 callsubr
          51 callgsubr
          hvcurveto
          hintmask 1101110010000000
          -7 callgsubr
          -61 -1 48 17 hvcurveto
          -2 146 rmoveto
          35 callsubr
          -43 -259 rmoveto
          hintmask 1101101000000000
          -95 callgsubr
          hintmask 1101100100000000
          -69 callsubr
          endchar
        </CharString>
        <CharString name="equal">
          -98 74 177 66 177 hstem
          462 317 -86 callgsubr
          405 -243 -86 callgsubr
          endchar
        </CharString>
        <CharString name="eth">
          -94 callsubr
        </CharString>
        <CharString name="exclam">
          -319 -81 180 625 -20 hstem
          44 240 vstem
          58 201 rmoveto
          -11 1 4 -36 86 hhcurveto
          92 42 36 29 1 hvcurveto
          18 454 0 28 0 vvcurveto
          15 -18 8 -65 -88 -101 -8 -16 1 vhcurveto
          138 -781 rmoveto
          66 56 16 74 73 -56 17 -66 -67 -55 -17 -73 -81 55 -9 67 hvcurveto
          endchar
        </CharString>
        <CharString name="exclamdown">
          -319 -124 -21 554 180 hstem
          42 245 vstem
          274 308 rmoveto
          11 -1 -3 36 -87 hhcurveto
          -91 -41 -36 -29 -3 hvcurveto
          -2 -18 -16 -394 0 vvcurveto
          -15 18 -8 66 87 101 8 16 -1 vhcurveto
          -137 710 rmoveto
          -66 -56 -16 -74 -72 56 -18 66 67 55 18 72 81 -55 9 -67 hvcurveto
          endchar
        </CharString>
        <CharString name="f">
          -92 21 -21 330 190 49 211 -26 callsubr
          hintmask 11011000
          358 330 rmoveto
          118 hlineto
          12 callsubr
          -3 7 -2 8 7 vvcurveto
          22 17 18 41 -22 callgsubr
          -306 hlineto
          -16 19 -8 69 87 95 -40 callgsubr
          endchar
        </CharString>
        <CharString name="ff">
          259 21 -21 320 190 59 211 -26 callsubr
          81 270 hintmask 11011100
          358 320 rmoveto
          81 -296 hlineto
          -16 19 -8 69 87 95 -40 callgsubr
          296 118 vlineto
          12 callsubr
          -3 7 -2 18 57 callgsubr
          hintmask 11101100
          40 18 -13 22 hhcurveto
          29 19 63 87 46 -75 15 -111 -46 -66 -9 -38 -55 hvcurveto
          24 -34 -71 13 -83 callsubr
          -5 518 rmoveto
          hintmask 11011100
          -41 callsubr
        </CharString>
        <CharString name="ffi">
          449 21 -21 320 191 49 220 -26 callsubr
          81 270 80 271 hintmask 11011110
          358 320 rmoveto
          81 -296 hlineto
          -16 19 -8 69 87 95 -40 callgsubr
          297 80 -297 -16 callgsubr
          441 vlineto
          10 -4 36 -85 vhcurveto
          -262 hlineto
          -3 10 -1 8 8 vvcurveto
          30 22 15 35 vhcurveto
          hintmask 11101110
          36 callgsubr
          -130 -54 -66 -9 -38 -55 hvcurveto
          24 -34 -71 13 -83 callsubr
          -5 518 rmoveto
          hintmask 11011110
          -41 callsubr
        </CharString>
        <CharString name="ffj">
          449 -134 -21 176 -21 321 190 49 220 -26 callsubr
          81 270 80 271 hintmask 11101111
          709 -47 callsubr
          hintmask 11110111
          35 callgsubr
          -115 -62 -66 -10 -38 -55 hvcurveto
          24 -34 -71 14 -83 callsubr
          296 81 -298 vlineto
          -19 46 -3 42 87 95 -40 callgsubr
          -356 518 rmoveto
          hintmask 11101111
          22 17 18 41 11 11 -3 -4 11 vhcurveto
          -4 -20 -1 -20 -24 vvcurveto
          -81 hlineto
          -3 7 -2 17 7 vvcurveto
          endchar
        </CharString>
        <CharString name="ffl">
          449 21 -21 320 190 72 198 hstem
          88 270 81 270 81 270 cntrmask 00011100
          358 320 rmoveto
          81 -296 hlineto
          -16 19 -8 69 87 95 -40 callgsubr
          480 vlineto
          61 16 26 25 30 10 -28 -68 vhcurveto
          -468 vlineto
          -16 4 -11 87 150 29 20 7 vhcurveto
          567 vlineto
          96 -38 90 -304 -60 -66 -9 -38 -55 vhcurveto
          24 -34 -71 13 -83 callsubr
          -5 518 rmoveto
          -41 callsubr
        </CharString>
        <CharString name="fh">
          428 21 -13 callsubr
          -8 199 hstemhm
          93 270 81 270 65 270 hintmask 10111100
          -5 callgsubr
          vhcurveto
          hintmask 11011100
          150 29 15 12 hvcurveto
          395 vlineto
          13 1 16 10 13 hhcurveto
          34 1 -61 -82 hvcurveto
          -278 vlineto
          -16 12 -8 68 88 102 -40 callgsubr
          308 vlineto
          169 -29 88 -133 vhcurveto
          hintmask 10111100
          -102 -60 -50 -14 -11 hvcurveto
          69 vlineto
          -60 callgsubr
          endchar
        </CharString>
        <CharString name="fi">
          98 21 -21 321 190 49 220 -26 callsubr
          80 271 hintmask 11011100
          358 321 rmoveto
          80 -297 hlineto
          -49 callsubr
          87 100 -40 callgsubr
          441 vlineto
          10 -4 36 -85 vhcurveto
          -262 hlineto
          -3 10 -1 8 8 vvcurveto
          30 22 15 35 vhcurveto
          hintmask 11101100
          36 callgsubr
          -120 -127 -156 -45 -224 -75 callgsubr
          -297 hlineto
          -16 19 -8 69 87 95 -40 callgsubr
          endchar
        </CharString>
        <CharString name="five">
          -40 45 callgsubr
          297 284 hintmask 10110000
          30 -70 callsubr
        </CharString>
        <CharString name="five.den">
          -287 -5 -6 callsubr
          35 -66 callsubr
        </CharString>
        <CharString name="five.num">
          -292 362 -6 callsubr
          402 -66 callsubr
        </CharString>
        <CharString name="five.os">
          -65 41 callsubr
          278 273 vstem
          92 -62 callgsubr
        </CharString>
        <CharString name="five.os.tab">
          29 41 callsubr
          325 273 vstem
          139 -62 callgsubr
        </CharString>
        <CharString name="five.tab">
          29 45 callgsubr
          331 284 hintmask 10110000
          64 -70 callsubr
        </CharString>
        <CharString name="fj">
          98 -134 -21 176 -21 321 190 49 220 -26 callsubr
          80 271 hintmask 11101110
          358 -47 callsubr
          hintmask 11110110
          35 callgsubr
          -111 -111 -174 -34 -235 -75 callgsubr
          -297 hlineto
          -16 19 -8 69 87 95 -40 callgsubr
          endchar
        </CharString>
        <CharString name="fl">
          98 21 -21 581 199 hstem
          93 270 81 270 vstem
          -5 callgsubr
          150 29 20 7 vhcurveto
          567 vlineto
          -60 callgsubr
          endchar
        </CharString>
        <CharString name="florin">
          -92 -134 -21 485 190 49 211 -26 callsubr
          hintmask 11011000
          171 -155 rmoveto
          172 15 77 168 hvcurveto
          240 118 vlineto
          12 callsubr
          31 18 31 35 -22 callgsubr
          -250 hlineto
          -14 callgsubr
          endchar
        </CharString>
        <CharString name="four">
          -33 61 callsubr
          299 -6 callgsubr
          383 -59 callsubr
        </CharString>
        <CharString name="four.den">
          -283 21 44 callgsubr
          hmoveto
          46 67 4 9 hvcurveto
          334 vlineto
          -91 callsubr
        </CharString>
        <CharString name="four.num">
          -283 388 44 callgsubr
          367 rmoveto
          46 67 4 9 hvcurveto
          334 vlineto
          -91 callsubr
        </CharString>
        <CharString name="four.os">
          18 38 callsubr
          345 279 hintmask 10110000
          429 -66 callgsubr
        </CharString>
        <CharString name="four.os.tab">
          29 38 callsubr
          365 279 hintmask 10110000
          449 -66 callgsubr
        </CharString>
        <CharString name="four.tab">
          29 61 callsubr
          342 -6 callgsubr
          426 -59 callsubr
        </CharString>
        <CharString name="fraction">
          -233 -9 callgsubr
          457 -104 callgsubr
          endchar
        </CharString>
        <CharString name="ft">
          188 -8 169 -140 -21 321 190 70 199 hstemhm
          93 270 81 270 hintmask 01111100
          184 hmoveto
          127 52 13 13 hvcurveto
          295 81 -83 vlineto
          -215 106 -31 153 82 18 9 92 39 -3 29 -19 -16 -51 8 42 vhcurveto
          110 59 vlineto
          25 16 48 64 58 -13 17 -13 hvcurveto
          hintmask 10111100
          -74 86 hlineto
          -60 callgsubr
          hintmask 01111100
          220 581 rmoveto
          27 11 -15 -55 2 hvcurveto
          -81 hlineto
          54 3 14 16 24 hhcurveto
          endchar
        </CharString>
        <CharString name="g">
          28 callsubr
          hstemhm
          25 30 callgsubr
          hintmask 10101100
          3 callsubr
          63 callgsubr
          hintmask 10101010
          45 -2 29 -90 -65 -84 -4 -38 -9 vhcurveto
          hintmask 01101100
          -39 callsubr
          hintmask 10011010
          -206 vlineto
          -22 -19 -4 -6 vhcurveto
          endchar
        </CharString>
        <CharString name="g_alt">
          104 -135 146 91 113 253 113 8 -20 hstemhm
          16 258 -246 246 -224 224 50 211 -199 199 -199 259 hintmask 1110100001000000
          306 -135 rmoveto
          277 12 119 66 90 -24 75 -261 -59 -9 38 11 4 2 3 0 hvcurveto
          0 28 -3 34 vhcurveto
          hintmask 1110100010000000
          99 130 28 141 10 -1 11 -1 10 hvcurveto
          29 hlineto
          hintmask 1110100001000000
          16 17 34 28 44 -9 7 -7 hvcurveto
          -153 hlineto
          hintmask 1101001100000000
          8 -35 -43 0 -46 hhcurveto
          -133 -119 -16 -144 -73 37 -39 0 hvcurveto
          hintmask 1110010100000000
          0 -59 -18 -56 vvcurveto
          -56 35 -15 2 -1 vhcurveto
          hintmask 1110100010000000
          -3 -2 -46 -37 -82 vvcurveto
          -64 13 -121 277 vhcurveto
          -1 146 rmoveto
          -20 -11 8 38 37 11 8 20 20 11 -8 -37 -38 -11 -8 -20 hvcurveto
          -1 380 rmoveto
          -12 -7 8 29 33 7 7 12 hvcurveto
          hintmask 1110100100000000
          13 7 -7 -33 -29 -7 -8 -13 hvcurveto
          endchar
        </CharString>
        <CharString name="gbreve">
          28 callsubr
          41 -18 callsubr
          25 269 -77 118 19 270 -255 255 -242 119 hintmask 1010010100100000
          hintmask 1010100110000000
          3 callsubr
          hvcurveto
          hintmask 1010101010000000
          63 callgsubr
          45 -2 29 -90 vhcurveto
          hintmask 1010101001000000
          -65 -84 -4 -38 -9 hvcurveto
          -39 callsubr
          hintmask 0110101010000000
          -206 vlineto
          -22 -19 -4 -6 vhcurveto
          6 546 32 callsubr
          vhcurveto
          hintmask 1001101001000000
          78 64 21 109 -64 callsubr
          1 callsubr
          37 callsubr
        </CharString>
        <CharString name="gcircumflex">
          18 callsubr
          30 callgsubr
          -87 87 hintmask 1110110100000000
          -22 callsubr
          hintmask 1101111000000000
          -21 callgsubr
          hintmask 1110110100000000
          56 18 16 34 hvcurveto
          -40 126 rmoveto
          hintmask 1110111000000000
          15 callsubr
          28 588 rmoveto
          -48 -132 -67 -13 -43 15 -47 25 hvcurveto
          22 113 39 5 5 112 -39 23 hhcurveto
          hintmask 1110110010000000
          47 callgsubr
        </CharString>
        <CharString name="gdotaccent">
          18 callsubr
          177 -177 30 callgsubr
          -142 142 hintmask 1110101010000000
          -22 callsubr
          hintmask 1101110100000000
          -21 callgsubr
          hintmask 1110110010000000
          56 18 16 34 hvcurveto
          -40 126 rmoveto
          hintmask 1110101100000000
          15 callsubr
          13 588 rmoveto
          hintmask 1110110001000000
          -93 callgsubr
        </CharString>
        <CharString name="germandbls">
          268 -11 178 -178 213 -181 -21 282 190 92 169 hstemhm
          86 273 60 205 -205 232 -47 255 hintmask 0011111000000000
          185 hmoveto
          82 92 7 19 hvcurveto
          456 vlineto
          72 10 10 21 21 8 -29 -119 vhcurveto
          -226 185 59 -61 vvcurveto
          -13 -18 -8 -27 vhcurveto
          -45 -49 35 -15 hhcurveto
          hintmask 1001110010000000
          -25 -22 -83 -56 hvcurveto
          hintmask 0101110010000000
          -56 78 -18 103 102 173 21 176 vhcurveto
          204 -235 -43 93 66 27 24 63 vvcurveto
          hintmask 1001111000000000
          108 -79 32 -208 -188 -90 -95 -166 vhcurveto
          hintmask 0011110100000000
          -30 hlineto
          -24 -22 -49 -50 -49 13 -42 15 hvcurveto
          51 -254 hlineto
          -26 32 -2 64 vhcurveto
          endchar
        </CharString>
        <CharString name="grave">
          -8 callsubr
          120 780 rmoveto
          -99 callsubr
        </CharString>
        <CharString name="greater">
          -289 -42 callsubr
          hstem
          147 288 rmoveto
          0 -117 -240 -23 vvcurveto
          -14 8 -11 114 49 19 14 25 16 vhcurveto
          11 17 100 198 34 vvcurveto
          31 -100 183 -11 24 vhcurveto
          27 -12 -23 27 -49 hhcurveto
          -114 -8 -21 -14 -22 117 -235 0 hvcurveto
          endchar
        </CharString>
        <CharString name="guillemotleft">
          65 -42 callsubr
          hstem
          255 288 rmoveto
          -87 callsubr
          314 hmoveto
          -87 callsubr
          endchar
        </CharString>
        <CharString name="guillemotright">
          43 -42 callsubr
          hstem
          147 288 rmoveto
          -87 callgsubr
          302 hmoveto
          -87 callgsubr
          endchar
        </CharString>
        <CharString name="guilsinglleft">
          -249 -42 callsubr
          hstem
          255 288 rmoveto
          -87 callsubr
          endchar
        </CharString>
        <CharString name="guilsinglright">
          -259 -42 callsubr
          hstem
          147 288 rmoveto
          -87 callgsubr
          endchar
        </CharString>
        <CharString name="h">
          14 21 -13 callsubr
          191 -20 hstem
          -11 callsubr
          55 270 vstem
          360 24 rmoveto
          -16 12 -8 68 88 102 -40 callgsubr
          308 vlineto
          169 -29 88 -133 -117 -49 -67 0 vhcurveto
          -7 hlineto
          11 69 rlineto
          147 vlineto
          5 -1 37 -90 -88 -92 -36 -27 vhcurveto
          -693 vlineto
          -16 12 -8 69 87 102 -40 callgsubr
          394 vlineto
          15 6 12 14 34 1 -61 -82 vhcurveto
          endchar
        </CharString>
        <CharString name="hbar">
          14 21 -13 callsubr
          1 160 -160 190 hstemhm
          40 270 55 270 hintmask 11011100
          365 24 rmoveto
          -16 12 -8 68 88 102 -40 callgsubr
          308 vlineto
          169 -29 88 -133 -117 -49 -67 0 vhcurveto
          -7 hlineto
          11 69 rlineto
          147 vlineto
          5 -1 37 -90 -88 -92 -36 -27 vhcurveto
          -693 vlineto
          -16 12 -8 69 87 102 -40 callgsubr
          394 vlineto
          15 6 12 14 34 1 -61 -82 vhcurveto
          13 288 rmoveto
          25 36 51 44 hvcurveto
          hintmask 11101100
          58 -13 7 -13 vhcurveto
          -402 hlineto
          -27 -38 -51 -38 -81 callsubr
          endchar
        </CharString>
        <CharString name="hcircumflex">
          14 21 -13 callsubr
          21 170 hstem
          -11 callsubr
          55 270 vstem
          471 780 rmoveto
          -48 -102 -67 -13 -43 15 -47 25 hvcurveto
          22 83 39 5 5 82 -39 23 hhcurveto
          -44 callgsubr
          14 -95 6 callsubr
          -111 -756 rmoveto
          -16 12 -8 68 88 102 -40 callgsubr
          308 vlineto
          169 -29 88 -133 -117 -49 -67 0 vhcurveto
          -7 hlineto
          11 69 rlineto
          147 vlineto
          5 -1 37 -90 -88 -92 -36 -27 vhcurveto
          -693 vlineto
          -16 12 -8 69 87 102 -40 callgsubr
          394 vlineto
          15 6 12 14 34 1 -61 -82 vhcurveto
          endchar
        </CharString>
        <CharString name="hungarumlaut">
          20 610 170 hstem
          50 260 51 260 vstem
          240 780 rmoveto
          -96 callsubr
        </CharString>
        <CharString name="hyphen">
          -98 190 177 hstem
          462 190 -86 callgsubr
          endchar
        </CharString>
        <CharString name="i">
          -301 21 -21 600 180 hstem
          39 271 vstem
          310 -82 callgsubr
          endchar
        </CharString>
        <CharString name="iacute">
          -3 callsubr
          50 66 callsubr
          271 -245 280 hintmask 11110000
          306 534 rmoveto
          10 -4 36 -87 -91 -89 -36 -28 vhcurveto
          -492 -16 callgsubr
          -35 756 rmoveto
          hintmask 11101000
          -106 callsubr
        </CharString>
        <CharString name="ibreve">
          -3 callsubr
          50 -18 callsubr
          29 118 47 119 hintmask 11011100
          306 534 rmoveto
          10 -4 36 -87 -91 -89 -36 -28 vhcurveto
          -492 -16 callgsubr
          -159 714 rmoveto
          -92 callgsubr
          -64 callsubr
          vhcurveto
          hintmask 11101100
          19 callsubr
        </CharString>
        <CharString name="icircumflex">
          -3 callsubr
          40 170 hstem
          35 271 vstem
          306 534 rmoveto
          10 -4 36 -87 -91 -89 -36 -28 vhcurveto
          -492 -16 callgsubr
          -130 746 rmoveto
          -48 -132 -67 -13 -43 15 -47 25 hvcurveto
          22 113 39 5 5 112 -39 23 hhcurveto
          47 callgsubr
        </CharString>
        <CharString name="idieresis">
          -3 callsubr
          40 180 hstemhm
          -68 213 -110 110 64 97 -97 213 hintmask 11101100
          306 534 rmoveto
          10 -4 36 -87 -91 -89 -36 -28 vhcurveto
          -492 -16 callgsubr
          -268 576 -2 callsubr
          hintmask 11110010
          -58 -48 -12 -76 -75 44 -17 62 hvcurveto
          277 hmoveto
          -98 callgsubr
          endchar
        </CharString>
        <CharString name="igrave">
          -3 callsubr
          50 -24 callgsubr
          1 280 -246 271 hintmask 11110000
          306 534 rmoveto
          10 -4 36 -87 -91 -89 -36 -28 vhcurveto
          -492 -56 callgsubr
          vhcurveto
          hintmask 11101000
          87 100 10 callgsubr
          -235 756 rmoveto
          -99 callsubr
        </CharString>
        <CharString name="ij">
          114 -134 -21 176 -21 600 180 hstem
          44 271 111 271 vstem
          315 -82 callgsubr
          309 -935 -61 callsubr
        </CharString>
        <CharString name="imacron">
          -188 21 -21 610 160 hstem
          94 271 vstem
          417 610 10 callsubr
          353 -66 rmoveto
          10 -4 36 -87 -91 -89 -36 -28 vhcurveto
          -502 -16 callgsubr
          endchar
        </CharString>
        <CharString name="iogonek">
          -301 61 callgsubr
          60 -21 600 180 hstemhm
          19 168 -148 186 -186 271 -271 289 hintmask 11100100
          310 -82 callgsubr
          -108 -733 -44 callsubr
        </CharString>
        <CharString name="itilde">
          -3 callsubr
          50 -57 callsubr
          35 271 hintmask 11100100
          306 534 rmoveto
          10 -4 36 -87 -91 -89 -36 -28 vhcurveto
          -492 -16 callgsubr
          -41 586 -30 callsubr
          hintmask 11001100
          -12 callgsubr
          hintmask 11100100
          -18 callgsubr
          hintmask 11001100
          -78 callgsubr
          hintmask 11100100
          -11 callgsubr
          hintmask 11010100
          -12 callsubr
          hintmask 11100100
          -36 callgsubr
        </CharString>
        <CharString name="j">
          -251 -134 -21 755 180 hstem
          89 271 vstem
          151 -155 -61 callsubr
        </CharString>
        <CharString name="jcircumflex">
          -280 -134 -21 765 170 hstem
          60 271 vstem
          143 -155 rmoveto
          172 16 77 168 hvcurveto
          427 vlineto
          11 -4 36 -88 -90 -89 -36 -29 vhcurveto
          -419 vlineto
          -14 callgsubr
          52 935 rmoveto
          -48 -132 -67 -13 -43 15 -47 25 hvcurveto
          22 113 39 5 5 112 -39 23 hhcurveto
          47 callgsubr
        </CharString>
        <CharString name="k">
          -15 1 -21 41 -21 589 -20 211 -20 -41 callgsubr
          hintmask 01111000
          120 hmoveto
          88 97 10 callgsubr
          99 vlineto
          26 31 rlineto
          hintmask 10111000
          0 41 -174 40 41 178 72 44 32 -143 171 0 vhcurveto
          61 60 62 113 30 vvcurveto
          48 -159 39 -63 -23 -48 -229 0 vhcurveto
          -13 374 hlineto
          -23 callgsubr
          -692 vlineto
          hintmask 01111000
          -16 17 -8 68 vhcurveto
          endchar
        </CharString>
        <CharString name="l">
          -311 21 -21 780 -20 hstem
          -11 callsubr
          vstem
          -69 callgsubr
          endchar
        </CharString>
        <CharString name="lacute">
          -311 21 -21 800 -16 callsubr
          -225 280 hintmask 11100000
          -69 callgsubr
          -15 946 rmoveto
          hintmask 11010000
          -106 callsubr
        </CharString>
        <CharString name="lcaron">
          -41 21 -21 780 -20 hstem
          -11 callsubr
          71 204 vstem
          -69 callgsubr
          131 413 rmoveto
          -90 callsubr
        </CharString>
        <CharString name="ldot">
          -43 21 -21 308 201 271 -20 hstem
          -11 callsubr
          60 213 vstem
          -69 callgsubr
          166 284 rmoveto
          -71 callgsubr
          endchar
        </CharString>
        <CharString name="less">
          -289 -42 callsubr
          hstem
          215 288 rmoveto
          0 117 235 22 -23 callsubr
          -23 -27 -27 -12 vhcurveto
          -11 -24 -100 -183 -31 vvcurveto
          -34 100 -198 11 -17 vhcurveto
          -25 16 19 -14 119 hhcurveto
          44 8 11 14 23 -117 240 0 hvcurveto
          endchar
        </CharString>
        <CharString name="logicalnot">
          -98 80 287 -177 177 hstemhm
          350 175 hintmask 10100000
          525 308 rmoveto
          49 -16 10 -11 vhcurveto
          -403 hlineto
          -29 -36 -55 -59 hvcurveto
          hintmask 01100000
          -60 26 -3 7 vhcurveto
          287 -95 hlineto
          hintmask 10100000
          -7 14 -8 33 58 70 8 15 vhcurveto
          endchar
        </CharString>
        <CharString name="lslash">
          -98 21 -21 310 177 293 -20 hstem
          141 270 vstem
          225 hmoveto
          87 99 10 callgsubr
          286 71 vlineto
          -75 callsubr
          -106 247 hlineto
          -23 callgsubr
          -229 -66 vlineto
          -74 callgsubr
          104 -286 hlineto
          -49 callsubr
          vhcurveto
          endchar
        </CharString>
        <CharString name="m">
          330 21 -21 444 145 49 callgsubr
          51 270 50 270 hintmask 11011100
          946 330 rmoveto
          168 -29 91 -139 -93 -73 -57 -33 -14 vhcurveto
          62 -27 -38 28 -75 hhcurveto
          -113 -43 -90 0 hvcurveto
          -7 hlineto
          -9 44 rlineto
          hintmask 10111100
          18 -4 -10 19 -55 hhcurveto
          -92 -90 -36 -27 hvcurveto
          -493 -56 callgsubr
          87 99 -40 callgsubr
          393 vlineto
          hintmask 11011100
          22 10 5 9 32 0 -70 -73 vhcurveto
          -277 vlineto
          -16 16 -8 68 88 98 -40 callgsubr
          393 vlineto
          22 14 5 7 25 4 -64 -79 vhcurveto
          -277 -1 callgsubr
          endchar
        </CharString>
        <CharString name="macron">
          -98 610 160 hstem
          462 610 10 callsubr
          endchar
        </CharString>
        <CharString name="minus">
          -98 190 177 hstem
          462 190 -86 callgsubr
          endchar
        </CharString>
        <CharString name="mu">
          37 -155 291 -136 136 444 -20 hstemhm
          40 270 68 270 hintmask 01111000
          hintmask 10111000
          304 hmoveto
          62 15 81 0 hvcurveto
          8 hlineto
          10 -64 rlineto
          hintmask 01111000
          -8 1 9 -9 65 hhcurveto
          61 113 8 17 hvcurveto
          516 vlineto
          12 -3 27 -75 -71 -121 -24 -34 vhcurveto
          -352 vlineto
          -22 -11 -12 -18 -36 -3 50 79 vhcurveto
          267 vlineto
          12 -4 36 -82 -68 -116 -25 -32 vhcurveto
          -655 vlineto
          -14 9 -9 89 83 89 8 22 19 -67 137 0 vhcurveto
          4 hlineto
          0 18 -31 39 vhcurveto
          endchar
        </CharString>
        <CharString name="multiply">
          -98 85 -21 425 -20 hstem
          277 153 rmoveto
          -73 73 9 -12 19 hhcurveto
          30 95 61 39 16 -2 -5 -98 99 hvcurveto
          84 85 11 3 15 vvcurveto
          34 -78 74 -44 -17 3 -2 -84 -85 vhcurveto
          72 -71 -10 3 -13 hhcurveto
          -45 -82 -47 -49 -15 1 6 95 -95 hvcurveto
          -97 -98 -3 -4 -6 vvcurveto
          -33 89 -73 40 16 -6 2 87 86 vhcurveto
          endchar
        </CharString>
        <CharString name="n">
          22 21 -13 callsubr
          49 callgsubr
          63 270 hintmask 11011000
          -58 callsubr
          hintmask 10111000
          18 -4 -10 19 -55 hhcurveto
          -92 -90 -36 -27 hvcurveto
          12 callgsubr
          394 vlineto
          hintmask 11011000
          -53 callgsubr
          endchar
        </CharString>
        <CharString name="nacute">
          22 21 -13 callsubr
          -9 -20 50 -16 callsubr
          -89 280 -128 270 hintmask 11011010
          -58 callsubr
          hintmask 10111010
          18 -4 -10 19 -55 hhcurveto
          -92 -90 -36 -27 hvcurveto
          12 callgsubr
          394 vlineto
          hintmask 11011010
          -53 callgsubr
          -212 756 rmoveto
          hintmask 11010100
          -106 callsubr
        </CharString>
        <CharString name="ncaron">
          22 21 -21 445 135 9 -20 41 -16 callsubr
          63 270 -122 122 hintmask 11011010
          -58 callsubr
          18 -4 -10 19 -55 hhcurveto
          -92 -90 -36 -27 hvcurveto
          -493 vlineto
          -16 16 -8 69 vhcurveto
          hintmask 11011100
          67 callsubr
          hvcurveto
          394 vlineto
          -53 callgsubr
          -302 586 rmoveto
          hintmask 10111100
          -102 callsubr
        </CharString>
        <CharString name="nine">
          11 29 callgsubr
          30 270 60 272 hintmask 10111100
          366 -76 callgsubr
        </CharString>
        <CharString name="nine.den">
          -263 -5 28 callgsubr
          155 -62 callsubr
        </CharString>
        <CharString name="nine.num">
          -263 366 28 callgsubr
          526 -62 callsubr
        </CharString>
        <CharString name="nine.os">
          19 37 callgsubr
          35 49 callsubr
          363 -72 callgsubr
        </CharString>
        <CharString name="nine.os.tab">
          29 37 callgsubr
          40 49 callsubr
          368 -72 callgsubr
        </CharString>
        <CharString name="nine.tab">
          29 29 callgsubr
          39 270 60 272 hintmask 10111100
          375 -76 callgsubr
        </CharString>
        <CharString name="ntilde">
          22 21 -13 callsubr
          -9 -20 50 -57 callsubr
          35 270 63 270 hintmask 11010011
          -58 callsubr
          hintmask 10110011
          18 -4 -10 19 -55 hhcurveto
          -92 -90 -36 -27 hvcurveto
          12 callgsubr
          394 vlineto
          hintmask 11010011
          -53 callgsubr
          -235 586 -30 callsubr
          hintmask 11000111
          -12 callgsubr
          hintmask 11010011
          -18 callgsubr
          hintmask 11000111
          -78 callgsubr
          hintmask 11010011
          -11 callgsubr
          hintmask 11001011
          -12 callsubr
          hintmask 11010011
          -36 callgsubr
        </CharString>
        <CharString name="numbersign">
          163 21 -21 130 177 96 177 131 -20 hstem
          264 44 rmoveto
          23 86 rlineto
          104 hlineto
          -19 -73 0 -6 -7 -14 callsubr
          23 86 rlineto
          90 hlineto
          -75 callsubr
          -78 hlineto
          26 96 rlineto
          75 hlineto
          -75 callsubr
          -62 hlineto
          24 90 -4 callsubr
          -8 -27 -7 -25 -6 -25 rrcurveto
          -105 hlineto
          24 90 -4 callsubr
          -8 -27 -7 -25 -6 -25 rrcurveto
          -72 -1 callsubr
          62 hlineto
          -26 -96 rlineto
          -56 -1 callsubr
          46 hlineto
          -19 -73 0 -6 -7 -14 callsubr
          96 359 rmoveto
          105 hlineto
          -26 -96 rlineto
          -105 hlineto
          endchar
        </CharString>
        <CharString name="o">
          -42 callgsubr
          hstem
          25 276 82 277 vstem
          -105 callgsubr
          endchar
        </CharString>
        <CharString name="oacute">
          -42 callgsubr
          21 -24 callgsubr
          25 276 -49 49 82 149 -149 277 hintmask 11110010
          -105 callgsubr
          119 644 rmoveto
          hintmask 11101100
          -106 callsubr
        </CharString>
        <CharString name="obreve">
          -42 callgsubr
          21 -18 callsubr
          25 175 -175 276 17 47 18 277 -176 176 hintmask 1101101010000000
          343 -9 rmoveto
          184 133 95 210 259 -142 34 -175 -177 -141 -74 -219 -250 133 -55 185 hvcurveto
          145 vmoveto
          -20 -22 9 145 hvcurveto
          hintmask 1110011100000000
          -78 callsubr
          -145 -21 -9 -19 vhcurveto
          -25 602 rmoveto
          -92 callgsubr
          -64 callsubr
          19 callsubr
        </CharString>
        <CharString name="ocircumflex">
          -42 callgsubr
          21 -24 callgsubr
          25 276 -139 139 82 139 -139 277 hintmask 11110010
          -105 callgsubr
          -1 644 rmoveto
          hintmask 11101100
          -48 -132 -67 -13 -43 15 -47 25 hvcurveto
          22 113 39 5 5 112 -39 23 hhcurveto
          47 callgsubr
        </CharString>
        <CharString name="odieresis">
          -42 callgsubr
          11 180 hstemhm
          25 276 -204 204 82 204 -204 277 hintmask 11110010
          -105 callgsubr
          -140 464 -2 callsubr
          hintmask 11101100
          -58 -48 -12 -76 -75 44 -17 62 hvcurveto
          277 hmoveto
          -98 callgsubr
          endchar
        </CharString>
        <CharString name="oe">
          348 54 callgsubr
          -199 -21 236 80 138 145 hstemhm
          25 276 82 271 66 254 hintmask 0010111110000000
          656 21 callgsubr
          -79 -69 -9 -27 -55 hvcurveto
          25 -49 -61 11 -65 hhcurveto
          -177 -141 -34 -259 -250 133 -55 185 64 59 13 25 48 hvcurveto
          hintmask 0001111110000000
          -25 46 61 -14 83 hhcurveto
          99 151 22 57 hvcurveto
          hintmask 0010111110000000
          34 -55 107 -25 vhcurveto
          hintmask 0100111110000000
          -17 -78 -49 -61 hhcurveto
          -60 -2 48 17 hvcurveto
          hintmask 1000111110000000
          -313 -90 rmoveto
          -4 callgsubr
          -143 -22 -11 -18 hvcurveto
          311 236 rmoveto
          35 callsubr
          endchar
        </CharString>
        <CharString name="ogonek">
          -257 61 callgsubr
          86 -20 hstemhm
          50 14 callgsubr
          hintmask 11100000
          97 47 rmoveto
          -95 callgsubr
          hintmask 11010000
          -69 callsubr
          endchar
        </CharString>
        <CharString name="ograve">
          -42 callgsubr
          21 -24 callgsubr
          25 137 -137 276 82 277 -218 218 hintmask 11110010
          343 -9 rmoveto
          184 133 95 210 259 -142 34 -175 -177 -141 -74 -219 -250 133 -55 185 hvcurveto
          145 vmoveto
          hintmask 11101100
          -4 callgsubr
          -145 -21 -9 -19 hvcurveto
          -111 644 rmoveto
          -99 callsubr
        </CharString>
        <CharString name="ohungarumlaut">
          -42 callgsubr
          21 -24 callgsubr
          25 276 -244 260 51 260 -245 277 hintmask 11110010
          -105 callgsubr
          -96 644 rmoveto
          hintmask 11101100
          -96 callsubr
        </CharString>
        <CharString name="omacron">
          -42 callgsubr
          21 160 hstemhm
          25 276 -203 203 82 208 -208 277 hintmask 11110010
          -105 callgsubr
          187 474 rmoveto
          hintmask 11101100
          -100 callsubr
          endchar
        </CharString>
        <CharString name="one">
          -198 21 -21 456 256 hstem
          134 -6 callgsubr
          218 -33 callsubr
        </CharString>
        <CharString name="one.den">
          -376 21 -21 237 135 hstemhm
          15 14 callsubr
          hintmask 11100000
          123 hmoveto
          -91 callgsubr
          hintmask 11010000
          -24 callsubr
          endchar
        </CharString>
        <CharString name="one.num">
          -63 callsubr
        </CharString>
        <CharString name="one.os">
          -135 58 callsubr
          192 -6 callgsubr
          276 -35 callgsubr
        </CharString>
        <CharString name="one.os.tab">
          29 58 callsubr
          292 -6 callgsubr
          376 -35 callgsubr
        </CharString>
        <CharString name="one.tab">
          29 21 -21 456 256 hstem
          260 -6 callgsubr
          344 -33 callsubr
        </CharString>
        <CharString name="onehalf">
          177 0 126 99 152 -128 128 187 146 hstemhm
          30 14 callsubr
          377 171 hintmask 11011010
          626 -104 callgsubr
          -130 283 rmoveto
          -91 callgsubr
          hintmask 11010110
          -24 callsubr
          385 -102 rmoveto
          hintmask 10111010
          -101 callsubr
          hintmask 11011010
          -39 15 -73 22 vhcurveto
          endchar
        </CharString>
        <CharString name="onequarter">
          120 21 -21 73 299 192 146 hstemhm
          30 14 callsubr
          343 148 hintmask 11110100
          636 -104 callgsubr
          -140 283 rmoveto
          -91 callgsubr
          hintmask 11101100
          -24 callsubr
          490 -327 rmoveto
          46 67 4 9 hvcurveto
          334 vlineto
          -91 callsubr
        </CharString>
        <CharString name="onesuperior">
          -63 callsubr
        </CharString>
        <CharString name="onethird">
          177 0 111 -95 -21 243 139 -116 116 187 146 hstemhm
          30 14 callsubr
          300 15 callgsubr
          hintmask 1010110100000000
          637 -104 callgsubr
          -141 283 rmoveto
          -91 callgsubr
          hintmask 0110101010000000
          -24 callsubr
          351 -298 rmoveto
          -11 58 -23 76 92 83 32 82 63 -44 24 -3 1 vhcurveto
          4 2 38 23 55 vvcurveto
          48 -42 52 -128 -91 -39 -26 -18 -10 12 -85 20 vhcurveto
          hintmask 1001110010000000
          -63 callgsubr
          hintmask 1010110100000000
          -45 callsubr
          hintmask 1010110010000000
          -84 callsubr
          endchar
        </CharString>
        <CharString name="ordfeminine">
          -319 464 246 hstem
          190 502 rmoveto
          3 -23 rlineto
          -10 1 32 -5 37 hhcurveto
          45 9 9 8 5 -28 108 -39 106 hvcurveto
          6 -3 -10 4 -30 hhcurveto
          -37 -84 -4 -6 -2 hvcurveto
          -40 -105 -29 -110 -5 vvcurveto
          -7 28 -9 48 32 16 4 14 2 vhcurveto
          2 20 rlineto
          38 66 rmoveto
          -30 hlineto
          7 61 rlineto
          17 hlineto
          endchar
        </CharString>
        <CharString name="ordmasculine">
          -276 464 246 hstem
          45 121 43 121 7 callgsubr
          3 92 rmoveto
          -13 -10 13 20 20 10 10 11 12 10 -10 -20 -20 -7 -13 -13 hvcurveto
          endchar
        </CharString>
        <CharString name="oslash">
          34 -87 223 -145 145 308 145 -145 234 hstemhm
          25 276 -149 149 82 277 hintmask 01011010
          361 -9 rmoveto
          174 4 125 59 242 vvcurveto
          162 -56 74 -85 33 vhcurveto
          11 42 6 26 10 -23 callsubr
          -28 -26 -28 -7 vhcurveto
          hintmask 10101010
          -9 -35 rlineto
          -167 -3 -129 -42 -248 vvcurveto
          -159 53 -80 86 -37 vhcurveto
          hintmask 10100110
          -8 -32 -4 -22 -9 -14 callsubr
          hintmask 01101010
          -9 179 rmoveto
          -4 callgsubr
          -145 -21 -9 -19 hvcurveto
          endchar
        </CharString>
        <CharString name="otilde">
          -42 callgsubr
          21 -57 callsubr
          25 276 82 277 hintmask 11100110
          -105 callgsubr
          100 474 -48 callsubr
        </CharString>
        <CharString name="p">
          12 -124 -21 137 146 308 143 49 callgsubr
          62 271 hintmask 11101100
          35 -121 rmoveto
          -17 20 -7 74 79 103 -40 callgsubr
          113 54 callsubr
          181 29 163 197 72 -4 165 -166 -130 -35 -90 0 vhcurveto
          -8 hlineto
          -8 39 rlineto
          hintmask 11011100
          21 -5 -5 21 -65 hhcurveto
          -90 -87 -38 -27 hvcurveto
          270 -89 rmoveto
          hintmask 11101100
          40 callsubr
          -39 -23 -7 -20 3 23 vhcurveto
          endchar
        </CharString>
        <CharString name="paragraph">
          52 -124 -21 865 -20 hstem
          272 171 44 171 vstem
          222 197 rmoveto
          50 -318 hlineto
          -16 20 -8 28 68 55 -40 callgsubr
          658 44 -658 vlineto
          -16 20 -8 28 68 55 -40 callgsubr
          789 vlineto
          48 -204 4 -85 -221 -128 -41 -239 -129 52 -114 150 vhcurveto
          endchar
        </CharString>
        <CharString name="parenleft">
          53 callgsubr
          35 267 vstem
          388 -149 rmoveto
          24 6 14 79 19 -7 47 -30 -42 -37 100 177 176 30 99 56 26 6 70 39 22 -6 27 -36 -205 -138 -127 -298 -309 129 -135 224 hvcurveto
          endchar
        </CharString>
        <CharString name="parenright">
          53 callgsubr
          148 267 vstem
          62 -149 rmoveto
          224 129 135 309 298 -138 127 -205 -36 -6 -27 -22 -39 6 -70 26 56 30 -99 -176 -177 -37 -100 -42 -30 -7 -47 -19 -79 6 -14 24 hvcurveto
          endchar
        </CharString>
        <CharString name="percent">
          324 11 -21 31 -21 274 17 callgsubr
          hintmask 0111011110000000
          744 -104 callgsubr
          -162 285 rmoveto
          108 87 32 163 hvcurveto
          hintmask 0110111110000000
          159 -92 28 -103 -102 -92 -28 -159 -163 86 -32 108 vhcurveto
          97 vmoveto
          -12 -14 10 85 hvcurveto
          hintmask 1011011110000000
          83 14 9 12 14 12 -9 -83 -85 -12 -10 -14 vhcurveto
          526 -436 -82 callsubr
          -65 callgsubr
          endchar
        </CharString>
        <CharString name="period">
          -358 -9 8 callsubr
          -9 rmoveto
          -71 callgsubr
          endchar
        </CharString>
        <CharString name="periodcentered">
          -358 201 8 callsubr
          201 rmoveto
          -71 callgsubr
          endchar
        </CharString>
        <CharString name="perthousand">
          763 0 87 -76 -21 284 17 callgsubr
          50 32 callgsubr
          hintmask 1011011111100000
          744 -104 callgsubr
          -162 285 rmoveto
          108 87 32 163 hvcurveto
          hintmask 1010111111100000
          159 -92 28 -103 -102 -92 -28 -159 -163 86 -32 108 vhcurveto
          97 vmoveto
          -12 -14 10 85 hvcurveto
          hintmask 0111011111100000
          83 14 9 12 14 12 -9 -83 -85 -12 -10 -14 vhcurveto
          526 -436 -82 callsubr
          hintmask 1011011111100000
          -65 callgsubr
          hintmask 0111011111100000
          439 -97 -82 callsubr
          hintmask 1011011111100000
          -65 callgsubr
          endchar
        </CharString>
        <CharString name="plus">
          -98 52 -21 159 34 callsubr
          31 -50 callgsubr
          endchar
        </CharString>
        <CharString name="plusminus">
          -98 0 177 199 34 callsubr
          217 -50 callgsubr
          209 -217 -86 callgsubr
          endchar
        </CharString>
        <CharString name="q">
          12 -145 283 -146 146 306 145 -25 callsubr
          62 270 hintmask 01111000
          227 -8 rmoveto
          123 11 69 0 hvcurveto
          8 hlineto
          -12 -69 rlineto
          -113 vlineto
          hintmask 10111000
          -16 20 -8 68 88 95 -40 callgsubr
          648 vlineto
          58 -201 4 -65 -236 -101 -92 -232 vhcurveto
          hintmask 01111000
          -129 22 -144 180 vhcurveto
          101 452 rmoveto
          23 7 -4 0 hvcurveto
          -283 vlineto
          -14 -20 -5 -8 -21 -13 35 116 116 12 39 20 vhcurveto
          endchar
        </CharString>
        <CharString name="question">
          -52 -11 180 272 58 callgsubr
          114 239 -239 272 -101 68 -68 284 hintmask 11010000
          89 441 rmoveto
          hintmask 10100100
          25 51 46 71 hhcurveto
          31 18 -9 -20 hvcurveto
          hintmask 11010000
          -80 -171 23 -41 vvcurveto
          -119 3 -38 87 34 115 9 24 vhcurveto
          33 -10 20 24 vvcurveto
          hintmask 11000010
          0 226 -6 204 vvcurveto
          148 -123 52 -164 -159 -103 -49 -27 -72 29 -122 40 vhcurveto
          157 -272 rmoveto
          -75 -65 -16 -74 -73 65 -17 75 hvcurveto
          hintmask 11001000
          76 64 17 73 81 -64 9 -76 hvcurveto
          endchar
        </CharString>
        <CharString name="questiondown">
          -52 -155 224 -224 270 295 180 hstemhm
          30 283 -100 272 -239 67 -67 239 hintmask 01110000
          510 115 rmoveto
          hintmask 10100100
          -26 -50 -46 -71 hhcurveto
          -32 -18 9 21 hvcurveto
          hintmask 10100010
          79 172 -3 41 vvcurveto
          119 -3 38 -87 -34 -115 -9 -24 vhcurveto
          -32 10 -20 -25 vvcurveto
          hintmask 01110000
          0 -226 -14 -203 vvcurveto
          -149 123 -52 164 159 103 49 27 72 -29 122 -40 vhcurveto
          -157 295 rmoveto
          75 65 17 73 73 -65 17 -75 hvcurveto
          hintmask 10101000
          -76 -64 -17 -73 -81 64 -9 76 hvcurveto
          endchar
        </CharString>
        <CharString name="quotedbl">
          -129 13 callgsubr
          30 201 60 201 vstem
          125 780 rmoveto
          -21 callsubr
          261 hmoveto
          -21 callsubr
          endchar
        </CharString>
        <CharString name="quotedblbase">
          -86 -133 9 callsubr
          40 204 87 204 vstem
          100 -154 -36 callsubr
        </CharString>
        <CharString name="quotedblleft">
          -86 13 callgsubr
          30 204 87 204 vstem
          465 780 rmoveto
          -99 -45 -62 -129 -87 1 -65 41 58 104 3 50 129 -3 161 -57 hvcurveto
          -291 hmoveto
          11 callgsubr
        </CharString>
        <CharString name="quotedblright">
          -86 13 callgsubr
          40 204 87 204 vstem
          100 437 -36 callsubr
        </CharString>
        <CharString name="quoteleft">
          -377 13 callgsubr
          30 204 vstem
          174 780 rmoveto
          11 callgsubr
        </CharString>
        <CharString name="quoteright">
          -377 13 callgsubr
          40 204 vstem
          100 437 rmoveto
          -90 callsubr
        </CharString>
        <CharString name="quotesinglbase">
          -377 -133 9 callsubr
          40 204 vstem
          100 -154 rmoveto
          -90 callsubr
        </CharString>
        <CharString name="quotesingle">
          -390 13 callgsubr
          30 201 vstem
          125 780 rmoveto
          -21 callsubr
          endchar
        </CharString>
        <CharString name="r">
          -65 21 -21 324 265 -235 235 49 callgsubr
          hintmask 10101000
          27 callgsubr
          55 9 175 31 hvcurveto
          hintmask 11001000
          31 -26 28 -57 -90 -78 -42 -49 -18 vhcurveto
          -7 hlineto
          -10 46 rlineto
          18 -4 -13 18 -53 hhcurveto
          -98 -82 -40 -23 hvcurveto
          hintmask 10011000
          12 callgsubr
          endchar
        </CharString>
        <CharString name="racute">
          -95 21 -21 324 256 -226 226 9 -20 41 -16 callsubr
          133 133 hintmask 11001110
          305 24 rmoveto
          -16 -98 -8 -87 -69 -16 -40 callgsubr
          493 vlineto
          23 82 40 98 53 13 -18 -18 4 vhcurveto
          10 -46 rlineto
          7 hlineto
          hintmask 10011110
          49 18 78 42 90 hhcurveto
          57 26 -28 -31 hvcurveto
          hintmask 11001110
          -31 -9 -175 -55 vhcurveto
          hintmask 10101110
          -32 -50 30 -80 hhcurveto
          -34 -6 -17 -21 hvcurveto
          63 464 rmoveto
          -106 callsubr
        </CharString>
        <CharString name="rcaron">
          -95 21 -21 324 265 -235 235 -9 -20 50 -16 callsubr
          hintmask 10101100
          27 callgsubr
          hintmask 11001100
          -34 callsubr
          -27 586 -15 callsubr
          hintmask 10011100
          -58 callgsubr
        </CharString>
        <CharString name="rcommaaccent">
          -60 -153 114 39 191 133 265 -235 235 -9 -20 hstemhm
          40 270 31 213 hintmask 11010110
          310 316 rmoveto
          21 6 17 34 vhcurveto
          hintmask 11100110
          80 50 -30 32 hhcurveto
          -34 callsubr
          31 70 33 callgsubr
          vhcurveto
          hintmask 11001110
          11 callsubr
        </CharString>
        <CharString name="registered">
          34 -9 80 80 285 73 80 hstem
          25 84 119 101 39 102 105 85 vstem
          -55 callsubr
          24 91 rmoveto
          -9 3 2 -2 35 hhcurveto
          34 37 1 18 20 -53 61 0 hvcurveto
          27 15 18 26 50 vvcurveto
          81 -50 13 -90 -94 -8 -6 -13 vhcurveto
          -255 vlineto
          -7 7 -4 33 40 21 4 7 vhcurveto
          74 vlineto
          0 2 -1 5 vhcurveto
          -7 71 rmoveto
          63 15 vlineto
          9 15 -3 -28 -29 -13 -3 -14 hvcurveto
          endchar
        </CharString>
        <CharString name="ring">
          -321 610 67 36 67 hstem
          50 88 54 88 vstem
          164 610 rmoveto
          -92 callsubr
        </CharString>
        <CharString name="s">
          -40 -9 172 222 206 -171 171 hstemhm
          51 260 9 266 hintmask 10111000
          307 -9 rmoveto
          55 callsubr
          hintmask 11011000
          -60 callsubr
          -45 callgsubr
          endchar
        </CharString>
        <CharString name="sacute">
          -72 -9 172 0 257 -35 -10 callgsubr
          -122 122 -74 callsubr
          87 789 rmoveto
          -106 callsubr
        </CharString>
        <CharString name="scaron">
          -72 -9 172 222 -10 callgsubr
          hintmask 10111100
          302 -9 rmoveto
          hintmask 11011100
          55 callsubr
          -60 callsubr
          -45 callgsubr
          -5 619 -20 callsubr
        </CharString>
        <CharString name="scedilla">
          -72 -175 166 -75 75 0 216 -192 148 0 257 0 171 hstemhm
          46 180 -180 260 9 266 -172 172 hintmask 1000101010000000
          hintmask 0101011001000000
          302 -9 rmoveto
          55 callsubr
          -60 callsubr
          hintmask 1001010110000000
          -45 callgsubr
          -58 -166 rmoveto
          -83 callgsubr
          hintmask 1000101010000000
          21 21 -2 -8 hvcurveto
          hintmask 0010011010000000
          -31 callgsubr
          vhcurveto
          endchar
        </CharString>
        <CharString name="scircumflex">
          -72 -9 172 0 257 -35 -10 callgsubr
          -102 102 -74 callsubr
          -3 789 rmoveto
          -48 -132 -67 -13 -43 15 -47 25 hvcurveto
          22 113 39 5 5 112 -39 23 hhcurveto
          47 callgsubr
        </CharString>
        <CharString name="section">
          -72 -106 171 511 205 -170 -24 callgsubr
          45 199 -199 250 8 256 hintmask 11010100
          291 -106 rmoveto
          237 31 116 79 73 -33 40 -42 25 hvcurveto
          63 41 12 62 48 209 -264 -56 56 vvcurveto
          hintmask 10101100
          14 17 10 39 vhcurveto
          44 53 -35 33 hhcurveto
          hintmask 11010100
          21 49 86 54 23 -41 42 -201 -262 -2 -147 -59 -70 30 -38 40 -21 hvcurveto
          -69 -48 -1 -74 -38 -203 258 71 -65 vvcurveto
          -20 -15 -4 -39 vhcurveto
          -78 -57 49 -31 hhcurveto
          -23 -40 -95 -55 -23 70 -47 201 hvcurveto
          71 440 rmoveto
          -28 -34 -4 -30 vhcurveto
          -40 -14 18 0 28 34 4 30 40 14 -18 0 hvcurveto
          endchar
        </CharString>
        <CharString name="semicolon">
          -358 -153 114 355 -8 callgsubr
          -106 -222 rmoveto
          56 13 41 93 93 14 -42 -59 -122 -28 -121 -136 -22 -22 67 31 10 2 6 5 46 6 39 0 vhcurveto
          0 -64 0 94 vvcurveto
          endchar
        </CharString>
        <CharString name="seven">
          -112 21 -21 470 242 hstem
          190 hmoveto
          87 113 8 16 4 hvcurveto
          44 211 91 346 66 vvcurveto
          28 -5 37 -68 vhcurveto
          -402 hlineto
          -35 -9 -100 -41 -62 14 -39 12 hvcurveto
          205 hlineto
          0 -135 -418 -28 vvcurveto
          -80 callsubr
          endchar
        </CharString>
        <CharString name="seven.den">
          -337 21 43 callgsubr
          hmoveto
          -38 callgsubr
        </CharString>
        <CharString name="seven.num">
          -337 388 43 callgsubr
          367 rmoveto
          -38 callgsubr
        </CharString>
        <CharString name="seven.os">
          -22 -95 -21 474 242 hstem
          199 -46 callgsubr
        </CharString>
        <CharString name="seven.os.tab">
          29 -95 -21 474 242 hstem
          224 -46 callgsubr
        </CharString>
        <CharString name="seven.tab">
          29 21 -21 470 242 hstem
          261 hmoveto
          87 113 8 16 4 hvcurveto
          44 211 91 346 66 vvcurveto
          28 -5 37 -68 vhcurveto
          -402 hlineto
          -35 -9 -100 -41 -62 14 -39 12 hvcurveto
          205 hlineto
          0 -135 -418 -28 vvcurveto
          -80 callsubr
          endchar
        </CharString>
        <CharString name="six">
          11 29 callsubr
          30 272 60 270 hintmask 11011100
          296 -77 callgsubr
        </CharString>
        <CharString name="six.den">
          -264 -5 25 callsubr
          211 -61 callgsubr
        </CharString>
        <CharString name="six.num">
          -264 366 25 callsubr
          582 -61 callgsubr
        </CharString>
        <CharString name="six.os">
          19 39 callgsubr
          35 49 callsubr
          307 -72 callsubr
        </CharString>
        <CharString name="six.os.tab">
          29 39 callgsubr
          40 49 callsubr
          312 -72 callsubr
        </CharString>
        <CharString name="six.tab">
          29 29 callsubr
          39 272 60 270 hintmask 11011100
          305 -77 callgsubr
        </CharString>
        <CharString name="slash">
          -233 21 -21 711 -20 hstem
          225 44 rmoveto
          168 626 -4 callsubr
          -162 -600 0 -6 -7 -14 callsubr
          endchar
        </CharString>
        <CharString name="space">
          -426 endchar
        </CharString>
        <CharString name="sterling">
          -57 0 204 -204 219 81 190 78 212 -198 198 hstemhm
          hintmask 10101000
          539 713 rmoveto
          38 -33 29 -137 -137 -144 -70 -220 vhcurveto
          -32 hlineto
          -17 -29 -18 -93 -55 17 -24 10 hvcurveto
          53 hlineto
          0 7 -21 -22 vvcurveto
          -26 -9 -27 -38 -31 -4 -57 -55 -55 16 -37 33 vhcurveto
          465 hlineto
          0 35 3 131 vvcurveto
          hintmask 01101000
          71 -11 14 -14 -13 -191 -9 -1 -19 vhcurveto
          6 vlineto
          33 17 7 40 28 vvcurveto
          117 hlineto
          29 16 40 88 38 -14 24 -12 hvcurveto
          -133 hlineto
          0 1 92 56 vhcurveto
          hintmask 10110000
          36 15 -14 26 hhcurveto
          28 18 77 68 hvcurveto
          endchar
        </CharString>
        <CharString name="t">
          -169 -8 169 233 187 190 -20 hstem
          87 270 vstem
          346 -8 22 callsubr
          59 vlineto
          3 callgsubr
          -32 vlineto
          -27 -18 -48 -58 -48 13 -33 14 hvcurveto
          50 -156 hlineto
          -215 106 -31 153 vhcurveto
          endchar
        </CharString>
        <CharString name="tcaron">
          105 13 -21 402 43 144 -20 219 -20 hstem
          87 270 155 204 vstem
          346 -8 rmoveto
          -153 -106 31 215 hvcurveto
          156 -50 vlineto
          -14 -13 33 48 58 18 48 27 hvcurveto
          32 121 hlineto
          45 114 24 65 38 53 -8 -37 vhcurveto
          -145 74 vlineto
          13 13 -17 -58 -64 -16 -48 -25 hvcurveto
          -59 -183 hlineto
          -42 51 -8 16 20 2 -29 -39 -92 -18 -9 -82 vhcurveto
          226 445 rmoveto
          -90 callsubr
        </CharString>
        <CharString name="thorn">
          84 -105 -21 118 164 290 143 -143 287 hstemhm
          31 276 56 271 hintmask 11101100
          31 -102 rmoveto
          -17 20 -7 74 79 103 -40 callgsubr
          94 54 callsubr
          164 46 154 162 139 -4 142 -172 -58 -64 -23 -44 -37 vhcurveto
          -8 hlineto
          11 69 rlineto
          96 vlineto
          hintmask 11011100
          10 0 36 -88 -89 -94 -36 -28 vhcurveto
          270 -243 rmoveto
          40 callsubr
          -21 -23 -7 -20 3 23 vhcurveto
          endchar
        </CharString>
        <CharString name="three">
          -42 23 callgsubr
          295 284 hintmask 10101000
          30 -85 callsubr
        </CharString>
        <CharString name="three.den">
          -287 -5 -27 callgsubr
          29 -98 callsubr
        </CharString>
        <CharString name="three.num">
          -287 366 -27 callgsubr
          400 -98 callsubr
        </CharString>
        <CharString name="three.os">
          -41 46 callgsubr
          303 269 vstem
          487 -76 callsubr
        </CharString>
        <CharString name="three.os.tab">
          29 46 callgsubr
          338 269 vstem
          522 -76 callsubr
        </CharString>
        <CharString name="three.tab">
          29 23 callgsubr
          330 284 hintmask 10101000
          65 -85 callsubr
        </CharString>
        <CharString name="threequarters">
          148 21 -21 73 299 -43 116 127 139 -116 116 -1 -20 hstemhm
          91 15 callgsubr
          282 148 hintmask 1010010110000000
          682 -104 callgsubr
          -294 319 rmoveto
          -11 58 -23 76 92 83 32 82 63 -44 24 -3 1 vhcurveto
          4 2 38 23 55 vvcurveto
          hintmask 1101001010000000
          48 -42 52 -128 -91 -39 -26 -18 -10 12 -85 20 vhcurveto
          hintmask 1100100110000000
          -63 callgsubr
          hintmask 1101001010000000
          -45 callsubr
          hintmask 1011000110000000
          -84 callsubr
          626 -363 rmoveto
          46 -37 callsubr
          hintmask 1101001010000000
          -91 callsubr
        </CharString>
        <CharString name="threesuperior">
          -287 366 -27 callgsubr
          400 -98 callsubr
        </CharString>
        <CharString name="tilde">
          -67 callgsubr
        </CharString>
        <CharString name="trademark">
          5 469 241 -227 -21 141 107 hstemhm
          25 186 -117 117 -117 186 18 116 97 120 hintmask 01110011
          332 462 rmoveto
          37 45 0 10 27 -9 71 0 hvcurveto
          4 hlineto
          24 -92 rlineto
          hintmask 10010011
          -6 1 1 -3 22 hhcurveto
          29 5 3 6 2 hvcurveto
          21 92 rlineto
          4 hlineto
          0 -7 -71 -27 vvcurveto
          hintmask 01110011
          -10 25 0 13 37 45 3 7 vhcurveto
          224 vlineto
          hintmask 10010011
          8 -18 6 -36 -44 -36 -11 -13 -4 vhcurveto
          -24 -88 rlineto
          -5 hlineto
          -30 92 rlineto
          7 -2 -13 13 -36 hhcurveto
          -42 -43 -6 -12 hvcurveto
          -220 vlineto
          hintmask 01100111
          -7 5 -3 29 vhcurveto
          -69 141 rmoveto
          10 7 28 44 25 -6 10 -5 hvcurveto
          -226 hlineto
          hintmask 01110011
          -11 -7 -26 -42 -20 5 -19 6 hvcurveto
          hintmask 01101011
          58 -131 hlineto
          -7 6 -3 29 36 46 3 7 vhcurveto
          131 vlineto
          endchar
        </CharString>
        <CharString name="two">
          -37 0 238 213 58 callgsubr
          295 289 hintmask 11010000
          99 -71 callsubr
        </CharString>
        <CharString name="two.den">
          -289 0 -15 callgsubr
          225 rmoveto
          hintmask 10110000
          -101 callsubr
          hintmask 11010000
          -39 15 -73 22 vhcurveto
          endchar
        </CharString>
        <CharString name="two.num">
          -289 371 -15 callgsubr
          596 rmoveto
          hintmask 10110000
          -101 callsubr
          hintmask 11010000
          -39 15 -73 22 vhcurveto
          endchar
        </CharString>
        <CharString name="two.os">
          -9 42 callsubr
          320 292 hintmask 11010000
          104 -70 callgsubr
        </CharString>
        <CharString name="two.os.tab">
          29 42 callsubr
          337 292 hintmask 11010000
          121 -70 callgsubr
        </CharString>
        <CharString name="two.tab">
          29 0 238 213 58 callgsubr
          328 289 hintmask 11010000
          132 -71 callsubr
        </CharString>
        <CharString name="twosuperior">
          -289 371 -15 callgsubr
          596 rmoveto
          hintmask 10110000
          -101 callsubr
          hintmask 11010000
          -39 15 -73 22 vhcurveto
          endchar
        </CharString>
        <CharString name="twothirds">
          257 0 111 -95 -21 243 139 -116 116 -50 126 99 158 -134 134 hstemhm
          171 171 288 15 callgsubr
          hintmask 1010010110000000
          718 -104 callgsubr
          -293 508 rmoveto
          hintmask 1000101110000000
          -101 callsubr
          hintmask 0110010101000000
          -39 15 -73 22 vhcurveto
          502 -523 rmoveto
          -11 58 -23 76 92 83 32 82 63 -44 24 -3 1 vhcurveto
          4 2 38 23 55 vvcurveto
          48 -42 52 -128 -91 -39 -26 -18 -10 12 -85 20 vhcurveto
          hintmask 1001010101000000
          -63 callgsubr
          hintmask 1010010110000000
          -45 callsubr
          hintmask 1010010101000000
          -84 callsubr
          endchar
        </CharString>
        <CharString name="u">
          -68 callgsubr
          13 callsubr
          hintmask 01111000
          394 16 rmoveto
          -81 callgsubr
          vhcurveto
          hintmask 10111000
          -35 -1 62 83 hvcurveto
          -79 callsubr
          endchar
        </CharString>
        <CharString name="uacute">
          20 callsubr
          68 270 hintmask 10111100
          -102 callgsubr
          hintmask 01111100
          -49 callgsubr
          65 764 rmoveto
          -106 callsubr
        </CharString>
        <CharString name="ubreve">
          -68 callgsubr
          50 -18 callsubr
          35 270 -108 108 68 108 -108 270 hintmask 1010101100000000
          394 16 rmoveto
          -81 callgsubr
          vhcurveto
          hintmask 0111010010000000
          -35 -1 62 83 hvcurveto
          -79 callsubr
          -69 657 rmoveto
          -92 callgsubr
          -64 callsubr
          1 callsubr
          vhcurveto
          hintmask 1011010100000000
          37 callsubr
        </CharString>
        <CharString name="ucircumflex">
          -68 callgsubr
          40 170 13 callsubr
          hintmask 10111100
          -102 callgsubr
          hintmask 01111100
          -49 callgsubr
          -53 754 rmoveto
          -48 -132 -67 -13 -43 15 -47 25 hvcurveto
          22 113 39 5 5 112 -39 23 hhcurveto
          47 callgsubr
        </CharString>
        <CharString name="udieresis">
          -68 callgsubr
          40 180 hstemhm
          35 59 -59 270 2 64 2 270 -59 59 hintmask 1011101100000000
          384 81 rmoveto
          -8 hlineto
          0 -14 -90 -126 -151 -50 70 190 vhcurveto
          272 vlineto
          27 96 30 87 vhcurveto
          hintmask 1011011100000000
          87 0 -35 -10 hvcurveto
          -254 vlineto
          -83 1 -62 35 9 23 4 23 vhcurveto
          360 vlineto
          28 103 29 88 74 5 -25 -14 vhcurveto
          -515 vlineto
          hintmask 0111101010000000
          -49 callgsubr
          -194 584 rmoveto
          -98 callgsubr
          277 hmoveto
          -98 callgsubr
          endchar
        </CharString>
        <CharString name="ugrave">
          20 callsubr
          -126 280 -86 270 hintmask 01110100
          394 16 rmoveto
          -81 callgsubr
          vhcurveto
          hintmask 10111010
          -35 -1 62 83 hvcurveto
          -79 callsubr
          -135 699 rmoveto
          -99 callsubr
        </CharString>
        <CharString name="uhungarumlaut">
          20 callsubr
          8 51 9 270 hintmask 10111110
          -102 callgsubr
          hintmask 01111110
          -49 callgsubr
          -151 764 rmoveto
          -96 callsubr
        </CharString>
        <CharString name="umacron">
          -68 callgsubr
          50 160 13 callsubr
          hintmask 10111100
          -102 callgsubr
          hintmask 01111100
          -49 callgsubr
          132 594 10 callsubr
          endchar
        </CharString>
        <CharString name="underscore">
          -58 -145 135 hstem
          537 -145 rmoveto
          25 16 38 44 48 -13 5 -13 hvcurveto
          -487 hlineto
          -27 -23 -36 -48 -43 13 -8 14 hvcurveto
          endchar
        </CharString>
        <CharString name="uni00AD">
          182 endchar
        </CharString>
        <CharString name="uogonek">
          27 61 callgsubr
          30 145 -115 65 callsubr
          -41 callgsubr
          68 174 -174 212 -212 270 hintmask 10111001
          426 47 rmoveto
          hintmask 11011100
          -95 callgsubr
          -69 callsubr
          -32 -31 rmoveto
          hintmask 10111010
          -81 callgsubr
          -35 -1 62 83 vhcurveto
          -79 callsubr
          endchar
        </CharString>
        <CharString name="uring">
          -68 callgsubr
          50 67 0 36 0 67 hstemhm
          35 189 -189 270 7 54 7 270 -189 189 hintmask 1010101011000000
          384 81 rmoveto
          -8 hlineto
          0 -14 -90 -126 -151 -50 70 190 vhcurveto
          272 vlineto
          27 96 30 87 vhcurveto
          hintmask 1010100111000000
          87 0 -35 -10 hvcurveto
          -254 vlineto
          -83 1 -62 35 9 23 4 23 vhcurveto
          360 vlineto
          28 103 29 88 74 5 -25 -14 vhcurveto
          -515 vlineto
          hintmask 0111011010100000
          -49 callgsubr
          -56 594 rmoveto
          -92 callsubr
        </CharString>
        <CharString name="utilde">
          -68 callgsubr
          85 101 -101 135 13 callsubr
          hintmask 10101110
          -102 callgsubr
          hintmask 01101110
          -49 callgsubr
          42 594 rmoveto
          64 82 63 16 16 -30 75 -32 hvcurveto
          hintmask 10110110
          -18 callgsubr
          hintmask 10101110
          -48 -52 34 -59 hhcurveto
          -59 -91 -60 -20 -20 30 -70 29 hvcurveto
          29 64 35 19 -36 callgsubr
        </CharString>
        <CharString name="v">
          28 -42 callsubr
          hstem
          216 24 rmoveto
          -16 6 8 -8 69 hhcurveto
          87 69 8 16 7 hvcurveto
          198 486 14 12 11 vvcurveto
          16 -17 31 -88 -75 -120 -28 -35 -3 vhcurveto
          -22 -302 rlineto
          -13 hlineto
          -25 318 rlineto
          16 -1 -13 31 -86 hhcurveto
          -103 -103 -53 -18 -11 114 -229 97 -245 hvcurveto
          endchar
        </CharString>
        <CharString name="w">
          332 -42 callsubr
          hstem
          358 266 vstem
          794 -88 callsubr
          endchar
        </CharString>
        <CharString name="wcircumflex">
          342 -42 callsubr
          50 170 hstem
          363 266 vstem
          799 -88 callsubr
          -293 756 rmoveto
          -48 -132 -67 -13 -43 15 -47 25 hvcurveto
          22 113 39 5 5 112 -39 23 hhcurveto
          47 callgsubr
        </CharString>
        <CharString name="x">
          28 -42 callsubr
          hstem
          208 hmoveto
          31 59 0 38 8 hvcurveto
          26 131 rlineto
          7 hlineto
          39 -131 rlineto
          -38 8 132 0 43 hhcurveto
          76 37 11 28 13 -166 225 0 hvcurveto
          0 156 226 32 vvcurveto
          37 -59 8 -73 -77 -78 -36 -10 -2 vhcurveto
          -16 -144 rlineto
          -9 hlineto
          -44 153 rlineto
          16 -4 -34 21 -60 hhcurveto
          -69 -125 -35 -26 -10 160 -218 0 hvcurveto
          0 -169 -226 -26 vvcurveto
          -29 127 -10 76 vhcurveto
          endchar
        </CharString>
        <CharString name="y">
          -29 callsubr
          -41 callgsubr
          51 270 -254 254 hintmask 10111010
          9 callgsubr
          hintmask 01111100
          -94 callgsubr
          hintmask 10111010
          8 hlineto
          endchar
        </CharString>
        <CharString name="yacute">
          -29 callsubr
          50 -16 callsubr
          -75 280 -154 270 -254 254 hintmask 1011110010000000
          9 callgsubr
          hintmask 0111110100000000
          -94 callgsubr
          hintmask 1011110010000000
          8 hlineto
          68 656 rmoveto
          hintmask 1011101000000000
          -106 callsubr
        </CharString>
        <CharString name="ycircumflex">
          -29 callsubr
          50 -16 callsubr
          51 270 -254 254 hintmask 10111101
          9 callgsubr
          hintmask 01111110
          -94 callgsubr
          hintmask 10111101
          8 hlineto
          -32 656 rmoveto
          -48 -132 -67 -13 -43 15 -47 25 hvcurveto
          22 113 39 5 5 112 -39 23 hhcurveto
          47 callgsubr
        </CharString>
        <CharString name="ydieresis">
          -29 callsubr
          40 180 -41 callgsubr
          -220 220 51 219 -213 213 -213 264 hintmask 1011110100000000
          9 callgsubr
          hintmask 0111110001000000
          -76 -71 26 -13 hhcurveto
          -25 -32 -113 -24 -29 74 -31 167 182 120 63 160 hvcurveto
          473 vlineto
          14 -5 25 -74 vhcurveto
          hintmask 1011110100000000
          -86 -105 -34 -28 hvcurveto
          -282 vlineto
          -21 -10 -6 -9 -30 -2 115 85 vhcurveto
          126 vlineto
          10 -1 35 -86 -88 -95 -35 -27 vhcurveto
          -138 vlineto
          -182 23 -121 164 97 45 47 67 callgsubr
          -181 476 -2 callsubr
          hintmask 1011101010000000
          -58 -48 -12 -76 -75 44 -17 62 hvcurveto
          277 hmoveto
          -98 callgsubr
          endchar
        </CharString>
        <CharString name="yen">
          47 0 179 -101 101 39 102 390 -20 hstemhm
          208 279 hintmask 10111000
          547 78 rmoveto
          14 21 39 25 34 -7 3 -8 hvcurveto
          -80 39 80 62 callsubr
          -79 hlineto
          52 91 128 227 16 vvcurveto
          19 -20 37 -84 -79 -126 -23 -40 -3 vhcurveto
          -19 -262 rlineto
          -11 hlineto
          -27 269 rlineto
          19 -2 -10 37 -89 hhcurveto
          -104 -104 -41 -26 -28 124 -210 51 -85 hvcurveto
          -31 62 callgsubr
          76 -39 -74 hlineto
          -15 -22 -32 -28 hvcurveto
          hintmask 01111000
          -28 7 -13 8 vhcurveto
          96 -49 hlineto
          hintmask 10111000
          -21 15 -8 75 78 111 10 19 vhcurveto
          hintmask 01111000
          49 vlineto
          endchar
        </CharString>
        <CharString name="z">
          20 callgsubr
          hstem
          -97 callgsubr
          endchar
        </CharString>
        <CharString name="zacute">
          40 callgsubr
          158 280 vstem
          -97 callgsubr
          -163 352 rmoveto
          -106 callsubr
        </CharString>
        <CharString name="zcaron">
          40 callgsubr
          -97 callgsubr
          -243 182 rmoveto
          -102 callsubr
        </CharString>
        <CharString name="zdotaccent">
          40 callgsubr
          148 280 vstem
          -97 callgsubr
          -243 352 rmoveto
          -93 callgsubr
        </CharString>
        <CharString name="zero">
          75 -9 157 415 158 hstem
          30 292 81 293 vstem
          363 -51 callgsubr
        </CharString>
        <CharString name="zero.den">
          -212 12 -21 284 98 hstem
          25 32 callgsubr
          vstem
          219 -9 -82 callsubr
          -65 callgsubr
          endchar
        </CharString>
        <CharString name="zero.num">
          -212 388 -21 284 98 hstem
          25 32 callgsubr
          vstem
          219 367 -82 callsubr
          -65 callgsubr
          endchar
        </CharString>
        <CharString name="zero.os">
          85 -9 157 302 157 hstem
          35 288 90 288 vstem
          368 -51 callsubr
        </CharString>
        <CharString name="zero.os.tab">
          29 -9 157 302 157 hstem
          7 288 90 288 vstem
          340 -51 callsubr
        </CharString>
        <CharString name="zero.tab">
          29 -9 157 415 158 hstem
          7 292 81 293 vstem
          340 -51 callgsubr
        </CharString>
      <CharString index="0">
        107 rmoveto
        7 -65 rlineto
        -29 3 77 -13 91 hhcurveto
        99 34 22 21 9 -189 628 0 hvcurveto
        19 -6 -26 11 -73 hhcurveto
        -91 -135 -11 -19 -7 hvcurveto
        -64 -208 -127 -396 -28 vvcurveto
        -27 67 -21 119 78 39 11 40 3 vhcurveto
        5 56 rlineto
        75 190 rmoveto
        -54 hlineto
        17 180 rlineto
        22 hlineto
        return
      </CharString>
      <CharString index="1">
        hmoveto
        20 13 53 -13 callgsubr
        -19 callsubr
        hvcurveto
        64 vlineto
        0 142 -4 39 25 14 49 70 44 -6 28 -21 -45 -148 -6 0 vhcurveto
        67 vlineto
        0 159 -13 60 20 13 53 -67 callsubr
        -83 38 callgsubr
        -633 -25 callgsubr
        69 vhcurveto
        return
      </CharString>
      <CharString index="2">
        343 -9 rmoveto
        184 133 95 210 259 -142 34 -175 -177 -141 -74 -219 -250 133 -55 185 hvcurveto
        145 vmoveto
        -4 callgsubr
        -145 -21 -9 -19 hvcurveto
        return
      </CharString>
      <CharString index="3">
        674 rmoveto
        1 2 1 3 4 vvcurveto
        12 -10 15 -52 -65 -15 -25 -25 -14 vhcurveto
        -1 -1 0 -2 -353 -623 rrcurveto
        -1 -3 -1 -2 -3 vvcurveto
        -13 13 -13 40 66 20 20 24 13 vhcurveto
        return
      </CharString>
      <CharString index="4">
        78 hhcurveto
        55 0 -65 0 hvcurveto
        -33 hlineto
        -92 -203 -20 -164 -167 141 -11 54 43 72 10 80 22 hvcurveto
        -3 76 rmoveto
        return
      </CharString>
      <CharString index="5">
        384 81 rmoveto
        -8 hlineto
        0 -14 -90 -126 -151 -50 70 190 vhcurveto
        272 vlineto
        27 96 30 87 87 0 -35 -10 vhcurveto
        -254 vlineto
        -83 1 -62 35 9 23 4 23 vhcurveto
        360 vlineto
        28 103 29 88 74 5 -25 -14 vhcurveto
        -515 vlineto
        return
      </CharString>
      <CharString index="6">
        vlineto
        10 -5 37 -86 -100 -88 -37 -28 vhcurveto
        -622 0 callsubr
        return
      </CharString>
      <CharString index="7">
        hmoveto
        86 109 10 19 hvcurveto
        236 5 vlineto
        93 -246 rlineto
        -13 5 20 -6 56 hhcurveto
        87 109 10 19 hvcurveto
        626 vlineto
        12 -4 43 -88 -99 -88 -34 -33 vhcurveto
        -236 -4 vlineto
        -96 258 rlineto
        44 -16 -29 1 -42 hhcurveto
        -99 -89 -34 -33 hvcurveto
        -614 -25 callgsubr
        70 vhcurveto
        return
      </CharString>
      <CharString index="8">
        298 hmoveto
        78 111 10 19 hvcurveto
        174 vlineto
        0 201 431 20 vvcurveto
        19 -20 37 -84 -79 -126 -23 -40 -3 vhcurveto
        -19 -262 rlineto
        -11 hlineto
        -27 269 rlineto
        19 -2 -10 37 -89 hhcurveto
        -104 -104 -41 -26 -35 198 -405 0 hvcurveto
        -174 vlineto
        -21 15 -8 75 vhcurveto
        return
      </CharString>
      <CharString index="9">
        -95 callsubr
        -58 -48 -12 -76 -75 44 -17 62 hvcurveto
        return
      </CharString>
      <CharString index="10">
        531 428 rmoveto
        83 -9 69 -39 vhcurveto
        -405 hlineto
        -27 -18 -58 -59 -49 11 -21 14 hvcurveto
        153 hlineto
        0 -186 -217 -26 vvcurveto
        -56 10 -94 40 vhcurveto
        431 hlineto
        27 18 59 58 55 -10 15 -15 hvcurveto
        -161 hlineto
        0 166 209 32 vvcurveto
        return
      </CharString>
      <CharString index="11">
        -64 callgsubr
        640 -101 callgsubr
        return
      </CharString>
      <CharString index="12">
        0 -47 -23 -65 vvcurveto
        -82 83 -32 92 76 58 13 11 63 -23 38 -13 vhcurveto
        -12 -28 -9 -36 hhcurveto
        -18 -11 5 11 hvcurveto
        return
      </CharString>
      <CharString index="13">
        -76 -71 26 -13 hhcurveto
        -25 -32 -113 -24 -29 74 -31 167 182 120 63 160 hvcurveto
        473 vlineto
        14 -5 25 -74 -86 -105 -34 -28 vhcurveto
        -282 vlineto
        -21 -10 -6 -9 -30 -2 115 85 vhcurveto
        126 vlineto
        10 -1 35 -86 -88 -95 -35 -27 vhcurveto
        -138 vlineto
        -182 23 -121 164 97 45 47 0 vhcurveto
        return
      </CharString>
      <CharString index="14">
        -75 -65 -11 -74 -73 65 -12 75 76 64 12 73 81 -64 4 -76 hvcurveto
        endchar
      </CharString>
      <CharString index="15">
        32 -35 0 -22 -22 -39 0 -30 -112 63 -18 79 78 64 21 109 return
      </CharString>
      <CharString index="16">
        45 -31 callsubr
        -46 -52 -107 -13 -14 -3 vhcurveto
        -6 -18 -3 -31 -22 vvcurveto
        -18 2 -19 7 vhcurveto
        return
      </CharString>
      <CharString index="17">
        176 23 29 38 38 23 -29 -176 -177 -23 -32 -38 return
      </CharString>
      <CharString index="18">
        44 58 -13 7 -13 hvcurveto
        return
      </CharString>
      <CharString index="19">
        0 149 124 177 111 149 hstem
        80 279 99 283 vstem
        80 273 rmoveto
        -243 vlineto
        -20 14 -10 69 vhcurveto
        236 hlineto
        -53 callsubr
        -211 -5 vlineto
        -74 callgsubr
        360 -124 rmoveto
        -23 -15 3 0 hvcurveto
        121 5 vlineto
        -75 callsubr
        -40 107 hlineto
        21 callsubr
      </CharString>
      <CharString index="20">
        0 -117 -240 -23 vvcurveto
        -14 8 -11 114 49 17 16 23 18 vhcurveto
        13 17 128 198 34 vvcurveto
        31 -122 183 -19 24 vhcurveto
        24 -19 -16 30 -49 hhcurveto
        -114 -8 -21 -14 -22 117 -235 0 hvcurveto
        return
      </CharString>
      <CharString index="21">
        64 callsubr
        -402 -1 callsubr
        return
      </CharString>
      <CharString index="22">
        -9 rmoveto
        184 115 64 169 67 -17 57 -31 34 hvcurveto
        hintmask 11101100
        17 19 18 57 51 vvcurveto
        160 -111 52 -175 -177 -110 -52 -160 -51 18 -57 17 -19 vhcurveto
        hintmask 11110100
        -31 -34 -17 -57 -67 vvcurveto
        -169 115 -64 185 vhcurveto
        145 vmoveto
        -20 -13 9 73 70 13 12 20 19 12 -12 -70 -73 -12 -9 -19 hvcurveto
        320 vmoveto
        -20 -13 14 46 43 13 16 20 19 12 -16 -43 -46 -12 -14 -19 hvcurveto
        endchar
      </CharString>
      <CharString index="23">
        hmoveto
        88 44 11 20 6 hvcurveto
        53 174 rlineto
        12 hlineto
        52 -174 rlineto
        -20 6 9 -11 59 hhcurveto
        88 53 11 20 7 hvcurveto
        214 620 rlineto
        20 -17 39 -89 -75 -125 -16 -43 -4 vhcurveto
        -26 -317 rlineto
        -14 hlineto
        -33 327 rlineto
        23 -2 -10 26 -74 hhcurveto
        -76 -55 -16 -43 -4 hvcurveto
        -28 -317 rlineto
        -14 hlineto
        -34 317 rlineto
        20 -2 -11 39 -87 hhcurveto
        -103 -113 -46 -23 hvcurveto
        221 -610 rlineto
        -20 7 8 -11 69 hhcurveto
        return
      </CharString>
      <CharString index="24">
        62 103 14 67 62 -57 6 -30 1 hvcurveto
        25 vlineto
        4 -1 11 -22 -41 -37 -11 -11 vhcurveto
        -47 vlineto
        -21 5 -10 11 vhcurveto
        6 6 1 17 hhcurveto
        return
      </CharString>
      <CharString index="25">
        517 rmoveto
        11 -4 36 -87 -91 -89 -36 -29 vhcurveto
        -475 -16 callgsubr
        -136 756 rmoveto
        -74 -65 -16 -74 -72 65 -18 74 77 64 18 72 74 -64 16 -77 hvcurveto
        return
      </CharString>
      <CharString index="26">
        -13 1 36 -3 32 hhcurveto
        40 140 4 22 hvcurveto
        515 vlineto
        14 -5 25 -74 -88 -103 -29 -28 vhcurveto
        -360 vlineto
        -23 -23 -4 -9 return
      </CharString>
      <CharString index="27">
        233 rmoveto
        65 -206 rlineto
        -23 8 25 -4 74 hhcurveto
        75 122 2 47 49 -115 181 0 hvcurveto
        58 37 39 75 94 vvcurveto
        229 -150 6 -216 -201 -81 -14 -34 vhcurveto
        return
      </CharString>
      <CharString index="28">
        rmoveto
        97 71 34 90 35 -18 25 -17 18 hvcurveto
        9 11 18 30 27 vvcurveto
        84 -67 28 -93 -93 -68 -28 -84 -27 18 -30 9 -11 vhcurveto
        -16 -18 -18 -25 -35 vvcurveto
        -90 70 -34 98 vhcurveto
        77 vmoveto
        -11 -10 4 39 38 10 5 11 10 11 -5 -38 -39 -11 -4 -10 hvcurveto
        165 vmoveto
        -11 -10 7 24 23 10 9 11 10 11 -9 -23 -24 -11 -7 -10 hvcurveto
        endchar
      </CharString>
      <CharString index="29">
        -48 -52 34 -59 hhcurveto
        -59 -91 -60 -20 hvcurveto
        return
      </CharString>
      <CharString index="30">
        425 rmoveto
        59 9 49 72 vhcurveto
        hintmask 11101100
        77 69 -19 15 hhcurveto
        24 31 131 25 28 -120 24 -140 -199 -104 -100 -264 -266 114 -101 203 256 29 145 98 112 -21 125 -163 -116 -36 -46 0 hvcurveto
        35 -78 rmoveto
        18 13 -38 -76 -78 -13 -23 -18 -19 -10 25 76 74 10 40 19 hvcurveto
        endchar
      </CharString>
      <CharString index="31">
        284 rmoveto
        -50 -9 -54 -72 vhcurveto
        hintmask 01111100
        -77 -69 14 -15 hhcurveto
        -24 -31 -131 -24 -29 120 -19 140 199 104 92 282 266 -114 91 -203 -229 -56 -145 -98 -131 57 -96 118 116 45 32 0 hvcurveto
        -35 92 rmoveto
        -18 -13 28 76 78 13 23 18 19 10 -25 -76 -74 -10 -30 -19 hvcurveto
        endchar
      </CharString>
      <CharString index="32">
        hvcurveto
        -33 hlineto
        -29 -16 -56 -43 -71 16 -20 11 hvcurveto
        51 return
      </CharString>
      <CharString index="33">
        -27 -38 -58 -48 -81 callsubr
        return
      </CharString>
      <CharString index="34">
        hintmask 11011100
        347 -9 rmoveto
        -213 -104 49 29 67 23 110 31 hvcurveto
        23 105 -54 83 hhcurveto
        43 12 12 23 hvcurveto
        -1 64 -296 -16 223 vvcurveto
        86 26 136 239 213 89 -43 -28 -68 -40 -104 -32 vhcurveto
        hintmask 10111010
        -14 -59 38 -72 hhcurveto
        -43 -22 -8 -28 -56 295 21 1 -241 hvcurveto
        -80 -43 -132 -244 vhcurveto
        return
      </CharString>
      <CharString index="35">
        177 rmoveto
        0 8 -19 -21 vvcurveto
        -79 -125 -21 -150 -18 -8 -26 -33 -56 24 -77 40 341 160 58 347 267 -114 90 -203 -238 -45 -140 -98 -104 39 -118 127 vhcurveto
        116 44 30 2 hhcurveto
        -27 94 rmoveto
        -18 -13 23 76 78 13 18 18 19 10 -20 -76 -74 -10 -25 -19 hvcurveto
        endchar
      </CharString>
      <CharString index="36">
        63 44 18 85 86 -47 12 -60 -58 -48 -12 -86 -85 51 callsubr
        return
      </CharString>
      <CharString index="37">
        387 rmoveto
        hintmask 10110000
        25 71 37 71 hhcurveto
        31 18 -9 -21 hvcurveto
        -79 -281 -95 -41 vvcurveto
        -157 42 -22 21 vhcurveto
        460 hlineto
        0 50 9 108 vvcurveto
        79 -30 2 -6 vhcurveto
        -228 5 hlineto
        64 7 194 50 151 vvcurveto
        149 -123 47 -164 -159 -125 -40 -27 vhcurveto
        hintmask 11010000
        -72 47 -81 22 vhcurveto
        endchar
      </CharString>
      <CharString index="38">
        305 734 rmoveto
        -23 callgsubr
        -692 -56 callgsubr
        87 99 -40 callgsubr
        return
      </CharString>
      <CharString index="39">
        27 -9 145 -115 65 callsubr
        return
      </CharString>
      <CharString index="40">
        -90 610 -57 callsubr
        hintmask 10000000
        375 610 -30 callsubr
        hintmask 00100000
        -12 callgsubr
        hintmask 10000000
        -18 callgsubr
        hintmask 00100000
        -78 callgsubr
        hintmask 10000000
        -11 callgsubr
        hintmask 01000000
        -12 callsubr
        hintmask 10000000
        -36 callgsubr
      </CharString>
      <CharString index="41">
        -117 rmoveto
        -64 callgsubr
        647 vlineto
        10 -5 36 -122 -100 -115 -17 -20 -18 vhcurveto
        -36 -42 -213 -326 -29 vvcurveto
        hintmask 01110000
        -72 2 -94 33 vhcurveto
        295 -93 hlineto
        hintmask 10110000
        -80 callsubr
        -67 292 rmoveto
        -114 hlineto
        115 235 rlineto
        0 0 -235 -1 vhcurveto
        endchar
      </CharString>
      <CharString index="42">
        97 vmoveto
        -12 -14 10 85 83 14 9 12 14 12 -9 -83 -85 -12 -10 -14 hvcurveto
        return
      </CharString>
      <CharString index="43">
        -56 callsubr
        hvcurveto
        return
      </CharString>
      <CharString index="44">
        11 33 23 34 hhcurveto
        24 3 -10 -6 -27 -58 8 -10 -4 hvcurveto
        return
      </CharString>
      <CharString index="45">
        -155 rmoveto
        276 183 61 204 173 -168 38 -166 hvcurveto
        45 280 vlineto
        36 6 122 32 33 -6 47 -20 hvcurveto
        -442 hlineto
        -30 -3 -109 -93 -46 11 -197 33 141 55 0 -39 -48 -83 -33 -131 -21 -8 -27 -33 -56 24 -74 33 hvcurveto
        endchar
      </CharString>
      <CharString index="46">
        rmoveto
        31 5 26 38 vhcurveto
        41 46 -10 7 hhcurveto
        13 17 79 12 15 -73 13 -74 -105 -65 -53 -140 -141 70 -48 107 136 24 77 52 60 -15 51 -87 -61 -24 -24 0 hvcurveto
        19 -42 rmoveto
        9 12 -10 -40 -42 -12 -7 -9 -11 -10 8 41 39 10 11 11 hvcurveto
        endchar
      </CharString>
      <CharString index="47">
        96 -38 90 -293 -141 -149 -66 -203 vhcurveto
        -34 hlineto
        -14 -30 -25 -74 -73 17 -18 13 hvcurveto
        48 -298 hlineto
        -20 41 -3 50 vhcurveto
        return
      </CharString>
      <CharString index="48">
        -1 241 -295 -21 56 vvcurveto
        28 22 8 43 vhcurveto
        72 59 -38 14 hhcurveto
        32 40 104 68 28 -89 43 -213 -239 -26 -136 -86 return
      </CharString>
      <CharString index="49">
        -52 callsubr
        -39 callgsubr
      </CharString>
      <CharString index="50">
        171 -171 220 16 80 139 144 return
      </CharString>
      <CharString index="51">
        vlineto
        -49 callsubr
        return
      </CharString>
      <CharString index="52">
        -16 14 -8 70 return
      </CharString>
      <CharString index="53">
        -24 -95 32 -42 hhcurveto
        -43 -41 -47 -106 -94 32 -55 46 hvcurveto
        45 96 41 26 hhcurveto
        48 18 -121 -33 -84 -131 -13 -131 hvcurveto
        return
      </CharString>
      <CharString index="54">
        23 19 4 9 35 0 -61 -82 vhcurveto
        -278 -56 callgsubr
        87 99 -40 callgsubr
        return
      </CharString>
      <CharString index="55">
        -36 0 212 47 191 48 212 return
      </CharString>
      <CharString index="56">
        -9 rmoveto
        204 129 60 309 298 -140 63 -193 -194 -139 -63 -298 -309 129 -60 204 hvcurveto
        157 vmoveto
        -24 -17 27 177 176 17 35 24 25 15 -35 -176 -177 -15 -27 -25 hvcurveto
        endchar
      </CharString>
      <CharString index="57">
        rmoveto
        44 68 16 25 hvcurveto
        118 97 vlineto
        -75 callsubr
        -132 130 hlineto
        14 -23 13 -48 -48 -58 -18 -27 vhcurveto
        -112 -93 vlineto
        -74 callgsubr
        131 -133 hlineto
        -13 7 -13 58 vhcurveto
        return
      </CharString>
      <CharString index="58">
        -22 -140 -4 -40 -32 -36 3 13 -1 vhcurveto
        return
      </CharString>
      <CharString index="59">
        -30 callsubr
        hintmask 10011100
        -12 callgsubr
        hintmask 11001100
        -18 callgsubr
        hintmask 10011100
        -78 callgsubr
        hintmask 11001100
        -11 callgsubr
        hintmask 10101100
        -12 callsubr
        hintmask 11001100
        -36 callgsubr
      </CharString>
      <CharString index="60">
        hmoveto
        -53 callsubr
        -631 vlineto
        -20 14 -10 69 vhcurveto
        196 153 rmoveto
        404 vlineto
        -28 callgsubr
        return
      </CharString>
      <CharString index="61">
        -116 rmoveto
        87 119 8 16 7 hvcurveto
        91 210 116 370 66 vvcurveto
        28 -5 18 -68 vhcurveto
        -492 hlineto
        -35 -9 -99 -42 -62 14 -39 12 hvcurveto
        299 hlineto
        0 -220 -422 -28 vvcurveto
        -80 callsubr
        endchar
      </CharString>
      <CharString index="62">
        -203 269 71 -65 vvcurveto
        -20 -16 -4 -41 vhcurveto
        -81 -59 44 -32 hhcurveto
        -24 -42 -96 -55 -23 73 -42 209 hvcurveto
        return
      </CharString>
      <CharString index="63">
        25 15 47 43 return
      </CharString>
</ttFont>
